{
.appVersion = "3343";
copyright = "Copyright 2019 The Hanuman Project Authors (https://github.com/danhhong/Hanuman)";
customParameters = (
{
name = panose;
value = (
2,
2,
6,
0,
6,
5,
0,
2,
2,
0
);
},
{
name = unicodeRanges;
value = (
0,
1,
2,
3,
4,
5,
6,
7,
9,
29,
30,
31,
32,
33,
34,
35,
36,
37,
38,
39,
43,
44,
45,
46,
60,
62,
64,
67,
69
);
},
{
name = glyphOrder;
value = (
.notdef,
CR,
space,
uni0000,
exclam,
quotedbl,
numbersign,
dollar,
percent,
ampersand,
quotesingle,
parenleft,
parenright,
asterisk,
plus,
comma,
hyphen,
period,
slash,
zero,
one,
two,
three,
four,
five,
six,
seven,
eight,
nine,
colon,
semicolon,
less,
equal,
greater,
question,
at,
A,
B,
C,
D,
E,
F,
G,
H,
I,
J,
K,
L,
M,
N,
O,
P,
Q,
R,
S,
T,
U,
V,
W,
X,
Y,
Z,
bracketleft,
backslash,
bracketright,
asciicircum,
underscore,
grave,
a,
b,
c,
d,
e,
f,
g,
h,
i,
j,
k,
l,
m,
n,
o,
p,
q,
r,
s,
t,
u,
v,
w,
x,
y,
z,
braceleft,
bar,
braceright,
asciitilde,
guillemotleft,
guillemotright,
uni1780,
uni1781,
uni1782,
uni1783,
uni1784,
uni1785,
uni1786,
uni1787,
uni1788,
uni1789,
uni178A,
uni178B,
uni178C,
uni178D,
uni178E,
uni178F,
uni1790,
uni1791,
uni1792,
uni1793,
uni1794,
uni1795,
uni1796,
uni1797,
uni1798,
uni1799,
uni179A,
uni179B,
uni179C,
uni179D,
uni179E,
uni179F,
uni17A0,
uni17A1,
uni17A2,
uni17A3,
uni17A4,
uni17A5,
uni17A6,
uni17A7,
uni17A8,
uni17A9,
uni17AA,
uni17AB,
uni17AC,
uni17AD,
uni17AE,
uni17AF,
uni17B0,
uni17B1,
uni17B2,
uni17B3,
uni17B4,
uni17B5,
uni17B6,
uni17B7,
uni17B8,
uni17B9,
uni17BA,
uni17BB,
uni17BC,
uni17BD,
uni17BE,
uni17BF,
uni17C0,
uni17C1,
uni17C2,
uni17C3,
uni17C4,
uni17C5,
uni17C6,
uni17C7,
uni17C8,
uni17C9,
uni17CA,
uni17CB,
uni17CC,
uni17CD,
uni17CE,
uni17CF,
uni17D0,
uni17D1,
uni17D2,
uni17D3,
uni17D4,
uni17D5,
uni17D6,
uni17D7,
uni17D8,
uni17D9,
uni17DA,
uni17DB,
uni17DC,
uni17DD,
uni17E0,
uni17E1,
uni17E2,
uni17E3,
uni17E4,
uni17E5,
uni17E6,
uni17E7,
uni17E8,
uni17E9,
ta.half,
cho.half,
ru.half,
ruu.half,
uni17D2_1780,
uni17D2_1781,
uni17D2_1782,
uni17D21783,

glyphs = (
{
glyphname = .notdef;
lastChange = "2024-07-28 00:48:30 +0000";
layers = (
{
layerId = "1AFB1E35-9546-41E1-B92B-6969383A0DDD";
paths = (
{
closed = 1;
nodes = (
"922 0 LINE",
"922 1462 LINE",
"102 1462 LINE",
"102 0 LINE"
);
},
{
closed = 1;
nodes = (
"201 1364 LINE",
"823 1364 LINE",
"823 98 LINE",
"201 98 LINE"
);
}
);
userData = {
assembly = "NPUSHB[ ]	/* 39 values pushed */
4 1 1 0 2 3 1 2 103 0 3 0 0 3 87 0 3 3 0 95 0 0 3 0 79 0 0 7 6 5 4 0 3 0 3 17 5 6 23 
CALL[ ]	/* CallFunction */";
};
width = 1024;
},
{
layerId = "759DCBF5-126F-43AE-ABB8-3EC70824EECD";
paths = (
{
closed = 1;
nodes = (
"922 0 LINE",
"922 1462 LINE",
"102 1462 LINE",
"102 0 LINE"
);
},
{
closed = 1;
nodes = (
"201 1364 LINE",
"823 1364 LINE",
"823 98 LINE",
"201 98 LINE"
);
}
);
userData = {
assembly = "NPUSHB[ ]	/* 39 values pushed */
4 1 1 0 2 3 1 2 103 0 3 0 0 3 87 0 3 3 0 95 0 0 3 0 79 0 0 7 6 5 4 0 3 0 3 17 5 6 23 
CALL[ ]	/* CallFunction */";
};
width = 1024;
},
{
layerId = "CD48D813-7107-4EBE-8BC7-C661170EDB17";
paths = (
{
closed = 1;
nodes = (
"922 0 LINE",
"922 1462 LINE",
"102 1462 LINE",
"102 0 LINE"
);
},
{
closed = 1;
nodes = (
"201 1364 LINE",
"823 1364 LINE",
"823 98 LINE",
"201 98 LINE"
);
}
);
userData = {
assembly = "NPUSHB[ ]	/* 39 values pushed */
4 1 1 0 2 3 1 2 103 0 3 0 0 3 87 0 3 3 0 95 0 0 3 0 79 0 0 7 6 5 4 0 3 0 3 17 5 6 23 
CALL[ ]	/* CallFunction */";
};
width = 1024;
}
);
note = .notdef;
},
{
glyphname = exclam;
lastChange = "2024-07-28 00:48:30 +0000";
layers = (
{
layerId = "1AFB1E35-9546-41E1-B92B-6969383A0DDD";
paths = (
{
closed = 1;
nodes = (
"435 517 LINE",
"435 1456 LINE",
"84 1456 LINE",
"84 517 LINE"
);
},
{
closed = 1;
nodes = (
"435 0 LINE",
"435 288 LINE",
"84 288 LINE",
"84 0 LINE"
);
}
);
width = 483;
},
{
layerId = "759DCBF5-126F-43AE-ABB8-3EC70824EECD";
paths = (
{
closed = 1;
nodes = (
"340 478 LINE",
"340 1456 LINE",
"143 1456 LINE",
"143 478 LINE"
);
},
{
closed = 1;
nodes = (
"340 0 LINE",
"340 204 LINE",
"143 204 LINE",
"143 0 LINE"
);
}
);
userData = {
assembly = "NPUSHB[ ]	/* 41 values pushed */
0 0 0 1 95 4 1 1 1 31 77 5 1 3 3 2 95 0 2 2 32 2 78 4 4 0 0 4 7 4 7 6 5 0 3 0 3 17 6 8 23 
CALL[ ]	/* CallFunction */";
};
width = 483;
},
{
layerId = "CD48D813-7107-4EBE-8BC7-C661170EDB17";
paths = (
{
closed = 1;
nodes = (
"277 478 LINE",
"277 1456 LINE",
"223 1456 LINE",
"223 478 LINE"
);
},
{
closed = 1;
nodes = (
"298 0 LINE",
"298 134 LINE",
"203 134 LINE",
"203 0 LINE"
);
}
);
width = 483;
}
);
note = exclam;
unicode = 0021;
},
{
glyphname = quotedbl;
lastChange = "2024-07-29 04:13:48 +0000";
layers = (
{
layerId = "1AFB1E35-9546-41E1-B92B-6969383A0DDD";
paths = (
{
closed = 1;
nodes = (
"593 1017 LINE",
"697 1285 LINE",
"697 1560 LINE",
"444 1560 LINE",
"444 1017 LINE"
);
},
{
closed = 1;
nodes = (
"239 1017 LINE",
"343 1285 LINE",
"343 1560 LINE",
"90 1560 LINE",
"90 1017 LINE"
);
}
);
width = 770;
},
{
layerId = "759DCBF5-126F-43AE-ABB8-3EC70824EECD";
paths = (
{
closed = 1;
nodes = (
"573 1055 LINE",
"634 1337 LINE",
"634 1560 LINE",
"476 1560 LINE",
"476 1055 LINE"
);
},
{
closed = 1;
nodes = (
"263 1055 LINE",
"324 1337 LINE",
"324 1560 LINE",
"166 1560 LINE",
"166 1055 LINE"
);
}
);
userData = {
assembly = "NPUSHB[ ]	/* 27 values pushed */
5 0 2 0 1 1 76 2 1 0 0 1 95 3 1 1 1 33 0 78 17 18 17 17 4 8 26 
CALL[ ]	/* CallFunction */";
};
width = 770;
},
{
layerId = "CD48D813-7107-4EBE-8BC7-C661170EDB17";
paths = (
{
closed = 1;
nodes = (
"467 1122 LINE",
"487 1391 LINE",
"487 1560 LINE",
"432 1560 LINE",
"417 1122 LINE"
);
},
{
closed = 1;
nodes = (
"286 1122 LINE",
"306 1391 LINE",
"306 1560 LINE",
"251 1560 LINE",
"236 1122 LINE"
);
}
);
width = 770;
}
);
note = quotedbl;
unicode = 0022;
},
{
glyphname = numbersign;
lastChange = "2024-07-29 04:14:20 +0000";
layers = (
{
layerId = "1AFB1E35-9546-41E1-B92B-6969383A0DDD";
paths = (
{
closed = 1;
nodes = (
"434 0 LINE",
"501 410 LINE",
"653 410 LINE",
"586 0 LINE",
"789 0 LINE",
"856 410 LINE",
"1115 410 LINE",
"1115 597 LINE",
"885 597 LINE",
"926 851 LINE",
"1190 851 LINE",
"1190 1040 LINE",
"958 1040 LINE",
"1027 1456 LINE",
"822 1456 LINE",
"755 1040 LINE",
"602 1040 LINE",
"669 1456 LINE",
"466 1456 LINE",
"397 1040 LINE",
"150 1040 LINE",
"150 851 LINE",
"366 851 LINE",
"326 597 LINE",
"74 597 LINE",
"74 410 LINE",
"296 410 LINE",
"229 0 LINE"
);
},
{
closed = 1;
nodes = (
"571 851 LINE",
"723 851 LINE",
"682 597 LINE",
"530 597 LINE"
);
}
);
width = 1246;
},
{
layerId = "759DCBF5-126F-43AE-ABB8-3EC70824EECD";
paths = (
{
closed = 1;
nodes = (
"369 0 LINE",
"449 410 LINE",
"705 410 LINE",
"625 0 LINE",
"776 0 LINE",
"856 410 LINE",
"1104 410 LINE",
"1104 550 LINE",
"884 550 LINE",
"952 898 LINE",
"1179 898 LINE",
"1179 1040 LINE",
"979 1040 LINE",
"1061 1456 LINE",
"910 1456 LINE",
"828 1040 LINE",
"573 1040 LINE",
"655 1456 LINE",
"504 1456 LINE",
"422 1040 LINE",
"139 1040 LINE",
"139 898 LINE",
"394 898 LINE",
"326 550 LINE",
"63 550 LINE",
"63 410 LINE",
"298 410 LINE",
"218 0 LINE"
);
},
{
closed = 1;
nodes = (
"545 898 LINE",
"801 898 LINE",
"733 550 LINE",
"477 550 LINE"
);
}
);
userData = {
assembly = "MPPEM[ ]	/* MeasurePixelPerEm */
PUSHB[ ]	/* 1 value pushed */
23 
LT[ ]	/* LessThan */
IF[ ]	/* If */
NPUSHB[ ]	/* 40 values pushed */
15 10 2 2 16 13 11 3 1 0 2 1 103 7 1 5 5 31 77 14 9 2 3 3 4 95 8 6 2 4 4 34 77 12 1 0 0 32 0 78 
ELSE[ ]	/* Else */
NPUSHB[ ]	/* 38 values pushed */
8 6 2 4 14 9 2 3 2 4 3 104 15 10 2 2 16 13 11 3 1 0 2 1 103 7 1 5 5 31 77 12 1 0 0 32 0 78 
EIF[ ]	/* EndIf */
NPUSHB[ ]	/* 30 values pushed */
0 0 31 30 29 28 0 27 0 27 26 25 24 23 22 21 20 19 17 17 17 17 17 17 17 17 17 17 8 31 
CALL[ ]	/* CallFunction */";
};
width = 1246;
},
{
layerId = "CD48D813-7107-4EBE-8BC7-C661170EDB17";
paths = (
{
closed = 1;
nodes = (
"316 0 LINE",
"390 410 LINE",
"754 410 LINE",
"679 0 LINE",
"735 0 LINE",
"810 410 LINE",
"1104 410 LINE",
"1104 462 LINE",
"819 462 LINE",
"915 986 LINE",
"1179 986 LINE",
"1179 1040 LINE",
"925 1040 LINE",
"1001 1456 LINE",
"945 1456 LINE",
"869 1040 LINE",
"504 1040 LINE",
"580 1456 LINE",
"524 1456 LINE",
"449 1040 LINE",
"139 1040 LINE",
"139 986 LINE",
"439 986 LINE",
"344 462 LINE",
"63 462 LINE",
"63 410 LINE",
"334 410 LINE",
"260 0 LINE"
);
},
{
closed = 1;
nodes = (
"494 986 LINE",
"859 986 LINE",
"763 462 LINE",
"400 462 LINE"
);
}
);
width = 1246;
}
);
note = numbersign;
unicode = 0023;
},
{
glyphname = dollar;
lastChange = "2024-07-29 04:15:30 +0000";
layers = (
{
layerId = "1AFB1E35-9546-41E1-B92B-6969383A0DDD";
paths = (
{
closed = 1;
nodes = (
"659 -218 LINE",
"659 -15 LINE",
"844 4 OFFCURVE",
"1064 216 OFFCURVE",
"1064 389 QCURVE SMOOTH",
"1064 512 OFFCURVE",
"965 677 OFFCURVE",
"763 805 OFFCURVE",
"609 872 QCURVE SMOOTH",
"546 900 OFFCURVE",
"474 954 OFFCURVE",
"445 1019 OFFCURVE",
"445 1063 QCURVE SMOOTH",
"445 1130 OFFCURVE",
"509 1214 OFFCURVE",
"576 1214 QCURVE SMOOTH",
"641 1214 OFFCURVE",
"722 1111 OFFCURVE",
"722 1004 QCURVE",
"1069 1004 LINE",
"1066 1012 LINE",
"1069 1200 OFFCURVE",
"858 1442 OFFCURVE",
"678 1469 QCURVE",
"678 1685 LINE",
"518 1685 LINE",
"518 1474 LINE",
"326 1456 OFFCURVE",
"96 1237 OFFCURVE",
"96 1067 QCURVE SMOOTH",
"96 942 OFFCURVE",
"192 776 OFFCURVE",
"393 652 OFFCURVE",
"549 590 QCURVE SMOOTH",
"611 563 OFFCURVE",
"682 508 OFFCURVE",
"713 438 OFFCURVE",
"713 387 QCURVE SMOOTH",
"713 344 OFFCURVE",
"683 278 OFFCURVE",
"623 241 OFFCURVE",
"578 241 QCURVE SMOOTH",
"523 241 OFFCURVE",
"439 288 OFFCURVE",
"391 389 OFFCURVE",
"391 470 QCURVE",
"48 470 LINE",
"46 465 LINE",
"44 313 OFFCURVE",
"161 108 OFFCURVE",
"367 -4 OFFCURVE",
"498 -17 QCURVE",
"498 -218 LINE"
);
}
);
width = 1110;
},
{
layerId = "759DCBF5-126F-43AE-ABB8-3EC70824EECD";
paths = (
{
closed = 1;
nodes = (
"626 -208 LINE",
"626 -17 LINE",
"806 2 OFFCURVE",
"1012 206 OFFCURVE",
"1012 378 QCURVE SMOOTH",
"1012 491 OFFCURVE",
"924 651 OFFCURVE",
"746 766 OFFCURVE",
"610 810 QCURVE SMOOTH",
"504 846 OFFCURVE",
"382 922 OFFCURVE",
"330 1017 OFFCURVE",
"330 1081 QCURVE SMOOTH",
"330 1188 OFFCURVE",
"448 1311 OFFCURVE",
"566 1311 QCURVE SMOOTH",
"678 1311 OFFCURVE",
"803 1143 OFFCURVE",
"803 1007 QCURVE",
"985 1007 LINE",
"999 1007 LINE",
"999 1208 OFFCURVE",
"814 1447 OFFCURVE",
"647 1471 QCURVE",
"647 1693 LINE",
"489 1693 LINE",
"489 1472 LINE",
"323 1451 OFFCURVE",
"133 1243 OFFCURVE",
"133 1078 QCURVE SMOOTH",
"133 965 OFFCURVE",
"225 800 OFFCURVE",
"407 684 OFFCURVE",
"541 643 QCURVE SMOOTH",
"639 610 OFFCURVE",
"760 532 OFFCURVE",
"815 436 OFFCURVE",
"815 376 QCURVE SMOOTH",
"815 304 OFFCURVE",
"750 200 OFFCURVE",
"628 144 OFFCURVE",
"542 144 QCURVE SMOOTH",
"467 144 OFFCURVE",
"345 201 OFFCURVE",
"274 327 OFFCURVE",
"274 429 QCURVE",
"84 429 LINE",
"82 424 LINE",
"80 286 OFFCURVE",
"178 98 OFFCURVE",
"356 -5 OFFCURVE",
"470 -17 QCURVE",
"470 -208 LINE"
);
}
);
userData = {
assembly = "NPUSHB[ ]	/* 60 values pushed */
30 27 2 5 3 52 2 2 0 2 2 76 0 4 5 1 5 4 1 128 0 1 2 5 1 2 126 0 3 0 5 4 3 5 105 0 2 0 0 2 89 0 2 2 0 95 0 0 2 0 79 34 36 31 35 37 16 6 8 28 
CALL[ ]	/* CallFunction */";
};
width = 1110;
},
{
layerId = "CD48D813-7107-4EBE-8BC7-C661170EDB17";
paths = (
{
closed = 1;
nodes = (
"614 -208 LINE",
"614 -20 LINE",
"787 -10 OFFCURVE",
"995 185 OFFCURVE",
"995 346 QCURVE SMOOTH",
"995 456 OFFCURVE",
"908 601 OFFCURVE",
"727 705 OFFCURVE",
"587 754 QCURVE SMOOTH",
"438 803 OFFCURVE",
"277 901 OFFCURVE",
"216 1025 OFFCURVE",
"216 1112 QCURVE SMOOTH",
"216 1241 OFFCURVE",
"399 1424 OFFCURVE",
"573 1424 QCURVE SMOOTH",
"743 1424 OFFCURVE",
"933 1213 OFFCURVE",
"933 1047 QCURVE",
"980 1047 LINE",
"982 1052 LINE",
"985 1245 OFFCURVE",
"784 1466 OFFCURVE",
"603 1476 QCURVE",
"603 1663 LINE",
"548 1663 LINE",
"548 1476 LINE",
"371 1469 OFFCURVE",
"162 1270 OFFCURVE",
"162 1110 QCURVE SMOOTH",
"162 999 OFFCURVE",
"247 853 OFFCURVE",
"427 749 OFFCURVE",
"570 702 QCURVE SMOOTH",
"712 651 OFFCURVE",
"874 552 OFFCURVE",
"941 431 OFFCURVE",
"941 344 QCURVE SMOOTH",
"941 259 OFFCURVE",
"851 117 OFFCURVE",
"689 32 OFFCURVE",
"580 32 QCURVE SMOOTH",
"468 32 OFFCURVE",
"281 110 OFFCURVE",
"169 276 OFFCURVE",
"169 409 QCURVE",
"123 409 LINE",
"121 403 LINE",
"118 260 OFFCURVE",
"232 75 OFFCURVE",
"433 -17 OFFCURVE",
"559 -21 QCURVE",
"559 -208 LINE"
);
}
);
width = 1110;
}
);
note = dollar;
unicode = 0024;
},
{
glyphname = percent;
lastChange = "2024-07-29 04:16:21 +0000";
layers = (
{
layerId = "1AFB1E35-9546-41E1-B92B-6969383A0DDD";
paths = (
{
closed = 1;
nodes = (
"1171 1246 LINE",
"1009 1326 LINE",
"298 188 LINE",
"460 108 LINE"
);
},
{
closed = 1;
nodes = (
"1187 -19 OFFCURVE",
"1331 58 OFFCURVE",
"1406 194 OFFCURVE",
"1406 281 QCURVE SMOOTH",
"1406 357 LINE SMOOTH",
"1406 444 OFFCURVE",
"1330 580 OFFCURVE",
"1185 657 OFFCURVE",
"1080 657 QCURVE SMOOTH",
"975 657 OFFCURVE",
"828 579 OFFCURVE",
"752 443 OFFCURVE",
"752 357 QCURVE SMOOTH",
"752 281 LINE SMOOTH",
"752 195 OFFCURVE",
"830 59 OFFCURVE",
"977 -19 OFFCURVE",
"1082 -19 QCURVE SMOOTH"
);
},
{
closed = 1;
nodes = (
"1038 167 OFFCURVE",
"976 235 OFFCURVE",
"976 281 QCURVE SMOOTH",
"976 357 LINE SMOOTH",
"976 404 OFFCURVE",
"1028 470 OFFCURVE",
"1080 470 QCURVE SMOOTH",
"1130 470 OFFCURVE",
"1182 404 OFFCURVE",
"1182 357 QCURVE SMOOTH",
"1182 281 LINE SMOOTH",
"1182 226 OFFCURVE",
"1141 167 OFFCURVE",
"1082 167 QCURVE SMOOTH"
);
},
{
closed = 1;
nodes = (
"495 800 OFFCURVE",
"639 877 OFFCURVE",
"714 1012 OFFCURVE",
"714 1099 QCURVE SMOOTH",
"714 1176 LINE SMOOTH",
"714 1264 OFFCURVE",
"639 1399 OFFCURVE",
"494 1477 OFFCURVE",
"388 1477 QCURVE SMOOTH",
"283 1477 OFFCURVE",
"138 1399 OFFCURVE",
"62 1263 OFFCURVE",
"62 1176 QCURVE SMOOTH",
"62 1099 LINE SMOOTH",
"62 1012 OFFCURVE",
"138 877 OFFCURVE",
"285 800 OFFCURVE",
"390 800 QCURVE SMOOTH"
);
},
{
closed = 1;
nodes = (
"339 987 OFFCURVE",
"285 1051 OFFCURVE",
"285 1099 QCURVE SMOOTH",
"285 1176 LINE SMOOTH",
"285 1224 OFFCURVE",
"338 1290 OFFCURVE",
"388 1290 QCURVE SMOOTH",
"438 1290 OFFCURVE",
"492 1224 OFFCURVE",
"492 1176 QCURVE SMOOTH",
"492 1099 LINE SMOOTH",
"492 1052 OFFCURVE",
"438 987 OFFCURVE",
"390 987 QCURVE SMOOTH"
);
}
);
width = 1460;
},
{
layerId = "759DCBF5-126F-43AE-ABB8-3EC70824EECD";
paths = (
{
closed = 1;
nodes = (
"1133 1248 LINE",
"1024 1315 LINE",
"313 177 LINE",
"422 110 LINE"
);
},
{
closed = 1;
nodes = (
"1175 -21 OFFCURVE",
"1310 58 OFFCURVE",
"1384 194 OFFCURVE",
"1384 279 QCURVE SMOOTH",
"1384 357 LINE SMOOTH",
"1384 442 OFFCURVE",
"1309 578 OFFCURVE",
"1173 657 OFFCURVE",
"1082 657 QCURVE SMOOTH",
"991 657 OFFCURVE",
"856 577 OFFCURVE",
"782 441 OFFCURVE",
"782 357 QCURVE SMOOTH",
"782 279 LINE SMOOTH",
"782 194 OFFCURVE",
"856 58 OFFCURVE",
"992 -21 OFFCURVE",
"1084 -21 QCURVE SMOOTH"
);
},
{
closed = 1;
nodes = (
"1009 101 OFFCURVE",
"928 204 OFFCURVE",
"928 279 QCURVE SMOOTH",
"928 357 LINE SMOOTH",
"928 431 OFFCURVE",
"1008 535 OFFCURVE",
"1082 535 QCURVE SMOOTH",
"1156 535 OFFCURVE",
"1238 431 OFFCURVE",
"1238 357 QCURVE SMOOTH",
"1238 279 LINE SMOOTH",
"1238 204 OFFCURVE",
"1158 101 OFFCURVE",
"1084 101 QCURVE SMOOTH"
);
},
{
closed = 1;
nodes = (
"470 800 OFFCURVE",
"605 879 OFFCURVE",
"679 1014 OFFCURVE",
"679 1099 QCURVE SMOOTH",
"679 1176 LINE SMOOTH",
"679 1261 OFFCURVE",
"605 1398 OFFCURVE",
"469 1477 OFFCURVE",
"377 1477 QCURVE SMOOTH",
"286 1477 OFFCURVE",
"151 1397 OFFCURVE",
"77 1261 OFFCURVE",
"77 1176 QCURVE SMOOTH",
"77 1099 LINE SMOOTH",
"77 1014 OFFCURVE",
"152 879 OFFCURVE",
"288 800 OFFCURVE",
"379 800 QCURVE SMOOTH"
);
},
{
closed = 1;
nodes = (
"304 922 OFFCURVE",
"223 1025 OFFCURVE",
"223 1099 QCURVE SMOOTH",
"223 1176 LINE SMOOTH",
"223 1250 OFFCURVE",
"303 1355 OFFCURVE",
"377 1355 QCURVE SMOOTH",
"451 1355 OFFCURVE",
"533 1250 OFFCURVE",
"533 1176 QCURVE SMOOTH",
"533 1099 LINE SMOOTH",
"533 1024 OFFCURVE",
"452 922 OFFCURVE",
"379 922 QCURVE SMOOTH"
);
}
);
userData = {
assembly = "NPUSHB[ ]	/* 87 values pushed */
65 1 6 7 67 66 2 2 3 2 76 11 1 6 10 1 4 1 6 4 105 0 1 0 3 2 1 3 105 0 7 7 5 97 0 5 5 37 77 9 1 2 2 0 97 8 1 0 0 38 0 78 51 50 33 32 19 18 1 0 58 56 50 63 51 63 42 40 32 49 33 49 26 24 18 31 19 31 10 8 0 17 1 17 12 8 22 
CALL[ ]	/* CallFunction */";
};
width = 1460;
},
{
layerId = "CD48D813-7107-4EBE-8BC7-C661170EDB17";
paths = (
{
closed = 1;
nodes = (
"1108 1269 LINE",
"1063 1300 LINE",
"352 162 LINE",
"397 131 LINE"
);
},
{
closed = 1;
nodes = (
"1194 -21 OFFCURVE",
"1316 59 OFFCURVE",
"1385 195 OFFCURVE",
"1385 279 QCURVE SMOOTH",
"1385 357 LINE SMOOTH",
"1385 441 OFFCURVE",
"1316 577 OFFCURVE",
"1193 657 OFFCURVE",
"1113 657 QCURVE SMOOTH",
"1033 657 OFFCURVE",
"911 576 OFFCURVE",
"842 440 OFFCURVE",
"842 357 QCURVE SMOOTH",
"842 279 LINE SMOOTH",
"842 195 OFFCURVE",
"911 59 OFFCURVE",
"1034 -21 OFFCURVE",
"1115 -21 QCURVE SMOOTH"
);
},
{
closed = 1;
nodes = (
"1009 34 OFFCURVE",
"897 178 OFFCURVE",
"897 279 QCURVE SMOOTH",
"897 357 LINE SMOOTH",
"897 462 OFFCURVE",
"1010 602 OFFCURVE",
"1113 602 QCURVE SMOOTH",
"1218 602 OFFCURVE",
"1330 463 OFFCURVE",
"1330 357 QCURVE SMOOTH",
"1330 279 LINE SMOOTH",
"1330 178 OFFCURVE",
"1218 34 OFFCURVE",
"1115 34 QCURVE SMOOTH"
);
},
{
closed = 1;
nodes = (
"439 800 OFFCURVE",
"560 880 OFFCURVE",
"629 1015 OFFCURVE",
"629 1099 QCURVE SMOOTH",
"629 1176 LINE SMOOTH",
"629 1260 OFFCURVE",
"560 1397 OFFCURVE",
"437 1477 OFFCURVE",
"358 1477 QCURVE SMOOTH",
"278 1477 OFFCURVE",
"155 1397 OFFCURVE",
"86 1260 OFFCURVE",
"86 1176 QCURVE SMOOTH",
"86 1099 LINE SMOOTH",
"86 1015 OFFCURVE",
"155 880 OFFCURVE",
"279 800 OFFCURVE",
"360 800 QCURVE SMOOTH"
);
},
{
closed = 1;
nodes = (
"254 855 OFFCURVE",
"141 999 OFFCURVE",
"141 1099 QCURVE SMOOTH",
"141 1176 LINE SMOOTH",
"141 1275 OFFCURVE",
"255 1422 OFFCURVE",
"358 1422 QCURVE SMOOTH",
"461 1422 OFFCURVE",
"574 1276 OFFCURVE",
"574 1176 QCURVE SMOOTH",
"574 1099 LINE SMOOTH",
"574 999 OFFCURVE",
"462 855 OFFCURVE",
"360 855 QCURVE SMOOTH"
);
}
);
width = 1460;
}
);
note = percent;
unicode = 0025;
},
{
glyphname = ampersand;
lastChange = "2024-07-29 04:17:02 +0000";
layers = (
{
layerId = "1AFB1E35-9546-41E1-B92B-6969383A0DDD";
paths = (
{
closed = 1;
nodes = (
"606 -21 OFFCURVE",
"778 29 OFFCURVE",
"866 81 QCURVE",
"938 0 LINE",
"1321 0 LINE",
"1323 5 LINE",
"1101 261 LINE",
"1168 352 OFFCURVE",
"1230 589 OFFCURVE",
"1230 731 QCURVE",
"986 731 LINE",
"986 659 OFFCURVE",
"949 531 OFFCURVE",
"917 474 QCURVE",
"681 742 LINE",
"764 799 LINE SMOOTH",
"838 851 OFFCURVE",
"931 1025 OFFCURVE",
"931 1123 QCURVE SMOOTH",
"931 1222 OFFCURVE",
"840 1382 OFFCURVE",
"678 1477 OFFCURVE",
"572 1477 QCURVE SMOOTH",
"448 1477 OFFCURVE",
"260 1376 OFFCURVE",
"156 1197 OFFCURVE",
"156 1080 QCURVE SMOOTH",
"156 1003 OFFCURVE",
"217 853 OFFCURVE",
"279 765 QCURVE",
"272 760 OFFCURVE",
"258 749 OFFCURVE",
"251 744 QCURVE SMOOTH",
"137 659 OFFCURVE",
"27 501 OFFCURVE",
"27 392 QCURVE SMOOTH",
"27 269 OFFCURVE",
"144 83 OFFCURVE",
"358 -21 OFFCURVE",
"504 -21 QCURVE SMOOTH"
);
},
{
closed = 1;
nodes = (
"468 246 OFFCURVE",
"378 343 OFFCURVE",
"378 416 QCURVE SMOOTH",
"378 460 OFFCURVE",
"402 530 OFFCURVE",
"427 566 QCURVE",
"433 569 LINE",
"696 275 LINE",
"655 260 OFFCURVE",
"570 246 OFFCURVE",
"529 246 QCURVE SMOOTH"
);
},
{
closed = 1;
nodes = (
"492 970 OFFCURVE",
"456 1046 OFFCURVE",
"456 1083 QCURVE SMOOTH",
"456 1138 OFFCURVE",
"515 1209 OFFCURVE",
"570 1209 QCURVE SMOOTH",
"617 1209 OFFCURVE",
"676 1141 OFFCURVE",
"676 1097 QCURVE SMOOTH",
"676 1058 OFFCURVE",
"638 990 OFFCURVE",
"582 955 QCURVE SMOOTH",
"529 923 LINE"
);
}
);
width = 1289;
},
{
layerId = "759DCBF5-126F-43AE-ABB8-3EC70824EECD";
paths = (
{
closed = 1;
nodes = (
"652 -21 OFFCURVE",
"846 42 OFFCURVE",
"926 102 QCURVE",
"1011 0 LINE",
"1240 0 LINE",
"1242 5 LINE",
"1057 229 LINE",
"1131 318 OFFCURVE",
"1209 542 OFFCURVE",
"1209 673 QCURVE",
"1033 673 LINE",
"1033 585 OFFCURVE",
"987 427 OFFCURVE",
"946 362 QCURVE",
"606 771 LINE",
"715 851 LINE SMOOTH",
"818 926 OFFCURVE",
"923 1069 OFFCURVE",
"923 1167 QCURVE SMOOTH",
"923 1253 OFFCURVE",
"833 1393 OFFCURVE",
"673 1477 OFFCURVE",
"567 1477 QCURVE SMOOTH",
"453 1477 OFFCURVE",
"289 1395 OFFCURVE",
"201 1238 OFFCURVE",
"201 1125 QCURVE SMOOTH",
"201 1043 OFFCURVE",
"277 888 OFFCURVE",
"355 789 QCURVE",
"353 788 OFFCURVE",
"348 785 OFFCURVE",
"345 783 QCURVE SMOOTH",
"210 692 OFFCURVE",
"74 512 OFFCURVE",
"74 392 QCURVE SMOOTH",
"74 270 OFFCURVE",
"191 84 OFFCURVE",
"404 -21 OFFCURVE",
"548 -21 QCURVE SMOOTH"
);
},
{
closed = 1;
nodes = (
"413 133 OFFCURVE",
"271 279 OFFCURVE",
"271 392 QCURVE SMOOTH",
"271 442 OFFCURVE",
"330 566 OFFCURVE",
"421 634 QCURVE SMOOTH",
"461 663 LINE",
"822 228 LINE",
"760 182 OFFCURVE",
"620 133 OFFCURVE",
"548 133 QCURVE SMOOTH"
);
},
{
closed = 1;
nodes = (
"452 959 OFFCURVE",
"398 1074 OFFCURVE",
"398 1127 QCURVE SMOOTH",
"398 1209 OFFCURVE",
"486 1322 OFFCURVE",
"567 1322 QCURVE SMOOTH",
"645 1322 OFFCURVE",
"742 1228 OFFCURVE",
"742 1167 QCURVE SMOOTH",
"742 1113 OFFCURVE",
"701 1024 OFFCURVE",
"644 986 QCURVE SMOOTH",
"506 891 LINE"
);
}
);
userData = {
assembly = "MPPEM[ ]	/* MeasurePixelPerEm */
PUSHB[ ]	/* 1 value pushed */
22 
LT[ ]	/* LessThan */
IF[ ]	/* If */
NPUSHB[ ]	/* 18 values pushed */
25 7 2 2 5 44 43 33 26 4 4 2 37 1 0 4 3 76 
ELSE[ ]	/* Else */
NPUSHB[ ]	/* 18 values pushed */
25 7 2 2 5 44 43 33 26 4 4 2 37 1 3 4 3 76 
EIF[ ]	/* EndIf */
MPPEM[ ]	/* MeasurePixelPerEm */
PUSHB[ ]	/* 1 value pushed */
22 
LT[ ]	/* LessThan */
IF[ ]	/* If */
NPUSHB[ ]	/* 36 values pushed */
0 5 5 1 97 0 1 1 37 77 0 2 2 0 97 3 6 2 0 0 38 77 7 1 4 4 0 97 3 6 2 0 0 38 0 78 
ELSE[ ]	/* Else */
NPUSHB[ ]	/* 33 values pushed */
0 5 5 1 97 0 1 1 37 77 0 2 2 3 95 0 3 3 32 77 7 1 4 4 0 97 6 1 0 0 38 0 78 
EIF[ ]	/* EndIf */
NPUSHB[ ]	/* 23 values pushed */
41 40 1 0 59 57 40 50 41 50 36 34 30 29 18 16 0 39 1 39 8 8 22 
CALL[ ]	/* CallFunction */";
};
width = 1289;
},
{
layerId = "CD48D813-7107-4EBE-8BC7-C661170EDB17";
paths = (
{
closed = 1;
nodes = (
"696 -21 OFFCURVE",
"897 98 OFFCURVE",
"973 177 QCURVE",
"1130 0 LINE",
"1190 0 LINE",
"1192 5 LINE",
"1007 216 LINE",
"1070 302 OFFCURVE",
"1140 507 OFFCURVE",
"1140 632 QCURVE",
"1085 632 LINE",
"1085 523 OFFCURVE",
"1024 333 OFFCURVE",
"970 257 QCURVE",
"495 797 LINE",
"697 958 LINE SMOOTH",
"767 1014 OFFCURVE",
"844 1131 OFFCURVE",
"844 1215 QCURVE SMOOTH",
"844 1294 OFFCURVE",
"779 1412 OFFCURVE",
"656 1477 OFFCURVE",
"568 1477 QCURVE SMOOTH",
"473 1477 OFFCURVE",
"337 1405 OFFCURVE",
"263 1266 OFFCURVE",
"263 1167 QCURVE SMOOTH",
"263 1076 OFFCURVE",
"341 906 OFFCURVE",
"423 803 QCURVE",
"410 793 OFFCURVE",
"385 773 OFFCURVE",
"372 762 QCURVE SMOOTH",
"251 660 OFFCURVE",
"116 466 OFFCURVE",
"116 352 QCURVE SMOOTH",
"116 237 OFFCURVE",
"221 70 OFFCURVE",
"415 -21 OFFCURVE",
"550 -21 QCURVE SMOOTH"
);
},
{
closed = 1;
nodes = (
"366 33 OFFCURVE",
"170 218 OFFCURVE",
"170 352 QCURVE SMOOTH",
"170 430 OFFCURVE",
"266 605 OFFCURVE",
"403 723 QCURVE",
"455 764 LINE",
"938 216 LINE",
"862 128 OFFCURVE",
"660 33 OFFCURVE",
"550 33 QCURVE SMOOTH"
);
},
{
closed = 1;
nodes = (
"388 922 OFFCURVE",
"318 1090 OFFCURVE",
"318 1169 QCURVE SMOOTH",
"318 1278 OFFCURVE",
"448 1423 OFFCURVE",
"568 1423 QCURVE SMOOTH",
"675 1423 OFFCURVE",
"788 1309 OFFCURVE",
"788 1215 QCURVE SMOOTH",
"788 1157 OFFCURVE",
"732 1050 OFFCURVE",
"672 1000 QCURVE SMOOTH",
"463 834 LINE"
);
}
);
width = 1289;
}
);
note = ampersand;
unicode = 0026;
},
{
glyphname = quotesingle;
lastChange = "2024-07-29 04:17:40 +0000";
layers = (
{
layerId = "1AFB1E35-9546-41E1-B92B-6969383A0DDD";
paths = (
{
closed = 1;
nodes = (
"271 1017 LINE",
"375 1285 LINE",
"375 1560 LINE",
"122 1560 LINE",
"122 1017 LINE"
);
}
);
width = 460;
},
{
layerId = "759DCBF5-126F-43AE-ABB8-3EC70824EECD";
paths = (
{
closed = 1;
nodes = (
"263 1055 LINE",
"324 1337 LINE",
"324 1560 LINE",
"166 1560 LINE",
"166 1055 LINE"
);
}
);
userData = {
assembly = "NPUSHB[ ]	/* 22 values pushed */
0 1 0 1 1 76 0 0 0 1 95 0 1 1 33 0 78 17 17 2 8 24 
CALL[ ]	/* CallFunction */";
};
width = 460;
},
{
layerId = "CD48D813-7107-4EBE-8BC7-C661170EDB17";
paths = (
{
closed = 1;
nodes = (
"246 1122 LINE",
"266 1391 LINE",
"266 1560 LINE",
"211 1560 LINE",
"196 1122 LINE"
);
}
);
width = 460;
}
);
note = quotesingle;
unicode = 0027;
},
{
glyphname = parenleft;
lastChange = "2024-07-29 04:18:42 +0000";
layers = (
{
layerId = "1AFB1E35-9546-41E1-B92B-6969383A0DDD";
paths = (
{
closed = 1;
nodes = (
"577 -442 LINE",
"640 -277 LINE",
"577 -231 OFFCURVE",
"471 -83 OFFCURVE",
"393 125 OFFCURVE",
"350 394 OFFCURVE",
"350 561 QCURVE SMOOTH",
"350 595 LINE SMOOTH",
"350 761 OFFCURVE",
"393 1030 OFFCURVE",
"471 1238 OFFCURVE",
"577 1387 OFFCURVE",
"640 1433 QCURVE",
"577 1598 LINE",
"571 1597 LINE",
"470 1560 OFFCURVE",
"290 1385 OFFCURVE",
"152 1123 OFFCURVE",
"73 788 OFFCURVE",
"73 593 QCURVE SMOOTH",
"73 563 LINE SMOOTH",
"73 367 OFFCURVE",
"152 32 OFFCURVE",
"290 -230 OFFCURVE",
"470 -405 OFFCURVE",
"571 -442 QCURVE"
);
}
);
width = 662;
},
{
layerId = "759DCBF5-126F-43AE-ABB8-3EC70824EECD";
paths = (
{
closed = 1;
nodes = (
"613 -463 LINE",
"650 -355 LINE",
"581 -297 OFFCURVE",
"458 -121 OFFCURVE",
"365 114 OFFCURVE",
"311 406 OFFCURVE",
"311 580 QCURVE SMOOTH",
"311 593 LINE SMOOTH",
"311 767 OFFCURVE",
"365 1059 OFFCURVE",
"459 1293 OFFCURVE",
"581 1465 OFFCURVE",
"650 1519 QCURVE",
"613 1635 LINE",
"607 1636 LINE",
"520 1590 OFFCURVE",
"345 1400 OFFCURVE",
"201 1128 OFFCURVE",
"114 788 OFFCURVE",
"114 591 QCURVE SMOOTH",
"114 582 LINE SMOOTH",
"114 384 OFFCURVE",
"201 44 OFFCURVE",
"345 -227 OFFCURVE",
"520 -416 OFFCURVE",
"607 -463 QCURVE"
);
}
);
userData = {
assembly = "PUSHB[ ]	/* 4 values pushed */
12 0 1 50 
CALL[ ]	/* CallFunction */";
};
width = 662;
},
{
layerId = "CD48D813-7107-4EBE-8BC7-C661170EDB17";
paths = (
{
closed = 1;
nodes = (
"551 -463 LINE",
"567 -427 LINE",
"491 -376 OFFCURVE",
"354 -175 OFFCURVE",
"248 96 OFFCURVE",
"188 405 OFFCURVE",
"188 564 QCURVE SMOOTH",
"188 590 LINE SMOOTH",
"188 748 OFFCURVE",
"248 1057 OFFCURVE",
"354 1328 OFFCURVE",
"491 1529 OFFCURVE",
"567 1580 QCURVE",
"551 1616 LINE",
"545 1616 LINE",
"460 1565 OFFCURVE",
"311 1358 OFFCURVE",
"198 1079 OFFCURVE",
"134 755 OFFCURVE",
"134 586 QCURVE SMOOTH",
"134 566 LINE SMOOTH",
"134 389 OFFCURVE",
"197 64 OFFCURVE",
"310 -209 OFFCURVE",
"459 -410 OFFCURVE",
"545 -463 QCURVE"
);
}
);
width = 662;
}
);
note = parenleft;
unicode = 0028;
},
{
glyphname = parenright;
lastChange = "2024-07-29 04:19:55 +0000";
layers = (
{
layerId = "1AFB1E35-9546-41E1-B92B-6969383A0DDD";
paths = (
{
closed = 1;
nodes = (
"103 -442 LINE",
"206 -406 OFFCURVE",
"393 -225 OFFCURVE",
"539 42 OFFCURVE",
"623 375 OFFCURVE",
"623 563 QCURVE SMOOTH",
"623 593 LINE SMOOTH",
"623 780 OFFCURVE",
"539 1112 OFFCURVE",
"393 1380 OFFCURVE",
"206 1561 OFFCURVE",
"103 1597 QCURVE",
"97 1597 LINE",
"32 1434 LINE",
"95 1388 OFFCURVE",
"201 1238 OFFCURVE",
"279 1030 OFFCURVE",
"322 761 OFFCURVE",
"322 595 QCURVE SMOOTH",
"322 561 LINE SMOOTH",
"322 395 OFFCURVE",
"279 126 OFFCURVE",
"200 -81 OFFCURVE",
"95 -230 OFFCURVE",
"32 -277 QCURVE",
"97 -442 LINE"
);
}
);
width = 662;
},
{
layerId = "759DCBF5-126F-43AE-ABB8-3EC70824EECD";
paths = (
{
closed = 1;
nodes = (
"61 -463 LINE",
"148 -416 OFFCURVE",
"322 -227 OFFCURVE",
"467 44 OFFCURVE",
"554 384 OFFCURVE",
"554 582 QCURVE SMOOTH",
"554 591 LINE SMOOTH",
"554 788 OFFCURVE",
"467 1128 OFFCURVE",
"322 1400 OFFCURVE",
"148 1590 OFFCURVE",
"61 1636 QCURVE",
"55 1636 LINE",
"18 1528 LINE",
"83 1473 OFFCURVE",
"204 1296 OFFCURVE",
"300 1058 OFFCURVE",
"357 764 OFFCURVE",
"357 593 QCURVE SMOOTH",
"357 580 LINE SMOOTH",
"357 406 OFFCURVE",
"302 109 OFFCURVE",
"208 -128 OFFCURVE",
"86 -302 OFFCURVE",
"18 -355 QCURVE",
"55 -463 LINE"
);
}
);
userData = {
assembly = "PUSHB[ ]	/* 4 values pushed */
14 0 1 50 
CALL[ ]	/* CallFunction */";
};
width = 662;
},
{
layerId = "CD48D813-7107-4EBE-8BC7-C661170EDB17";
paths = (
{
closed = 1;
nodes = (
"103 -463 LINE",
"189 -410 OFFCURVE",
"338 -209 OFFCURVE",
"450 64 OFFCURVE",
"514 389 OFFCURVE",
"514 566 QCURVE SMOOTH",
"514 586 LINE SMOOTH",
"514 755 OFFCURVE",
"450 1079 OFFCURVE",
"336 1358 OFFCURVE",
"187 1565 OFFCURVE",
"103 1616 QCURVE",
"97 1616 LINE",
"81 1580 LINE",
"157 1529 OFFCURVE",
"294 1328 OFFCURVE",
"399 1057 OFFCURVE",
"460 748 OFFCURVE",
"460 590 QCURVE SMOOTH",
"460 564 LINE SMOOTH",
"460 405 OFFCURVE",
"399 96 OFFCURVE",
"294 -175 OFFCURVE",
"157 -376 OFFCURVE",
"81 -427 QCURVE",
"97 -463 LINE"
);
}
);
width = 662;
}
);
note = parenright;
unicode = 0029;
},
{
glyphname = asterisk;
lastChange = "2024-07-29 04:20:47 +0000";
layers = (
{
layerId = "1AFB1E35-9546-41E1-B92B-6969383A0DDD";
paths = (
{
closed = 1;
nodes = (
"806 680 LINE",
"602 942 LINE",
"910 1031 LINE",
"849 1226 LINE",
"559 1100 LINE",
"586 1456 LINE",
"381 1456 LINE",
"404 1106 LINE",
"106 1236 LINE",
"44 1045 LINE",
"350 956 LINE",
"136 685 LINE",
"300 571 LINE",
"471 853 LINE",
"642 562 LINE"
);
}
);
width = 958;
},
{
layerId = "759DCBF5-126F-43AE-ABB8-3EC70824EECD";
paths = (
{
closed = 1;
nodes = (
"784 703 LINE",
"591 973 LINE",
"893 1062 LINE",
"845 1218 LINE",
"552 1108 LINE",
"562 1456 LINE",
"401 1456 LINE",
"411 1114 LINE",
"115 1225 LINE",
"66 1071 LINE",
"362 982 LINE",
"164 708 LINE",
"296 615 LINE",
"472 894 LINE",
"653 607 LINE"
);
}
);
userData = {
assembly = "NPUSHB[ ]	/* 25 values pushed */
14 13 12 9 8 7 6 5 4 3 2 1 12 0 73 0 0 0 31 0 78 26 1 8 23 
CALL[ ]	/* CallFunction */";
};
width = 958;
},
{
layerId = "CD48D813-7107-4EBE-8BC7-C661170EDB17";
paths = (
{
closed = 1;
nodes = (
"477 986 LINE",
"719 664 LINE",
"766 697 LINE",
"517 1014 LINE",
"877 1151 LINE",
"857 1204 LINE",
"505 1061 LINE",
"512 1456 LINE",
"456 1456 LINE",
"455 1062 LINE",
"93 1195 LINE",
"75 1141 LINE",
"438 1017 LINE",
"204 693 LINE",
"249 661 LINE"
);
}
);
width = 958;
}
);
note = asterisk;
unicode = 002A;
},
{
glyphname = plus;
lastChange = "2024-07-29 04:21:18 +0000";
layers = (
{
layerId = "1AFB1E35-9546-41E1-B92B-6969383A0DDD";
paths = (
{
closed = 1;
nodes = (
"749 146 LINE",
"749 532 LINE",
"1082 532 LINE",
"1082 830 LINE",
"749 830 LINE",
"749 1206 LINE",
"422 1206 LINE",
"422 830 LINE",
"84 830 LINE",
"84 532 LINE",
"422 532 LINE",
"422 146 LINE"
);
}
);
width = 1145;
},
{
layerId = "759DCBF5-126F-43AE-ABB8-3EC70824EECD";
paths = (
{
closed = 1;
nodes = (
"671 146 LINE",
"671 605 LINE",
"1071 605 LINE",
"1071 783 LINE",
"671 783 LINE",
"671 1206 LINE",
"474 1206 LINE",
"474 783 LINE",
"73 783 LINE",
"73 605 LINE",
"474 605 LINE",
"474 146 LINE"
);
}
);
userData = {
assembly = "NPUSHB[ ]	/* 41 values pushed */
0 3 2 0 3 87 4 1 2 6 5 2 1 0 2 1 103 0 3 3 0 95 0 0 3 0 79 0 0 0 11 0 11 17 17 17 17 17 7 8 27 
CALL[ ]	/* CallFunction */";
};
width = 1145;
},
{
layerId = "CD48D813-7107-4EBE-8BC7-C661170EDB17";
paths = (
{
closed = 1;
nodes = (
"590 146 LINE",
"590 649 LINE",
"1071 649 LINE",
"1071 702 LINE",
"590 702 LINE",
"590 1206 LINE",
"535 1206 LINE",
"535 702 LINE",
"73 702 LINE",
"73 649 LINE",
"535 649 LINE",
"535 146 LINE"
);
}
);
width = 1145;
}
);
note = plus;
unicode = 002B;
},
{
glyphname = comma;
lastChange = "2024-07-29 04:22:10 +0000";
layers = (
{
layerId = "1AFB1E35-9546-41E1-B92B-6969383A0DDD";
paths = (
{
closed = 1;
nodes = (
"250 -323 OFFCURVE",
"376 -111 OFFCURVE",
"376 19 QCURVE SMOOTH",
"377 257 LINE",
"75 257 LINE",
"75 -2 LINE SMOOTH",
"75 -99 OFFCURVE",
"37 -248 OFFCURVE",
"3 -316 QCURVE",
"167 -397 LINE"
);
}
);
width = 404;
},
{
layerId = "759DCBF5-126F-43AE-ABB8-3EC70824EECD";
paths = (
{
closed = 1;
nodes = (
"217 -240 OFFCURVE",
"315 -26 OFFCURVE",
"315 72 QCURVE SMOOTH",
"315 221 LINE",
"118 221 LINE",
"118 69 LINE SMOOTH",
"118 -15 OFFCURVE",
"70 -165 OFFCURVE",
"23 -237 QCURVE",
"134 -311 LINE"
);
}
);
userData = {
assembly = "NPUSHB[ ]	/* 12 values pushed */
1 1 0 73 0 0 0 118 21 1 8 23 
CALL[ ]	/* CallFunction */";
};
width = 404;
},
{
layerId = "CD48D813-7107-4EBE-8BC7-C661170EDB17";
paths = (
{
closed = 1;
nodes = (
"179 -201 OFFCURVE",
"235 -61 OFFCURVE",
"235 27 QCURVE SMOOTH",
"235 159 LINE",
"181 159 LINE",
"181 25 LINE SMOOTH",
"181 -49 OFFCURVE",
"138 -162 OFFCURVE",
"92 -223 QCURVE",
"129 -255 LINE"
);
}
);
width = 404;
}
);
note = comma;
unicode = 002C;
},
{
glyphname = hyphen;
lastChange = "2024-07-29 04:22:50 +0000";
layers = (
{
layerId = "1AFB1E35-9546-41E1-B92B-6969383A0DDD";
paths = (
{
closed = 1;
nodes = (
"705 493 LINE",
"705 762 LINE",
"95 762 LINE",
"95 493 LINE"
);
}
);
width = 797;
},
{
layerId = "759DCBF5-126F-43AE-ABB8-3EC70824EECD";
paths = (
{
closed = 1;
nodes = (
"643 538 LINE",
"643 692 LINE",
"154 692 LINE",
"154 538 LINE"
);
}
);
userData = {
assembly = "NPUSHB[ ]	/* 28 values pushed */
2 1 1 0 0 1 87 2 1 1 1 0 95 0 0 1 0 79 0 0 0 3 0 3 17 3 8 23 
CALL[ ]	/* CallFunction */";
};
width = 797;
},
{
layerId = "CD48D813-7107-4EBE-8BC7-C661170EDB17";
paths = (
{
closed = 1;
nodes = (
"629 599 LINE",
"629 653 LINE",
"159 653 LINE",
"159 599 LINE"
);
}
);
width = 797;
}
);
note = hyphen;
unicode = 002D;
},
{
glyphname = period;
lastChange = "2024-07-29 04:25:56 +0000";
layers = (
{
layerId = "1AFB1E35-9546-41E1-B92B-6969383A0DDD";
paths = (
{
closed = 1;
nodes = (
"427 0 LINE",
"427 290 LINE",
"78 290 LINE",
"78 0 LINE"
);
}
);
width = 493;
},
{
layerId = "759DCBF5-126F-43AE-ABB8-3EC70824EECD";
paths = (
{
closed = 1;
nodes = (
"342 0 LINE",
"342 202 LINE",
"145 202 LINE",
"145 0 LINE"
);
}
);
userData = {
assembly = "NPUSHB[ ]	/* 22 values pushed */
2 1 1 1 0 95 0 0 0 32 0 78 0 0 0 3 0 3 17 3 8 23 
CALL[ ]	/* CallFunction */";
};
width = 493;
},
{
layerId = "CD48D813-7107-4EBE-8BC7-C661170EDB17";
paths = (
{
closed = 1;
nodes = (
"291 0 LINE",
"291 130 LINE",
"205 130 LINE",
"205 0 LINE"
);
}
);
width = 493;
}
);
note = period;
unicode = 002E;
},
{
glyphname = slash;
lastChange = "2024-07-29 04:27:07 +0000";
layers = (
{
layerId = "1AFB1E35-9546-41E1-B92B-6969383A0DDD";
paths = (
{
closed = 1;
nodes = (
"275 -125 LINE",
"872 1456 LINE",
"539 1456 LINE",
"-57 -125 LINE"
);
}
);
width = 824;
},
{
layerId = "759DCBF5-126F-43AE-ABB8-3EC70824EECD";
paths = (
{
closed = 1;
nodes = (
"187 -125 LINE",
"794 1456 LINE",
"628 1456 LINE",
"20 -125 LINE"
);
}
);
userData = {
assembly = "NPUSHB[ ]	/* 22 values pushed */
0 0 1 0 134 2 1 1 1 31 1 78 0 0 0 3 0 3 17 3 8 23 
CALL[ ]	/* CallFunction */";
};
width = 824;
},
{
layerId = "CD48D813-7107-4EBE-8BC7-C661170EDB17";
paths = (
{
closed = 1;
nodes = (
"133 -125 LINE",
"741 1456 LINE",
"682 1456 LINE",
"74 -125 LINE"
);
}
);
width = 824;
}
);
note = slash;
unicode = 002F;
},
{
glyphname = zero;
lastChange = "2024-07-29 04:28:22 +0000";
layers = (
{
layerId = "1AFB1E35-9546-41E1-B92B-6969383A0DDD";
paths = (
{
closed = 1;
nodes = (
"820 -21 OFFCURVE",
"1095 279 OFFCURVE",
"1095 574 QCURVE SMOOTH",
"1095 881 LINE SMOOTH",
"1095 1175 OFFCURVE",
"818 1477 OFFCURVE",
"585 1477 QCURVE SMOOTH",
"350 1477 OFFCURVE",
"74 1175 OFFCURVE",
"74 881 QCURVE SMOOTH",
"74 574 LINE SMOOTH",
"74 279 OFFCURVE",
"350 -21 OFFCURVE",
"587 -21 QCURVE SMOOTH"
);
},
{
closed = 1;
nodes = (
"505 246 OFFCURVE",
"423 386 OFFCURVE",
"423 554 QCURVE SMOOTH",
"423 903 LINE SMOOTH",
"423 1068 OFFCURVE",
"505 1209 OFFCURVE",
"585 1209 QCURVE SMOOTH",
"662 1209 OFFCURVE",
"746 1067 OFFCURVE",
"746 903 QCURVE SMOOTH",
"746 554 LINE SMOOTH",
"746 387 OFFCURVE",
"664 246 OFFCURVE",
"587 246 QCURVE SMOOTH"
);
}
);
width = 1168;
},
{
layerId = "759DCBF5-126F-43AE-ABB8-3EC70824EECD";
paths = (
{
closed = 1;
nodes = (
"800 -21 OFFCURVE",
"1048 276 OFFCURVE",
"1048 555 QCURVE SMOOTH",
"1048 900 LINE SMOOTH",
"1048 1178 OFFCURVE",
"798 1477 OFFCURVE",
"583 1477 QCURVE SMOOTH",
"369 1477 OFFCURVE",
"121 1178 OFFCURVE",
"121 900 QCURVE SMOOTH",
"121 555 LINE SMOOTH",
"121 277 OFFCURVE",
"371 -21 OFFCURVE",
"585 -21 QCURVE SMOOTH"
);
},
{
closed = 1;
nodes = (
"456 133 OFFCURVE",
"318 326 OFFCURVE",
"318 515 QCURVE SMOOTH",
"318 942 LINE SMOOTH",
"318 1131 OFFCURVE",
"454 1322 OFFCURVE",
"583 1322 QCURVE SMOOTH",
"714 1322 OFFCURVE",
"851 1131 OFFCURVE",
"851 942 QCURVE SMOOTH",
"851 515 LINE SMOOTH",
"851 325 OFFCURVE",
"716 133 OFFCURVE",
"585 133 QCURVE SMOOTH"
);
}
);
userData = {
assembly = "NPUSHB[ ]	/* 42 values pushed */
0 3 3 1 97 0 1 1 37 77 5 1 2 2 0 97 4 1 0 0 38 0 78 15 14 1 0 22 20 14 27 15 27 8 6 0 13 1 13 6 8 22 
CALL[ ]	/* CallFunction */";
};
width = 1168;
},
{
layerId = "CD48D813-7107-4EBE-8BC7-C661170EDB17";
paths = (
{
closed = 1;
nodes = (
"796 -21 OFFCURVE",
"1027 289 OFFCURVE",
"1027 574 QCURVE SMOOTH",
"1027 882 LINE SMOOTH",
"1027 1166 OFFCURVE",
"794 1477 OFFCURVE",
"583 1477 QCURVE SMOOTH",
"372 1477 OFFCURVE",
"140 1166 OFFCURVE",
"140 882 QCURVE SMOOTH",
"140 574 LINE SMOOTH",
"140 290 OFFCURVE",
"374 -21 OFFCURVE",
"585 -21 QCURVE SMOOTH"
);
},
{
closed = 1;
nodes = (
"395 33 OFFCURVE",
"194 324 OFFCURVE",
"194 576 QCURVE SMOOTH",
"194 882 LINE SMOOTH",
"194 1136 OFFCURVE",
"393 1423 OFFCURVE",
"583 1423 QCURVE SMOOTH",
"773 1423 OFFCURVE",
"973 1136 OFFCURVE",
"973 882 QCURVE SMOOTH",
"973 576 LINE SMOOTH",
"973 323 OFFCURVE",
"774 33 OFFCURVE",
"585 33 QCURVE SMOOTH"
);
}
);
width = 1168;
}
);
note = zero;
unicode = 0030;
},
{
glyphname = one;
lastChange = "2024-07-29 04:29:39 +0000";
layers = (
{
layerId = "1AFB1E35-9546-41E1-B92B-6969383A0DDD";
paths = (
{
closed = 1;
nodes = (
"816 0 LINE",
"816 205 LINE",
"582 237 LINE",
"582 1456 LINE",
"28 1354 LINE",
"28 1160 LINE",
"264 1157 LINE",
"264 237 LINE",
"30 205 LINE",
"30 0 LINE"
);
}
);
width = 844;
},
{
layerId = "759DCBF5-126F-43AE-ABB8-3EC70824EECD";
paths = (
{
closed = 1;
nodes = (
"767 0 LINE",
"767 126 LINE",
"543 154 LINE",
"543 1456 LINE",
"117 1364 LINE",
"117 1241 LINE",
"346 1245 LINE",
"346 154 LINE",
"121 126 LINE",
"121 0 LINE"
);
}
);
userData = {
assembly = "NPUSHB[ ]	/* 30 values pushed */
9 4 3 0 4 0 1 1 76 8 7 2 1 74 0 1 0 1 133 0 0 0 32 0 78 19 17 2 8 24 
CALL[ ]	/* CallFunction */";
};
width = 844;
},
{
layerId = "CD48D813-7107-4EBE-8BC7-C661170EDB17";
paths = (
{
closed = 1;
nodes = (
"764 0 LINE",
"764 54 LINE",
"471 54 LINE",
"471 1464 LINE",
"79 1380 LINE",
"79 1330 LINE",
"417 1406 LINE",
"417 54 LINE",
"124 54 LINE",
"124 0 LINE"
);
}
);
width = 844;
}
);
note = one;
unicode = 0031;
},
{
glyphname = two;
lastChange = "2024-07-29 04:30:39 +0000";
layers = (
{
layerId = "1AFB1E35-9546-41E1-B92B-6969383A0DDD";
paths = (
{
closed = 1;
nodes = (
"1089 0 LINE",
"1089 387 LINE",
"826 387 LINE",
"811 266 LINE",
"522 266 LINE",
"520 271 LINE",
"740 504 LINE SMOOTH",
"856 626 OFFCURVE",
"995 798 OFFCURVE",
"1056 949 OFFCURVE",
"1056 1039 QCURVE SMOOTH",
"1056 1171 OFFCURVE",
"935 1368 OFFCURVE",
"710 1477 OFFCURVE",
"553 1477 QCURVE SMOOTH",
"396 1477 OFFCURVE",
"164 1349 OFFCURVE",
"41 1131 OFFCURVE",
"44 996 QCURVE",
"46 990 LINE",
"389 990 LINE",
"389 1089 OFFCURVE",
"469 1206 OFFCURVE",
"552 1206 QCURVE SMOOTH",
"628 1206 OFFCURVE",
"704 1107 OFFCURVE",
"704 1036 QCURVE SMOOTH",
"704 993 OFFCURVE",
"671 901 OFFCURVE",
"597 791 OFFCURVE",
"534 719 QCURVE",
"65 225 LINE",
"65 0 LINE"
);
}
);
width = 1131;
},
{
layerId = "759DCBF5-126F-43AE-ABB8-3EC70824EECD";
paths = (
{
closed = 1;
nodes = (
"1040 0 LINE",
"1040 321 LINE",
"873 321 LINE",
"857 154 LINE",
"340 154 LINE",
"338 159 LINE",
"721 576 LINE SMOOTH",
"806 668 OFFCURVE",
"927 834 OFFCURVE",
"990 992 OFFCURVE",
"990 1072 QCURVE SMOOTH",
"990 1190 OFFCURVE",
"882 1372 OFFCURVE",
"683 1477 OFFCURVE",
"545 1477 QCURVE SMOOTH",
"398 1477 OFFCURVE",
"185 1360 OFFCURVE",
"73 1159 OFFCURVE",
"76 1033 QCURVE",
"78 1027 LINE",
"267 1027 LINE",
"267 1168 OFFCURVE",
"410 1322 OFFCURVE",
"538 1322 QCURVE SMOOTH",
"661 1322 OFFCURVE",
"793 1173 OFFCURVE",
"793 1064 QCURVE SMOOTH",
"793 1005 OFFCURVE",
"755 895 OFFCURVE",
"659 760 OFFCURVE",
"574 665 QCURVE SMOOTH",
"97 135 LINE",
"97 0 LINE"
);
}
);
userData = {
assembly = "PUSHB[ ]	/* 6 values pushed */
2 1 0 4 1 76 
MPPEM[ ]	/* MeasurePixelPerEm */
PUSHB[ ]	/* 1 value pushed */
16 
LT[ ]	/* LessThan */
IF[ ]	/* If */
NPUSHB[ ]	/* 35 values pushed */
0 2 1 5 1 2 5 128 0 5 4 4 5 112 0 1 1 3 97 0 3 3 37 77 0 4 4 0 96 0 0 0 32 0 78 
ELSE[ ]	/* Else */
NPUSHB[ ]	/* 36 values pushed */
0 2 1 5 1 2 5 128 0 5 4 1 5 4 126 0 1 1 3 97 0 3 3 37 77 0 4 4 0 96 0 0 0 32 0 78 
EIF[ ]	/* EndIf */
NPUSHB[ ]	/* 9 values pushed */
17 40 36 18 40 16 6 8 28 
CALL[ ]	/* CallFunction */";
};
width = 1131;
},
{
layerId = "CD48D813-7107-4EBE-8BC7-C661170EDB17";
paths = (
{
closed = 1;
nodes = (
"1016 0 LINE",
"1016 293 LINE",
"962 293 LINE",
"962 54 LINE",
"223 54 LINE",
"221 59 LINE",
"638 546 LINE SMOOTH",
"733 657 OFFCURVE",
"867 842 OFFCURVE",
"938 1005 OFFCURVE",
"938 1086 QCURVE SMOOTH",
"938 1210 OFFCURVE",
"839 1385 OFFCURVE",
"659 1477 OFFCURVE",
"538 1477 QCURVE SMOOTH",
"408 1477 OFFCURVE",
"215 1363 OFFCURVE",
"112 1170 OFFCURVE",
"115 1052 QCURVE",
"117 1046 LINE",
"163 1046 LINE",
"163 1213 OFFCURVE",
"359 1423 OFFCURVE",
"538 1423 QCURVE SMOOTH",
"707 1423 OFFCURVE",
"883 1245 OFFCURVE",
"883 1086 QCURVE SMOOTH",
"883 1021 OFFCURVE",
"828 878 OFFCURVE",
"713 709 OFFCURVE",
"622 604 QCURVE SMOOTH",
"145 54 LINE",
"145 0 LINE"
);
}
);
width = 1131;
}
);
note = two;
unicode = 0032;
},
{
glyphname = three;
lastChange = "2024-07-30 00:04:01 +0000";
layers = (
{
layerId = "1AFB1E35-9546-41E1-B92B-6969383A0DDD";
paths = (
{
closed = 1;
nodes = (
"698 -21 OFFCURVE",
"932 83 OFFCURVE",
"1066 276 OFFCURVE",
"1066 409 QCURVE SMOOTH",
"1066 530 OFFCURVE",
"935 704 OFFCURVE",
"824 747 QCURVE",
"934 802 OFFCURVE",
"1044 957 OFFCURVE",
"1044 1066 QCURVE SMOOTH",
"1044 1262 OFFCURVE",
"770 1477 OFFCURVE",
"545 1477 QCURVE SMOOTH",
"406 1477 OFFCURVE",
"186 1376 OFFCURVE",
"64 1194 OFFCURVE",
"68 1074 QCURVE",
"70 1068 LINE",
"398 1068 LINE",
"398 1110 OFFCURVE",
"437 1173 OFFCURVE",
"506 1209 OFFCURVE",
"549 1209 QCURVE SMOOTH",
"625 1209 OFFCURVE",
"707 1115 OFFCURVE",
"707 1043 QCURVE SMOOTH",
"707 992 OFFCURVE",
"666 915 OFFCURVE",
"588 872 OFFCURVE",
"532 872 QCURVE SMOOTH",
"379 872 LINE",
"379 613 LINE",
"522 613 LINE SMOOTH",
"623 613 OFFCURVE",
"729 508 OFFCURVE",
"729 426 QCURVE SMOOTH",
"729 346 OFFCURVE",
"632 246 OFFCURVE",
"549 246 QCURVE SMOOTH",
"496 246 OFFCURVE",
"418 292 OFFCURVE",
"376 369 OFFCURVE",
"376 415 QCURVE",
"47 415 LINE",
"46 409 LINE",
"43 270 OFFCURVE",
"180 78 OFFCURVE",
"411 -21 OFFCURVE",
"549 -21 QCURVE SMOOTH"
);
}
);
width = 1106;
},
{
layerId = "759DCBF5-126F-43AE-ABB8-3EC70824EECD";
paths = (
{
closed = 1;
nodes = (
"665 -21 OFFCURVE",
"875 82 OFFCURVE",
"994 273 OFFCURVE",
"994 406 QCURVE SMOOTH",
"994 520 OFFCURVE",
"885 704 OFFCURVE",
"754 747 QCURVE",
"863 794 OFFCURVE",
"972 973 OFFCURVE",
"972 1063 QCURVE SMOOTH",
"972 1262 OFFCURVE",
"732 1477 OFFCURVE",
"530 1477 QCURVE SMOOTH",
"396 1477 OFFCURVE",
"193 1371 OFFCURVE",
"82 1191 OFFCURVE",
"85 1081 QCURVE",
"87 1075 LINE",
"276 1075 LINE",
"276 1150 OFFCURVE",
"339 1261 OFFCURVE",
"453 1322 OFFCURVE",
"530 1322 QCURVE SMOOTH",
"651 1322 OFFCURVE",
"775 1192 OFFCURVE",
"775 1067 QCURVE SMOOTH",
"775 989 OFFCURVE",
"728 878 OFFCURVE",
"622 819 OFFCURVE",
"535 819 QCURVE SMOOTH",
"363 819 LINE",
"363 665 LINE",
"535 665 LINE SMOOTH",
"671 665 OFFCURVE",
"797 537 OFFCURVE",
"797 402 QCURVE SMOOTH",
"797 269 OFFCURVE",
"655 133 OFFCURVE",
"530 133 QCURVE SMOOTH",
"448 133 OFFCURVE",
"330 195 OFFCURVE",
"266 307 OFFCURVE",
"266 384 QCURVE",
"78 384 LINE",
"75 378 LINE",
"72 255 OFFCURVE",
"189 76 OFFCURVE",
"397 -21 OFFCURVE",
"530 -21 QCURVE SMOOTH"
);
}
);
userData = {
assembly = "NPUSHB[ ]	/* 75 values pushed */
42 1 3 4 1 76 0 6 5 4 5 6 4 128 0 1 3 2 3 1 2 128 0 4 0 3 1 4 3 103 0 5 5 7 97 0 7 7 37 77 0 2 2 0 97 8 1 0 0 38 0 78 1 0 37 35 31 30 27 25 20 18 17 15 11 9 6 4 0 48 1 48 9 8 22 
CALL[ ]	/* CallFunction */";
};
width = 1106;
},
{
layerId = "CD48D813-7107-4EBE-8BC7-C661170EDB17";
paths = (
{
closed = 1;
nodes = (
"697 -21 OFFCURVE",
"893 77 OFFCURVE",
"1003 259 OFFCURVE",
"1003 386 QCURVE SMOOTH",
"1003 526 OFFCURVE",
"845 710 OFFCURVE",
"703 745 QCURVE",
"826 785 OFFCURVE",
"971 967 OFFCURVE",
"971 1082 QCURVE SMOOTH",
"971 1264 OFFCURVE",
"748 1477 OFFCURVE",
"560 1477 QCURVE SMOOTH",
"439 1477 OFFCURVE",
"244 1377 OFFCURVE",
"133 1199 OFFCURVE",
"136 1081 QCURVE",
"138 1075 LINE",
"184 1075 LINE",
"184 1180 OFFCURVE",
"282 1337 OFFCURVE",
"452 1423 OFFCURVE",
"560 1423 QCURVE SMOOTH",
"736 1423 OFFCURVE",
"917 1233 OFFCURVE",
"917 1086 QCURVE SMOOTH",
"917 997 OFFCURVE",
"822 855 OFFCURVE",
"646 771 OFFCURVE",
"524 771 QCURVE SMOOTH",
"413 771 LINE",
"413 715 LINE",
"524 715 LINE SMOOTH",
"720 715 OFFCURVE",
"949 552 OFFCURVE",
"949 382 QCURVE SMOOTH",
"949 218 OFFCURVE",
"749 33 OFFCURVE",
"569 33 QCURVE SMOOTH",
"450 33 OFFCURVE",
"262 129 OFFCURVE",
"153 297 OFFCURVE",
"153 405 QCURVE",
"107 405 LINE",
"105 399 LINE",
"102 265 OFFCURVE",
"231 77 OFFCURVE",
"446 -21 OFFCURVE",
"569 -21 QCURVE SMOOTH"
);
}
);
width = 1106;
}
);
note = three;
unicode = 0033;
},
{
glyphname = four;
lastChange = "2024-07-30 00:05:05 +0000";
layers = (
{
layerId = "1AFB1E35-9546-41E1-B92B-6969383A0DDD";
paths = (
{
closed = 1;
nodes = (
"1135 0 LINE",
"1135 205 LINE",
"985 237 LINE",
"985 355 LINE",
"1127 355 LINE",
"1127 574 LINE",
"985 574 LINE",
"985 1456 LINE",
"637 1456 LINE",
"55 518 LINE",
"78 355 LINE",
"635 355 LINE",
"635 237 LINE",
"483 205 LINE",
"483 0 LINE"
);
},
{
closed = 1;
nodes = (
"602 967 LINE",
"629 1002 LINE",
"635 1000 LINE",
"635 574 LINE",
"367 574 LINE"
);
}
);
width = 1187;
},
{
layerId = "759DCBF5-126F-43AE-ABB8-3EC70824EECD";
paths = (
{
closed = 1;
nodes = (
"1083 0 LINE",
"1083 126 LINE",
"920 154 LINE",
"920 336 LINE",
"1121 336 LINE",
"1121 490 LINE",
"920 490 LINE",
"920 1456 LINE",
"712 1456 LINE",
"70 447 LINE",
"70 336 LINE",
"724 336 LINE",
"724 154 LINE",
"561 126 LINE",
"561 0 LINE"
);
},
{
closed = 1;
nodes = (
"698 1124 LINE",
"718 1177 LINE",
"724 1175 LINE",
"724 490 LINE",
"280 490 LINE"
);
}
);
userData = {
assembly = "NPUSHB[ ]	/* 47 values pushed */
19 1 3 2 7 1 1 3 14 4 3 0 4 0 1 3 76 5 1 3 4 1 1 0 3 1 104 0 2 2 31 77 0 0 0 32 0 78 20 17 17 18 19 17 6 8 28 
CALL[ ]	/* CallFunction */";
};
width = 1187;
},
{
layerId = "CD48D813-7107-4EBE-8BC7-C661170EDB17";
paths = (
{
closed = 1;
nodes = (
"1016 0 LINE",
"1016 54 LINE",
"853 54 LINE",
"853 397 LINE",
"1105 397 LINE",
"1105 451 LINE",
"853 451 LINE",
"853 1456 LINE",
"788 1456 LINE",
"93 427 LINE",
"93 397 LINE",
"799 397 LINE",
"799 54 LINE",
"636 54 LINE",
"636 0 LINE"
);
},
{
closed = 1;
nodes = (
"715 1253 LINE",
"793 1382 LINE",
"799 1380 LINE",
"799 451 LINE",
"177 451 LINE"
);
}
);
width = 1187;
}
);
note = four;
unicode = 0034;
},
{
glyphname = five;
lastChange = "2024-07-30 00:05:57 +0000";
layers = (
{
layerId = "1AFB1E35-9546-41E1-B92B-6969383A0DDD";
paths = (
{
closed = 1;
nodes = (
"702 -21 OFFCURVE",
"921 110 OFFCURVE",
"1035 333 OFFCURVE",
"1035 469 QCURVE SMOOTH",
"1035 627 OFFCURVE",
"937 847 OFFCURVE",
"745 961 OFFCURVE",
"607 958 QCURVE SMOOTH",
"565 958 OFFCURVE",
"488 941 OFFCURVE",
"421 913 OFFCURVE",
"396 895 QCURVE",
"433 1185 LINE",
"784 1185 LINE",
"813 1097 LINE",
"1005 1097 LINE",
"1005 1456 LINE",
"158 1456 LINE",
"77 638 LINE",
"382 621 LINE",
"397 662 OFFCURVE",
"473 719 OFFCURVE",
"533 719 QCURVE SMOOTH",
"620 719 OFFCURVE",
"699 583 OFFCURVE",
"699 467 QCURVE SMOOTH",
"699 374 OFFCURVE",
"629 246 OFFCURVE",
"544 246 QCURVE SMOOTH",
"470 246 OFFCURVE",
"381 341 OFFCURVE",
"381 425 QCURVE",
"50 402 LINE",
"48 398 LINE",
"45 272 OFFCURVE",
"182 83 OFFCURVE",
"411 -21 OFFCURVE",
"544 -21 QCURVE SMOOTH"
);
}
);
width = 1081;
},
{
layerId = "759DCBF5-126F-43AE-ABB8-3EC70824EECD";
paths = (
{
closed = 1;
nodes = (
"672 -21 OFFCURVE",
"877 100 OFFCURVE",
"982 318 OFFCURVE",
"982 464 QCURVE SMOOTH",
"982 614 OFFCURVE",
"878 835 OFFCURVE",
"684 954 OFFCURVE",
"550 953 QCURVE SMOOTH",
"501 952 OFFCURVE",
"418 930 OFFCURVE",
"348 895 OFFCURVE",
"318 872 QCURVE",
"365 1281 LINE",
"800 1281 LINE",
"819 1168 LINE",
"967 1168 LINE",
"967 1456 LINE",
"198 1456 LINE",
"114 657 LINE",
"278 640 LINE",
"302 712 OFFCURVE",
"407 782 OFFCURVE",
"523 782 QCURVE SMOOTH",
"646 782 OFFCURVE",
"785 603 OFFCURVE",
"785 462 QCURVE SMOOTH",
"785 309 OFFCURVE",
"647 133 OFFCURVE",
"522 133 QCURVE SMOOTH",
"414 133 OFFCURVE",
"277 265 OFFCURVE",
"277 383 QCURVE",
"99 383 LINE",
"97 377 LINE",
"94 246 OFFCURVE",
"204 69 OFFCURVE",
"399 -21 OFFCURVE",
"522 -21 QCURVE SMOOTH"
);
}
);
userData = {
assembly = "NPUSHB[ ]	/* 11 values pushed */
26 1 3 7 19 18 2 1 3 2 76 
MPPEM[ ]	/* MeasurePixelPerEm */
PUSHB[ ]	/* 1 value pushed */
23 
LT[ ]	/* LessThan */
IF[ ]	/* If */
NPUSHB[ ]	/* 45 values pushed */
0 5 6 7 6 5 114 0 1 3 2 3 1 2 128 0 7 0 3 1 7 3 105 0 6 6 4 95 0 4 4 31 77 0 2 2 0 97 8 1 0 0 38 0 78 
ELSE[ ]	/* Else */
NPUSHB[ ]	/* 46 values pushed */
0 5 6 7 6 5 7 128 0 1 3 2 3 1 2 128 0 7 0 3 1 7 3 105 0 6 6 4 95 0 4 4 31 77 0 2 2 0 97 8 1 0 0 38 0 78 
EIF[ ]	/* EndIf */
NPUSHB[ ]	/* 23 values pushed */
1 0 31 29 25 24 23 22 21 20 16 14 10 8 6 4 0 37 1 37 9 8 22 
CALL[ ]	/* CallFunction */";
};
width = 1081;
},
{
layerId = "CD48D813-7107-4EBE-8BC7-C661170EDB17";
paths = (
{
closed = 1;
nodes = (
"690 -21 OFFCURVE",
"880 98 OFFCURVE",
"973 315 OFFCURVE",
"973 464 QCURVE SMOOTH",
"973 603 OFFCURVE",
"870 809 OFFCURVE",
"689 919 OFFCURVE",
"573 916 QCURVE SMOOTH",
"476 913 OFFCURVE",
"349 883 OFFCURVE",
"258 827 OFFCURVE",
"216 785 QCURVE",
"277 1403 LINE",
"874 1403 LINE",
"874 1265 LINE",
"928 1265 LINE",
"928 1456 LINE",
"228 1456 LINE",
"150 662 LINE",
"191 646 LINE",
"231 751 OFFCURVE",
"414 858 OFFCURVE",
"574 858 QCURVE SMOOTH",
"737 858 OFFCURVE",
"918 646 OFFCURVE",
"918 462 QCURVE SMOOTH",
"918 247 OFFCURVE",
"737 33 OFFCURVE",
"543 33 QCURVE SMOOTH",
"378 33 OFFCURVE",
"186 211 OFFCURVE",
"186 383 QCURVE",
"139 383 LINE",
"137 377 LINE",
"134 246 OFFCURVE",
"239 69 OFFCURVE",
"425 -21 OFFCURVE",
"543 -21 QCURVE SMOOTH"
);
}
);
width = 1081;
}
);
note = five;
unicode = 0035;
},
{
glyphname = six;
lastChange = "2024-07-30 00:06:39 +0000";
layers = (
{
layerId = "1AFB1E35-9546-41E1-B92B-6969383A0DDD";
paths = (
{
closed = 1;
nodes = (
"759 -21 OFFCURVE",
"991 111 OFFCURVE",
"1124 339 OFFCURVE",
"1124 483 QCURVE SMOOTH",
"1124 629 OFFCURVE",
"1027 855 OFFCURVE",
"841 983 OFFCURVE",
"709 983 QCURVE SMOOTH",
"620 983 OFFCURVE",
"476 927 OFFCURVE",
"432 877 QCURVE",
"429 882 LINE",
"428 1037 OFFCURVE",
"556 1202 OFFCURVE",
"694 1202 QCURVE SMOOTH",
"750 1202 OFFCURVE",
"869 1178 OFFCURVE",
"927 1161 QCURVE",
"986 1415 LINE",
"903 1448 OFFCURVE",
"769 1477 OFFCURVE",
"682 1477 QCURVE SMOOTH",
"503 1477 OFFCURVE",
"228 1327 OFFCURVE",
"72 1051 OFFCURVE",
"72 860 QCURVE SMOOTH",
"72 567 LINE SMOOTH",
"72 385 OFFCURVE",
"207 121 OFFCURVE",
"449 -21 OFFCURVE",
"609 -21 QCURVE SMOOTH"
);
},
{
closed = 1;
nodes = (
"518 246 OFFCURVE",
"422 413 OFFCURVE",
"422 567 QCURVE SMOOTH",
"422 652 LINE",
"441 673 OFFCURVE",
"493 701 OFFCURVE",
"554 716 OFFCURVE",
"585 716 QCURVE SMOOTH",
"677 716 OFFCURVE",
"773 591 OFFCURVE",
"773 490 QCURVE SMOOTH",
"773 423 OFFCURVE",
"729 312 OFFCURVE",
"652 246 OFFCURVE",
"600 246 QCURVE SMOOTH"
);
}
);
width = 1144;
},
{
layerId = "759DCBF5-126F-43AE-ABB8-3EC70824EECD";
paths = (
{
closed = 1;
nodes = (
"731 -21 OFFCURVE",
"935 109 OFFCURVE",
"1047 339 OFFCURVE",
"1047 490 QCURVE SMOOTH",
"1047 628 OFFCURVE",
"942 844 OFFCURVE",
"750 967 OFFCURVE",
"620 967 QCURVE SMOOTH",
"526 967 OFFCURVE",
"364 906 OFFCURVE",
"308 854 QCURVE",
"304 858 LINE",
"310 1091 OFFCURVE",
"491 1322 OFFCURVE",
"644 1322 QCURVE SMOOTH",
"716 1322 OFFCURVE",
"828 1293 OFFCURVE",
"875 1270 QCURVE",
"913 1417 LINE",
"865 1443 OFFCURVE",
"718 1477 OFFCURVE",
"644 1477 QCURVE SMOOTH",
"485 1477 OFFCURVE",
"240 1315 OFFCURVE",
"101 1000 OFFCURVE",
"101 769 QCURVE SMOOTH",
"101 573 LINE SMOOTH",
"101 384 OFFCURVE",
"229 118 OFFCURVE",
"452 -21 OFFCURVE",
"594 -21 QCURVE SMOOTH"
);
},
{
closed = 1;
nodes = (
"466 133 OFFCURVE",
"297 351 OFFCURVE",
"297 554 QCURVE SMOOTH",
"297 671 LINE",
"322 716 OFFCURVE",
"401 783 OFFCURVE",
"510 820 OFFCURVE",
"577 820 QCURVE SMOOTH",
"705 820 OFFCURVE",
"850 634 OFFCURVE",
"850 490 QCURVE SMOOTH",
"850 389 OFFCURVE",
"789 227 OFFCURVE",
"675 133 OFFCURVE",
"594 133 QCURVE SMOOTH"
);
}
);
userData = {
assembly = "NPUSHB[ ]	/* 72 values pushed */
12 1 2 1 13 1 3 2 19 1 5 3 42 1 4 5 4 76 0 3 0 5 4 3 5 105 0 2 2 1 97 0 1 1 37 77 7 1 4 4 0 97 6 1 0 0 38 0 78 32 31 1 0 39 37 31 45 32 45 24 22 17 15 10 8 0 30 1 30 8 8 22 
CALL[ ]	/* CallFunction */";
};
width = 1144;
},
{
layerId = "CD48D813-7107-4EBE-8BC7-C661170EDB17";
paths = (
{
closed = 1;
nodes = (
"700 -21 OFFCURVE",
"895 105 OFFCURVE",
"1006 322 OFFCURVE",
"1006 460 QCURVE SMOOTH",
"1006 610 OFFCURVE",
"905 834 OFFCURVE",
"716 957 OFFCURVE",
"585 957 QCURVE SMOOTH",
"449 957 OFFCURVE",
"242 815 OFFCURVE",
"195 706 QCURVE",
"195 881 LINE SMOOTH",
"195 1154 OFFCURVE",
"419 1423 OFFCURVE",
"594 1423 QCURVE SMOOTH",
"679 1423 OFFCURVE",
"792 1394 OFFCURVE",
"858 1356 QCURVE",
"879 1407 LINE",
"815 1444 OFFCURVE",
"670 1477 OFFCURVE",
"594 1477 QCURVE SMOOTH",
"463 1477 OFFCURVE",
"258 1341 OFFCURVE",
"141 1075 OFFCURVE",
"141 880 QCURVE SMOOTH",
"141 552 LINE SMOOTH",
"141 370 OFFCURVE",
"251 114 OFFCURVE",
"446 -21 OFFCURVE",
"575 -21 QCURVE SMOOTH"
);
},
{
closed = 1;
nodes = (
"403 32 OFFCURVE",
"195 304 OFFCURVE",
"195 551 QCURVE SMOOTH",
"195 554 LINE SMOOTH",
"195 649 OFFCURVE",
"301 807 OFFCURVE",
"476 903 OFFCURVE",
"578 903 QCURVE SMOOTH",
"760 903 OFFCURVE",
"952 662 OFFCURVE",
"952 460 QCURVE SMOOTH",
"952 343 OFFCURVE",
"856 148 OFFCURVE",
"686 32 OFFCURVE",
"575 32 QCURVE SMOOTH"
);
}
);
width = 1144;
}
);
note = six;
unicode = 0036;
},
{
glyphname = seven;
lastChange = "2024-07-30 00:07:17 +0000";
layers = (
{
layerId = "1AFB1E35-9546-41E1-B92B-6969383A0DDD";
paths = (
{
closed = 1;
nodes = (
"664 0 LINE",
"677 142 LINE SMOOTH",
"694 307 OFFCURVE",
"748 582 OFFCURVE",
"838 827 OFFCURVE",
"981 1063 OFFCURVE",
"1089 1188 QCURVE",
"1089 1456 LINE",
"32 1456 LINE",
"32 1058 LINE",
"291 1058 LINE",
"300 1188 LINE",
"754 1188 LINE",
"630 1052 OFFCURVE",
"453 722 OFFCURVE",
"346 347 OFFCURVE",
"326 142 QCURVE SMOOTH",
"313 0 LINE"
);
}
);
width = 1128;
},
{
layerId = "759DCBF5-126F-43AE-ABB8-3EC70824EECD";
paths = (
{
closed = 1;
nodes = (
"554 0 LINE",
"570 157 LINE SMOOTH",
"591 330 OFFCURVE",
"651 614 OFFCURVE",
"756 875 OFFCURVE",
"928 1144 OFFCURVE",
"1060 1301 QCURVE",
"1060 1456 LINE",
"76 1456 LINE",
"76 1134 LINE",
"244 1134 LINE",
"259 1301 LINE",
"867 1301 LINE",
"727 1129 OFFCURVE",
"527 777 OFFCURVE",
"401 387 OFFCURVE",
"373 157 QCURVE SMOOTH",
"357 0 LINE"
);
}
);
userData = {
assembly = "PUSHB[ ]	/* 5 values pushed */
12 1 1 1 75 
MPPEM[ ]	/* MeasurePixelPerEm */
PUSHB[ ]	/* 1 value pushed */
16 
LT[ ]	/* LessThan */
IF[ ]	/* If */
NPUSHB[ ]	/* 23 values pushed */
0 2 1 0 1 2 114 0 1 1 3 95 0 3 3 31 77 0 0 0 32 0 78 
ELSE[ ]	/* Else */
NPUSHB[ ]	/* 24 values pushed */
0 2 1 0 1 2 0 128 0 1 1 3 95 0 3 3 31 77 0 0 0 32 0 78 
EIF[ ]	/* EndIf */
PUSHB[ ]	/* 7 values pushed */
17 17 21 16 4 8 26 
CALL[ ]	/* CallFunction */";
};
width = 1128;
},
{
layerId = "CD48D813-7107-4EBE-8BC7-C661170EDB17";
paths = (
{
closed = 1;
nodes = (
"459 0 LINE",
"465 91 LINE",
"488 301 OFFCURVE",
"587 670 OFFCURVE",
"733 993 OFFCURVE",
"918 1277 OFFCURVE",
"1026 1402 QCURVE",
"1026 1456 LINE",
"96 1456 LINE",
"96 1163 LINE",
"150 1163 LINE",
"150 1402 LINE",
"961 1402 LINE",
"811 1224 OFFCURVE",
"584 817 OFFCURVE",
"440 354 OFFCURVE",
"411 91 QCURVE",
"405 0 LINE"
);
}
);
width = 1128;
}
);
note = seven;
unicode = 0037;
},
{
glyphname = eight;
lastChange = "2024-07-30 00:08:06 +0000";
layers = (
{
layerId = "1AFB1E35-9546-41E1-B92B-6969383A0DDD";
paths = (
{
closed = 1;
nodes = (
"724 -21 OFFCURVE",
"953 77 OFFCURVE",
"1080 266 OFFCURVE",
"1080 400 QCURVE SMOOTH",
"1080 514 OFFCURVE",
"957 692 OFFCURVE",
"847 744 QCURVE",
"943 794 OFFCURVE",
"1052 960 OFFCURVE",
"1052 1066 QCURVE SMOOTH",
"1052 1197 OFFCURVE",
"932 1380 OFFCURVE",
"715 1477 OFFCURVE",
"570 1477 QCURVE SMOOTH",
"426 1477 OFFCURVE",
"209 1380 OFFCURVE",
"89 1197 OFFCURVE",
"89 1066 QCURVE SMOOTH",
"89 960 OFFCURVE",
"197 794 OFFCURVE",
"294 744 QCURVE",
"185 692 OFFCURVE",
"60 516 OFFCURVE",
"60 400 QCURVE SMOOTH",
"60 266 OFFCURVE",
"190 77 OFFCURVE",
"421 -21 OFFCURVE",
"572 -21 QCURVE SMOOTH"
);
},
{
closed = 1;
nodes = (
"499 246 OFFCURVE",
"411 345 OFFCURVE",
"411 430 QCURVE SMOOTH",
"411 486 OFFCURVE",
"451 567 OFFCURVE",
"522 610 OFFCURVE",
"570 610 QCURVE SMOOTH",
"618 610 OFFCURVE",
"690 567 OFFCURVE",
"730 487 OFFCURVE",
"730 430 QCURVE SMOOTH",
"730 374 OFFCURVE",
"691 291 OFFCURVE",
"620 246 OFFCURVE",
"572 246 QCURVE SMOOTH"
);
},
{
closed = 1;
nodes = (
"506 879 OFFCURVE",
"441 969 OFFCURVE",
"441 1048 QCURVE SMOOTH",
"441 1124 OFFCURVE",
"506 1209 OFFCURVE",
"570 1209 QCURVE SMOOTH",
"613 1209 OFFCURVE",
"671 1170 OFFCURVE",
"701 1098 OFFCURVE",
"701 1048 QCURVE SMOOTH",
"701 996 OFFCURVE",
"671 920 OFFCURVE",
"614 879 OFFCURVE",
"572 879 QCURVE SMOOTH"
);
}
);
width = 1131;
},
{
layerId = "759DCBF5-126F-43AE-ABB8-3EC70824EECD";
paths = (
{
closed = 1;
nodes = (
"706 -21 OFFCURVE",
"919 74 OFFCURVE",
"1039 259 OFFCURVE",
"1039 394 QCURVE SMOOTH",
"1039 517 OFFCURVE",
"888 705 OFFCURVE",
"762 749 QCURVE",
"871 791 OFFCURVE",
"999 962 OFFCURVE",
"999 1076 QCURVE SMOOTH",
"999 1204 OFFCURVE",
"888 1383 OFFCURVE",
"692 1477 OFFCURVE",
"564 1477 QCURVE SMOOTH",
"435 1477 OFFCURVE",
"241 1383 OFFCURVE",
"133 1204 OFFCURVE",
"133 1076 QCURVE SMOOTH",
"133 962 OFFCURVE",
"257 791 OFFCURVE",
"366 749 QCURVE",
"240 705 OFFCURVE",
"92 517 OFFCURVE",
"92 394 QCURVE SMOOTH",
"92 259 OFFCURVE",
"210 74 OFFCURVE",
"423 -21 OFFCURVE",
"566 -21 QCURVE SMOOTH"
);
},
{
closed = 1;
nodes = (
"440 133 OFFCURVE",
"289 274 OFFCURVE",
"289 398 QCURVE SMOOTH",
"289 479 OFFCURVE",
"359 602 OFFCURVE",
"483 672 OFFCURVE",
"564 672 QCURVE SMOOTH",
"645 672 OFFCURVE",
"771 602 OFFCURVE",
"843 478 OFFCURVE",
"843 398 QCURVE SMOOTH",
"843 316 OFFCURVE",
"773 197 OFFCURVE",
"648 133 OFFCURVE",
"566 133 QCURVE SMOOTH"
);
},
{
closed = 1;
nodes = (
"460 827 OFFCURVE",
"330 961 OFFCURVE",
"330 1072 QCURVE SMOOTH",
"330 1185 OFFCURVE",
"459 1322 OFFCURVE",
"564 1322 QCURVE SMOOTH",
"633 1322 OFFCURVE",
"740 1257 OFFCURVE",
"802 1144 OFFCURVE",
"802 1072 QCURVE SMOOTH",
"802 998 OFFCURVE",
"742 888 OFFCURVE",
"635 827 OFFCURVE",
"566 827 QCURVE SMOOTH"
);
}
);
userData = {
assembly = "NPUSHB[ ]	/* 66 values pushed */
21 7 2 3 4 1 76 8 1 4 0 3 2 4 3 105 0 5 5 1 97 0 1 1 37 77 7 1 2 2 0 97 6 1 0 0 38 0 78 44 43 29 28 1 0 52 50 43 56 44 56 37 35 28 42 29 42 15 13 0 27 1 27 9 8 22 
CALL[ ]	/* CallFunction */";
};
width = 1131;
},
{
layerId = "CD48D813-7107-4EBE-8BC7-C661170EDB17";
paths = (
{
closed = 1;
nodes = (
"702 -21 OFFCURVE",
"911 72 OFFCURVE",
"1030 251 OFFCURVE",
"1030 379 QCURVE SMOOTH",
"1030 511 OFFCURVE",
"857 707 OFFCURVE",
"718 745 QCURVE",
"839 782 OFFCURVE",
"988 964 OFFCURVE",
"988 1086 QCURVE SMOOTH",
"988 1208 OFFCURVE",
"878 1383 OFFCURVE",
"687 1477 OFFCURVE",
"565 1477 QCURVE SMOOTH",
"442 1477 OFFCURVE",
"251 1384 OFFCURVE",
"143 1209 OFFCURVE",
"143 1086 QCURVE SMOOTH",
"143 963 OFFCURVE",
"289 782 OFFCURVE",
"411 745 QCURVE",
"271 708 OFFCURVE",
"102 512 OFFCURVE",
"102 379 QCURVE SMOOTH",
"102 251 OFFCURVE",
"220 72 OFFCURVE",
"430 -21 OFFCURVE",
"567 -21 QCURVE SMOOTH"
);
},
{
closed = 1;
nodes = (
"386 33 OFFCURVE",
"156 213 OFFCURVE",
"156 374 QCURVE SMOOTH",
"156 477 OFFCURVE",
"262 632 OFFCURVE",
"447 718 OFFCURVE",
"565 718 QCURVE SMOOTH",
"681 718 OFFCURVE",
"867 632 OFFCURVE",
"975 477 OFFCURVE",
"975 374 QCURVE SMOOTH",
"975 267 OFFCURVE",
"869 115 OFFCURVE",
"684 33 OFFCURVE",
"567 33 QCURVE SMOOTH"
);
},
{
closed = 1;
nodes = (
"405 772 OFFCURVE",
"197 945 OFFCURVE",
"197 1091 QCURVE SMOOTH",
"197 1242 OFFCURVE",
"404 1423 OFFCURVE",
"565 1423 QCURVE SMOOTH",
"668 1423 OFFCURVE",
"836 1336 OFFCURVE",
"934 1186 OFFCURVE",
"934 1091 QCURVE SMOOTH",
"934 994 OFFCURVE",
"838 851 OFFCURVE",
"672 772 OFFCURVE",
"567 772 QCURVE SMOOTH"
);
}
);
width = 1131;
}
);
note = eight;
unicode = 0038;
},
{
glyphname = nine;
lastChange = "2024-07-30 00:08:53 +0000";
layers = (
{
layerId = "1AFB1E35-9546-41E1-B92B-6969383A0DDD";
paths = (
{
closed = 1;
nodes = (
"681 -21 OFFCURVE",
"940 117 OFFCURVE",
"1090 366 OFFCURVE",
"1090 530 QCURVE SMOOTH",
"1090 879 LINE SMOOTH",
"1090 1064 OFFCURVE",
"959 1332 OFFCURVE",
"730 1477 OFFCURVE",
"583 1477 QCURVE SMOOTH",
"432 1477 OFFCURVE",
"200 1337 OFFCURVE",
"70 1101 OFFCURVE",
"70 956 QCURVE SMOOTH",
"70 801 OFFCURVE",
"175 576 OFFCURVE",
"362 454 OFFCURVE",
"483 454 QCURVE SMOOTH",
"560 454 OFFCURVE",
"693 514 OFFCURVE",
"748 575 QCURVE",
"748 542 LINE SMOOTH",
"748 394 OFFCURVE",
"613 246 OFFCURVE",
"495 246 QCURVE SMOOTH",
"441 246 OFFCURVE",
"304 271 OFFCURVE",
"240 291 QCURVE",
"205 41 LINE",
"276 11 OFFCURVE",
"439 -21 OFFCURVE",
"515 -21 QCURVE SMOOTH"
);
},
{
closed = 1;
nodes = (
"527 704 OFFCURVE",
"455 765 OFFCURVE",
"421 879 OFFCURVE",
"421 956 QCURVE SMOOTH",
"421 1022 OFFCURVE",
"460 1138 OFFCURVE",
"532 1209 OFFCURVE",
"582 1209 QCURVE SMOOTH",
"650 1209 OFFCURVE",
"740 1062 OFFCURVE",
"740 922 QCURVE SMOOTH",
"740 764 LINE",
"709 735 OFFCURVE",
"626 704 OFFCURVE",
"585 704 QCURVE SMOOTH"
);
}
);
width = 1154;
},
{
layerId = "759DCBF5-126F-43AE-ABB8-3EC70824EECD";
paths = (
{
closed = 1;
nodes = (
"667 -21 OFFCURVE",
"898 125 OFFCURVE",
"1026 423 OFFCURVE",
"1026 650 QCURVE SMOOTH",
"1026 913 LINE SMOOTH",
"1026 1099 OFFCURVE",
"907 1350 OFFCURVE",
"687 1477 OFFCURVE",
"535 1477 QCURVE SMOOTH",
"410 1477 OFFCURVE",
"205 1344 OFFCURVE",
"84 1110 OFFCURVE",
"84 958 QCURVE SMOOTH",
"84 799 OFFCURVE",
"195 575 OFFCURVE",
"401 457 OFFCURVE",
"543 457 QCURVE SMOOTH",
"633 457 OFFCURVE",
"777 529 OFFCURVE",
"817 596 QCURVE",
"821 591 LINE",
"818 350 OFFCURVE",
"653 133 OFFCURVE",
"511 133 QCURVE SMOOTH",
"431 133 OFFCURVE",
"304 158 OFFCURVE",
"243 187 QCURVE",
"213 38 LINE",
"276 8 OFFCURVE",
"435 -21 OFFCURVE",
"511 -21 QCURVE SMOOTH"
);
},
{
closed = 1;
nodes = (
"462 612 OFFCURVE",
"344 698 OFFCURVE",
"281 853 OFFCURVE",
"281 958 QCURVE SMOOTH",
"281 1065 OFFCURVE",
"350 1229 OFFCURVE",
"468 1322 OFFCURVE",
"541 1322 QCURVE SMOOTH",
"682 1322 OFFCURVE",
"829 1126 OFFCURVE",
"829 933 QCURVE SMOOTH",
"829 779 LINE",
"797 706 OFFCURVE",
"652 612 OFFCURVE",
"543 612 QCURVE SMOOTH"
);
}
);
userData = {
assembly = "NPUSHB[ ]	/* 72 values pushed */
34 1 4 5 10 1 2 4 4 1 1 2 3 1 0 1 4 76 7 1 4 0 2 1 4 2 105 0 5 5 3 97 0 3 3 37 77 0 1 1 0 97 6 1 0 0 38 0 78 32 31 1 0 39 37 31 45 32 45 23 21 15 13 8 6 0 30 1 30 8 8 22 
CALL[ ]	/* CallFunction */";
};
width = 1154;
},
{
layerId = "CD48D813-7107-4EBE-8BC7-C661170EDB17";
paths = (
{
closed = 1;
nodes = (
"693 -21 OFFCURVE",
"900 113 OFFCURVE",
"1012 381 OFFCURVE",
"1012 580 QCURVE SMOOTH",
"1012 923 LINE SMOOTH",
"1012 1111 OFFCURVE",
"902 1357 OFFCURVE",
"703 1477 OFFCURVE",
"570 1477 QCURVE SMOOTH",
"443 1477 OFFCURVE",
"246 1337 OFFCURVE",
"134 1101 OFFCURVE",
"134 958 QCURVE SMOOTH",
"134 823 OFFCURVE",
"244 600 OFFCURVE",
"437 468 OFFCURVE",
"562 468 QCURVE SMOOTH",
"689 468 OFFCURVE",
"894 592 OFFCURVE",
"950 701 QCURVE",
"950 578 LINE SMOOTH",
"950 309 OFFCURVE",
"739 33 OFFCURVE",
"551 33 QCURVE SMOOTH",
"465 33 OFFCURVE",
"329 65 OFFCURVE",
"254 99 QCURVE",
"238 42 LINE",
"317 11 OFFCURVE",
"473 -21 OFFCURVE",
"551 -21 QCURVE SMOOTH"
);
},
{
closed = 1;
nodes = (
"451 521 OFFCURVE",
"287 641 OFFCURVE",
"196 839 OFFCURVE",
"196 958 QCURVE SMOOTH",
"196 1081 OFFCURVE",
"292 1293 OFFCURVE",
"462 1423 OFFCURVE",
"574 1423 QCURVE SMOOTH",
"745 1423 OFFCURVE",
"950 1178 OFFCURVE",
"950 922 QCURVE SMOOTH",
"950 811 LINE",
"910 692 OFFCURVE",
"710 521 OFFCURVE",
"562 521 QCURVE SMOOTH"
);
}
);
width = 1154;
}
);
note = nine;
unicode = 0039;
},
{
glyphname = colon;
lastChange = "2024-07-30 00:09:55 +0000";
layers = (
{
layerId = "1AFB1E35-9546-41E1-B92B-6969383A0DDD";
paths = (
{
closed = 1;
nodes = (
"384 791 LINE",
"384 1081 LINE",
"35 1081 LINE",
"35 791 LINE"
);
},
{
closed = 1;
nodes = (
"384 0 LINE",
"384 290 LINE",
"35 290 LINE",
"35 0 LINE"
);
}
);
width = 419;
},
{
layerId = "759DCBF5-126F-43AE-ABB8-3EC70824EECD";
paths = (
{
closed = 1;
nodes = (
"342 880 LINE",
"342 1082 LINE",
"145 1082 LINE",
"145 880 LINE"
);
},
{
closed = 1;
nodes = (
"342 0 LINE",
"342 202 LINE",
"145 202 LINE",
"145 0 LINE"
);
}
);
userData = {
assembly = "NPUSHB[ ]	/* 41 values pushed */
0 0 0 1 95 4 1 1 1 34 77 5 1 3 3 2 95 0 2 2 32 2 78 4 4 0 0 4 7 4 7 6 5 0 3 0 3 17 6 8 23 
CALL[ ]	/* CallFunction */";
};
width = 419;
},
{
layerId = "CD48D813-7107-4EBE-8BC7-C661170EDB17";
paths = (
{
closed = 1;
nodes = (
"254 949 LINE",
"254 1079 LINE",
"168 1079 LINE",
"168 949 LINE"
);
},
{
closed = 1;
nodes = (
"254 0 LINE",
"254 130 LINE",
"168 130 LINE",
"168 0 LINE"
);
}
);
width = 419;
}
);
note = colon;
unicode = 003A;
},
{
glyphname = semicolon;
lastChange = "2024-07-30 00:10:40 +0000";
layers = (
{
layerId = "1AFB1E35-9546-41E1-B92B-6969383A0DDD";
paths = (
{
closed = 1;
nodes = (
"251 -323 OFFCURVE",
"377 -111 OFFCURVE",
"377 19 QCURVE SMOOTH",
"378 257 LINE",
"76 257 LINE",
"76 -2 LINE SMOOTH",
"76 -99 OFFCURVE",
"38 -248 OFFCURVE",
"4 -316 QCURVE",
"168 -397 LINE"
);
},
{
closed = 1;
nodes = (
"395 791 LINE",
"395 1081 LINE",
"46 1081 LINE",
"46 791 LINE"
);
}
);
width = 424;
},
{
layerId = "759DCBF5-126F-43AE-ABB8-3EC70824EECD";
paths = (
{
closed = 1;
nodes = (
"247 -240 OFFCURVE",
"345 -26 OFFCURVE",
"345 72 QCURVE SMOOTH",
"345 221 LINE",
"148 221 LINE",
"148 69 LINE SMOOTH",
"148 -15 OFFCURVE",
"100 -165 OFFCURVE",
"53 -237 QCURVE",
"164 -311 LINE"
);
},
{
closed = 1;
nodes = (
"343 880 LINE",
"343 1082 LINE",
"146 1082 LINE",
"146 880 LINE"
);
}
);
userData = {
assembly = "NPUSHB[ ]	/* 32 values pushed */
1 1 0 73 0 0 1 0 134 0 1 1 2 95 3 1 2 2 34 1 78 10 10 10 13 10 13 21 21 4 8 24 
CALL[ ]	/* CallFunction */";
};
width = 424;
},
{
layerId = "CD48D813-7107-4EBE-8BC7-C661170EDB17";
paths = (
{
closed = 1;
nodes = (
"223 -201 OFFCURVE",
"279 -61 OFFCURVE",
"279 27 QCURVE SMOOTH",
"279 159 LINE",
"225 159 LINE",
"225 25 LINE SMOOTH",
"225 -49 OFFCURVE",
"182 -162 OFFCURVE",
"136 -223 QCURVE",
"173 -255 LINE"
);
},
{
closed = 1;
nodes = (
"271 952 LINE",
"271 1082 LINE",
"185 1082 LINE",
"185 952 LINE"
);
}
);
width = 424;
}
);
note = semicolon;
unicode = 003B;
},
{
glyphname = less;
lastChange = "2024-07-30 00:11:18 +0000";
layers = (
{
layerId = "1AFB1E35-9546-41E1-B92B-6969383A0DDD";
paths = (
{
closed = 1;
nodes = (
"956 361 LINE",
"457 528 LINE",
"422 537 LINE",
"422 543 LINE",
"457 553 LINE",
"956 723 LINE",
"956 1039 LINE",
"67 680 LINE",
"67 405 LINE",
"956 45 LINE"
);
}
);
width = 1017;
},
{
layerId = "759DCBF5-126F-43AE-ABB8-3EC70824EECD";
paths = (
{
closed = 1;
nodes = (
"892 308 LINE",
"333 536 LINE",
"248 555 LINE",
"248 561 LINE",
"333 579 LINE",
"892 812 LINE",
"892 1013 LINE",
"76 635 LINE",
"76 486 LINE",
"892 107 LINE"
);
}
);
userData = {
assembly = "PUSHB[ ]	/* 4 values pushed */
5 2 1 50 
CALL[ ]	/* CallFunction */";
};
width = 1017;
},
{
layerId = "CD48D813-7107-4EBE-8BC7-C661170EDB17";
paths = (
{
closed = 1;
nodes = (
"913 195 LINE",
"252 498 LINE",
"133 534 LINE",
"133 540 LINE",
"252 577 LINE",
"913 885 LINE",
"913 943 LINE",
"76 565 LINE",
"76 515 LINE",
"913 136 LINE"
);
}
);
width = 1017;
}
);
note = less;
unicode = 003C;
},
{
glyphname = equal;
lastChange = "2024-07-30 00:11:33 +0000";
layers = (
{
layerId = "1AFB1E35-9546-41E1-B92B-6969383A0DDD";
paths = (
{
closed = 1;
nodes = (
"1043 285 LINE",
"1043 555 LINE",
"108 555 LINE",
"108 285 LINE"
);
},
{
closed = 1;
nodes = (
"1043 726 LINE",
"1043 995 LINE",
"108 995 LINE",
"108 726 LINE"
);
}
);
width = 1127;
},
{
layerId = "759DCBF5-126F-43AE-ABB8-3EC70824EECD";
paths = (
{
closed = 1;
nodes = (
"981 823 LINE",
"981 987 LINE",
"147 987 LINE",
"147 823 LINE"
);
},
{
closed = 1;
nodes = (
"981 407 LINE",
"981 571 LINE",
"147 571 LINE",
"147 407 LINE"
);
}
);
userData = {
assembly = "NPUSHB[ ]	/* 45 values pushed */
4 1 1 0 0 3 1 0 103 5 1 3 2 2 3 87 5 1 3 3 2 95 0 2 3 2 79 4 4 0 0 4 7 4 7 6 5 0 3 0 3 17 6 8 23 
CALL[ ]	/* CallFunction */";
};
width = 1127;
},
{
layerId = "CD48D813-7107-4EBE-8BC7-C661170EDB17";
paths = (
{
closed = 1;
nodes = (
"981 843 LINE",
"981 897 LINE",
"147 897 LINE",
"147 843 LINE"
);
},
{
closed = 1;
nodes = (
"981 436 LINE",
"981 490 LINE",
"147 490 LINE",
"147 436 LINE"
);
}
);
width = 1127;
}
);
note = equal;
unicode = 003D;
},
{
glyphname = greater;
lastChange = "2024-07-30 00:12:43 +0000";
layers = (
{
layerId = "1AFB1E35-9546-41E1-B92B-6969383A0DDD";
paths = (
{
closed = 1;
nodes = (
"952 403 LINE",
"952 678 LINE",
"71 1037 LINE",
"71 722 LINE",
"549 560 LINE",
"596 546 LINE",
"596 540 LINE",
"549 529 LINE",
"71 359 LINE",
"71 43 LINE"
);
}
);
width = 1017;
},
{
layerId = "759DCBF5-126F-43AE-ABB8-3EC70824EECD";
paths = (
{
closed = 1;
nodes = (
"939 466 LINE",
"939 615 LINE",
"84 993 LINE",
"84 798 LINE",
"682 564 LINE",
"766 544 LINE",
"766 538 LINE",
"682 521 LINE",
"84 283 LINE",
"84 87 LINE"
);
}
);
userData = {
assembly = "PUSHB[ ]	/* 4 values pushed */
9 2 1 50 
CALL[ ]	/* CallFunction */";
};
width = 1017;
},
{
layerId = "CD48D813-7107-4EBE-8BC7-C661170EDB17";
paths = (
{
closed = 1;
nodes = (
"941 516 LINE",
"941 566 LINE",
"105 944 LINE",
"105 886 LINE",
"765 582 LINE",
"883 545 LINE",
"883 539 LINE",
"765 503 LINE",
"105 196 LINE",
"105 137 LINE"
);
}
);
width = 1017;
}
);
note = greater;
unicode = 003E;
},
{
glyphname = question;
lastChange = "2024-07-30 00:13:51 +0000";
layers = (
{
layerId = "1AFB1E35-9546-41E1-B92B-6969383A0DDD";
paths = (
{
closed = 1;
nodes = (
"602 417 LINE",
"602 470 OFFCURVE",
"616 547 OFFCURVE",
"655 607 OFFCURVE",
"690 636 QCURVE SMOOTH",
"755 688 OFFCURVE",
"861 814 OFFCURVE",
"925 966 OFFCURVE",
"925 1054 QCURVE SMOOTH",
"925 1247 OFFCURVE",
"683 1477 OFFCURVE",
"470 1477 QCURVE SMOOTH",
"339 1477 OFFCURVE",
"140 1384 OFFCURVE",
"29 1203 OFFCURVE",
"31 1071 QCURVE",
"33 1065 LINE",
"338 1065 LINE",
"339 1136 OFFCURVE",
"418 1204 OFFCURVE",
"472 1204 QCURVE SMOOTH",
"538 1204 OFFCURVE",
"612 1118 OFFCURVE",
"612 1044 QCURVE SMOOTH",
"612 995 OFFCURVE",
"579 904 OFFCURVE",
"524 827 OFFCURVE",
"488 798 QCURVE SMOOTH",
"430 750 OFFCURVE",
"353 672 OFFCURVE",
"310 592 OFFCURVE",
"290 490 OFFCURVE",
"290 417 QCURVE"
);
},
{
closed = 1;
nodes = (
"599 0 LINE",
"599 286 LINE",
"290 286 LINE",
"290 0 LINE"
);
}
);
width = 953;
},
{
layerId = "759DCBF5-126F-43AE-ABB8-3EC70824EECD";
paths = (
{
closed = 1;
nodes = (
"557 410 LINE",
"557 471 OFFCURVE",
"566 546 OFFCURVE",
"598 605 OFFCURVE",
"633 641 QCURVE SMOOTH",
"719 728 OFFCURVE",
"833 869 OFFCURVE",
"890 1010 OFFCURVE",
"890 1096 QCURVE SMOOTH",
"890 1276 OFFCURVE",
"672 1477 OFFCURVE",
"475 1477 QCURVE SMOOTH",
"355 1477 OFFCURVE",
"169 1389 OFFCURVE",
"64 1229 OFFCURVE",
"66 1122 QCURVE",
"69 1116 LINE",
"257 1116 LINE",
"257 1212 OFFCURVE",
"384 1311 OFFCURVE",
"475 1311 QCURVE SMOOTH",
"580 1311 OFFCURVE",
"693 1197 OFFCURVE",
"693 1091 QCURVE SMOOTH",
"693 1037 OFFCURVE",
"660 933 OFFCURVE",
"581 823 OFFCURVE",
"510 759 QCURVE SMOOTH",
"459 713 OFFCURVE",
"399 645 OFFCURVE",
"370 577 OFFCURVE",
"360 483 OFFCURVE",
"360 410 QCURVE"
);
},
{
closed = 1;
nodes = (
"563 0 LINE",
"563 208 LINE",
"358 208 LINE",
"358 0 LINE"
);
}
);
userData = {
assembly = "NPUSHB[ ]	/* 51 values pushed */
0 2 1 0 1 2 0 128 0 0 5 1 0 5 126 0 1 1 3 97 0 3 3 37 77 6 1 5 5 4 95 0 4 4 32 4 78 33 33 33 36 33 36 27 36 18 43 16 7 8 27 
CALL[ ]	/* CallFunction */";
};
width = 953;
},
{
layerId = "CD48D813-7107-4EBE-8BC7-C661170EDB17";
paths = (
{
closed = 1;
nodes = (
"476 400 LINE",
"476 467 OFFCURVE",
"489 548 OFFCURVE",
"532 612 OFFCURVE",
"575 650 QCURVE SMOOTH",
"661 727 OFFCURVE",
"773 865 OFFCURVE",
"828 1016 OFFCURVE",
"828 1110 QCURVE SMOOTH",
"828 1275 OFFCURVE",
"639 1477 OFFCURVE",
"475 1477 QCURVE SMOOTH",
"372 1477 OFFCURVE",
"213 1394 OFFCURVE",
"124 1235 OFFCURVE",
"125 1122 QCURVE",
"128 1116 LINE",
"174 1116 LINE",
"177 1255 OFFCURVE",
"333 1424 OFFCURVE",
"475 1424 QCURVE SMOOTH",
"618 1424 OFFCURVE",
"774 1258 OFFCURVE",
"774 1112 QCURVE SMOOTH",
"774 1018 OFFCURVE",
"728 888 OFFCURVE",
"628 769 OFFCURVE",
"547 692 QCURVE SMOOTH",
"505 653 OFFCURVE",
"455 595 OFFCURVE",
"430 536 OFFCURVE",
"422 459 OFFCURVE",
"422 400 QCURVE"
);
},
{
closed = 1;
nodes = (
"500 0 LINE",
"500 106 LINE",
"418 106 LINE",
"418 0 LINE"
);
}
);
width = 953;
}
);
note = question;
unicode = 003F;
},
{
glyphname = at;
lastChange = "2024-07-30 00:14:52 +0000";
layers = (
{
layerId = "1AFB1E35-9546-41E1-B92B-6969383A0DDD";
paths = (
{
closed = 1;
nodes = (
"992 -453 OFFCURVE",
"1199 -406 OFFCURVE",
"1265 -364 QCURVE",
"1228 -192 LINE",
"1161 -219 OFFCURVE",
"979 -257 OFFCURVE",
"896 -257 QCURVE SMOOTH",
"696 -257 OFFCURVE",
"417 -79 OFFCURVE",
"280 250 OFFCURVE",
"292 478 QCURVE SMOOTH",
"302 712 OFFCURVE",
"468 1050 OFFCURVE",
"761 1232 OFFCURVE",
"961 1232 QCURVE SMOOTH",
"1266 1232 OFFCURVE",
"1565 861 OFFCURVE",
"1550 535 QCURVE SMOOTH",
"1542 362 OFFCURVE",
"1413 145 OFFCURVE",
"1321 145 QCURVE SMOOTH",
"1292 145 OFFCURVE",
"1256 172 OFFCURVE",
"1243 237 OFFCURVE",
"1246 293 QCURVE SMOOTH",
"1297 859 LINE",
"1295 863 LINE",
"1202 919 OFFCURVE",
"1053 969 OFFCURVE",
"967 969 QCURVE SMOOTH",
"816 969 OFFCURVE",
"619 833 OFFCURVE",
"511 590 OFFCURVE",
"494 429 QCURVE SMOOTH",
"473 224 OFFCURVE",
"632 -16 OFFCURVE",
"783 -16 QCURVE SMOOTH",
"948 -16 OFFCURVE",
"1030 152 QCURVE",
"1055 70 OFFCURVE",
"1181 -21 OFFCURVE",
"1285 -21 QCURVE SMOOTH",
"1434 -21 OFFCURVE",
"1641 128 OFFCURVE",
"1752 381 OFFCURVE",
"1758 535 QCURVE SMOOTH",
"1768 804 OFFCURVE",
"1585 1196 OFFCURVE",
"1223 1410 OFFCURVE",
"965 1410 QCURVE SMOOTH",
"699 1410 OFFCURVE",
"303 1183 OFFCURVE",
"77 765 OFFCURVE",
"65 478 QCURVE SMOOTH",
"55 189 OFFCURVE",
"244 -228 OFFCURVE",
"622 -453 OFFCURVE",
"892 -453 QCURVE SMOOTH"
);
},
{
closed = 1;
nodes = (
"795 178 OFFCURVE",
"740 298 OFFCURVE",
"750 416 QCURVE SMOOTH",
"766 594 OFFCURVE",
"872 771 OFFCURVE",
"972 771 QCURVE SMOOTH",
"995 771 OFFCURVE",
"1037 763 OFFCURVE",
"1056 756 QCURVE",
"1018 339 LINE SMOOTH",
"1017 322 OFFCURVE",
"1015 310 OFFCURVE",
"1013 307 QCURVE",
"982 233 OFFCURVE",
"904 178 OFFCURVE",
"863 178 QCURVE SMOOTH"
);
}
);
width = 1821;
},
{
layerId = "759DCBF5-126F-43AE-ABB8-3EC70824EECD";
paths = (
{
closed = 1;
nodes = (
"977 -453 OFFCURVE",
"1184 -406 OFFCURVE",
"1252 -364 QCURVE",
"1213 -257 LINE",
"1151 -292 OFFCURVE",
"971 -335 OFFCURVE",
"883 -335 QCURVE SMOOTH",
"674 -335 OFFCURVE",
"383 -137 OFFCURVE",
"239 227 OFFCURVE",
"251 478 QCURVE SMOOTH",
"261 725 OFFCURVE",
"437 1101 OFFCURVE",
"743 1311 OFFCURVE",
"949 1311 QCURVE SMOOTH",
"1284 1311 OFFCURVE",
"1605 884 OFFCURVE",
"1588 502 QCURVE SMOOTH",
"1580 327 OFFCURVE",
"1433 100 OFFCURVE",
"1310 100 QCURVE SMOOTH",
"1276 100 OFFCURVE",
"1225 135 OFFCURVE",
"1201 220 OFFCURVE",
"1207 293 QCURVE SMOOTH",
"1258 878 LINE",
"1256 882 LINE",
"1179 936 OFFCURVE",
"1052 988 OFFCURVE",
"947 988 QCURVE SMOOTH",
"838 988 OFFCURVE",
"661 846 OFFCURVE",
"546 589 OFFCURVE",
"531 416 QCURVE SMOOTH",
"513 220 OFFCURVE",
"651 -21 OFFCURVE",
"776 -21 QCURVE SMOOTH",
"966 -21 OFFCURVE",
"1065 137 QCURVE",
"1088 62 OFFCURVE",
"1195 -21 OFFCURVE",
"1268 -21 QCURVE SMOOTH",
"1415 -21 OFFCURVE",
"1612 122 OFFCURVE",
"1714 359 OFFCURVE",
"1720 502 QCURVE SMOOTH",
"1731 788 OFFCURVE",
"1557 1205 OFFCURVE",
"1206 1431 OFFCURVE",
"953 1431 QCURVE SMOOTH",
"705 1431 OFFCURVE",
"331 1190 OFFCURVE",
"115 760 OFFCURVE",
"102 478 QCURVE SMOOTH",
"89 190 OFFCURVE",
"269 -227 OFFCURVE",
"626 -453 OFFCURVE",
"879 -453 QCURVE SMOOTH"
);
},
{
closed = 1;
nodes = (
"762 126 OFFCURVE",
"696 275 OFFCURVE",
"707 416 QCURVE SMOOTH",
"728 639 OFFCURVE",
"860 857 OFFCURVE",
"985 857 QCURVE SMOOTH",
"1016 857 OFFCURVE",
"1073 843 OFFCURVE",
"1099 831 QCURVE",
"1052 293 LINE SMOOTH",
"1050 277 OFFCURVE",
"1049 251 OFFCURVE",
"1050 239 QCURVE",
"1006 176 OFFCURVE",
"899 126 OFFCURVE",
"836 126 QCURVE SMOOTH"
);
}
);
userData = {
assembly = "MPPEM[ ]	/* MeasurePixelPerEm */
PUSHB[ ]	/* 1 value pushed */
20 
LT[ ]	/* LessThan */
IF[ ]	/* If */
NPUSHB[ ]	/* 20 values pushed */
31 1 9 4 65 61 19 3 5 9 54 1 7 2 55 1 0 7 4 76 
ELSE[ ]	/* Else */
NPUSHB[ ]	/* 20 values pushed */
31 1 9 4 65 61 19 3 8 9 54 1 7 2 55 1 0 7 4 76 
EIF[ ]	/* EndIf */
MPPEM[ ]	/* MeasurePixelPerEm */
PUSHB[ ]	/* 1 value pushed */
20 
LT[ ]	/* LessThan */
IF[ ]	/* If */
NPUSHB[ ]	/* 43 values pushed */
0 4 0 9 5 4 9 105 0 6 6 1 97 0 1 1 31 77 11 8 2 5 5 2 97 3 1 2 2 38 77 0 7 7 0 97 10 1 0 0 42 0 78 
ELSE[ ]	/* Else */
MPPEM[ ]	/* MeasurePixelPerEm */
PUSHB[ ]	/* 1 value pushed */
40 
LT[ ]	/* LessThan */
IF[ ]	/* If */
NPUSHB[ ]	/* 53 values pushed */
0 4 0 9 8 4 9 105 0 6 6 1 97 0 1 1 31 77 11 1 8 8 2 97 3 1 2 2 38 77 0 5 5 2 97 3 1 2 2 38 77 0 7 7 0 97 10 1 0 0 42 0 78 
ELSE[ ]	/* Else */
NPUSHB[ ]	/* 51 values pushed */
0 1 0 6 4 1 6 105 0 4 0 9 8 4 9 105 11 1 8 8 2 97 3 1 2 2 38 77 0 5 5 2 97 3 1 2 2 38 77 0 7 7 0 97 10 1 0 0 42 0 78 
EIF[ ]	/* EndIf */
EIF[ ]	/* EndIf */
NPUSHB[ ]	/* 31 values pushed */
59 58 1 0 69 67 58 73 59 73 52 50 44 42 38 36 29 27 22 20 17 15 9 7 0 57 1 57 12 8 22 
CALL[ ]	/* CallFunction */";
};
width = 1821;
},
{
layerId = "CD48D813-7107-4EBE-8BC7-C661170EDB17";
paths = (
{
closed = 1;
nodes = (
"960 -453 OFFCURVE",
"1165 -404 OFFCURVE",
"1227 -364 QCURVE",
"1203 -320 LINE",
"1141 -356 OFFCURVE",
"968 -398 OFFCURVE",
"869 -398 QCURVE SMOOTH",
"625 -398 OFFCURVE",
"293 -175 OFFCURVE",
"133 221 OFFCURVE",
"146 478 QCURVE SMOOTH",
"160 743 OFFCURVE",
"371 1138 OFFCURVE",
"728 1357 OFFCURVE",
"960 1357 QCURVE SMOOTH",
"1337 1357 OFFCURVE",
"1693 919 OFFCURVE",
"1673 523 QCURVE SMOOTH",
"1662 303 OFFCURVE",
"1481 34 OFFCURVE",
"1323 34 QCURVE SMOOTH",
"1283 34 OFFCURVE",
"1211 79 OFFCURVE",
"1172 192 OFFCURVE",
"1179 293 QCURVE SMOOTH",
"1226 831 LINE",
"1228 858 LINE",
"1165 913 OFFCURVE",
"1061 968 OFFCURVE",
"978 968 QCURVE SMOOTH",
"864 968 OFFCURVE",
"677 831 OFFCURVE",
"557 583 OFFCURVE",
"541 416 QCURVE SMOOTH",
"522 217 OFFCURVE",
"656 -21 OFFCURVE",
"792 -21 QCURVE SMOOTH",
"1014 -21 OFFCURVE",
"1124 209 QCURVE",
"1133 101 OFFCURVE",
"1237 -21 OFFCURVE",
"1320 -21 QCURVE SMOOTH",
"1448 -21 OFFCURVE",
"1626 129 OFFCURVE",
"1724 377 OFFCURVE",
"1730 523 QCURVE SMOOTH",
"1742 803 OFFCURVE",
"1574 1200 OFFCURVE",
"1226 1411 OFFCURVE",
"964 1411 QCURVE SMOOTH",
"712 1411 OFFCURVE",
"328 1180 OFFCURVE",
"104 761 OFFCURVE",
"92 478 QCURVE SMOOTH",
"80 190 OFFCURVE",
"261 -227 OFFCURVE",
"615 -453 OFFCURVE",
"863 -453 QCURVE SMOOTH"
);
},
{
closed = 1;
nodes = (
"677 33 OFFCURVE",
"576 249 OFFCURVE",
"595 416 QCURVE SMOOTH",
"621 660 OFFCURVE",
"833 913 OFFCURVE",
"975 913 QCURVE SMOOTH",
"1039 913 OFFCURVE",
"1136 870 OFFCURVE",
"1170 831 QCURVE",
"1130 371 LINE SMOOTH",
"1129 364 OFFCURVE",
"1129 352 OFFCURVE",
"1128 345 QCURVE",
"1070 166 OFFCURVE",
"898 33 OFFCURVE",
"790 33 QCURVE SMOOTH"
);
}
);
width = 1821;
}
);
note = at;
unicode = 0040;
},
{
glyphname = A;
lastChange = "2024-07-30 13:15:43 +0000";
layers = (
{
layerId = "1AFB1E35-9546-41E1-B92B-6969383A0DDD";
paths = (
{
closed = 1;
nodes = (
"588 0 LINE",
"588 205 LINE",
"493 223 LINE",
"535 381 LINE",
"1003 381 LINE",
"1047 223 LINE",
"952 205 LINE",
"952 0 LINE",
"1496 0 LINE",
"1496 205 LINE",
"1394 220 LINE",
"959 1456 LINE",
"579 1456 LINE",
"145 220 LINE",
"43 205 LINE",
"43 0 LINE"
);
},
{
closed = 1;
nodes = (
"747 1063 LINE",
"764 1119 LINE",
"770 1119 LINE",
"786 1068 LINE",
"928 627 LINE",
"609 627 LINE"
);
}
);
width = 1533;
},
{
layerId = "759DCBF5-126F-43AE-ABB8-3EC70824EECD";
paths = (
{
closed = 1;
nodes = (
"487 0 LINE",
"487 126 LINE",
"377 145 LINE",
"476 413 LINE",
"1059 413 LINE",
"1155 145 LINE",
"1045 126 LINE",
"1045 0 LINE",
"1463 0 LINE",
"1463 126 LINE",
"1356 141 LINE",
"856 1456 LINE",
"687 1456 LINE",
"178 141 LINE",
"70 126 LINE",
"70 0 LINE"
);
},
{
closed = 1;
nodes = (
"755 1170 LINE",
"767 1203 LINE",
"773 1203 LINE",
"785 1170 LINE",
"999 578 LINE",
"537 578 LINE"
);
}
);
userData = {
assembly = "NPUSHB[ ]	/* 43 values pushed */
21 1 4 1 15 12 11 8 3 0 6 0 3 2 76 0 4 0 3 0 4 3 104 0 1 1 31 77 2 1 0 0 32 0 78 20 19 19 19 17 5 8 27 
CALL[ ]	/* CallFunction */";
};
width = 1533;
},
{
layerId = "CD48D813-7107-4EBE-8BC7-C661170EDB17";
paths = (
{
closed = 1;
nodes = (
"414 0 LINE",
"414 54 LINE",
"271 54 LINE",
"413 435 LINE",
"1125 435 LINE",
"1268 54 LINE",
"1125 54 LINE",
"1125 0 LINE",
"1434 0 LINE",
"1434 54 LINE",
"1327 54 LINE",
"802 1456 LINE",
"736 1456 LINE",
"212 54 LINE",
"105 54 LINE",
"105 0 LINE"
);
},
{
closed = 1;
nodes = (
"739 1309 LINE",
"766 1391 LINE",
"772 1391 LINE",
"800 1309 LINE",
"1105 489 LINE",
"433 489 LINE"
);
}
);
width = 1533;
}
);
note = A;
unicode = 0041;
},
{
glyphname = B;
lastChange = "2024-07-30 13:16:39 +0000";
layers = (
{
layerId = "1AFB1E35-9546-41E1-B92B-6969383A0DDD";
paths = (
{
closed = 1;
nodes = (
"750 0 LINE SMOOTH",
"1013 0 OFFCURVE",
"1290 218 OFFCURVE",
"1290 432 QCURVE SMOOTH",
"1290 507 OFFCURVE",
"1239 636 OFFCURVE",
"1133 727 OFFCURVE",
"1049 746 QCURVE",
"1147 788 OFFCURVE",
"1242 951 OFFCURVE",
"1242 1054 QCURVE SMOOTH",
"1242 1254 OFFCURVE",
"944 1456 OFFCURVE",
"678 1456 QCURVE SMOOTH",
"186 1456 LINE",
"40 1456 LINE",
"40 1250 LINE",
"186 1218 LINE",
"186 237 LINE",
"40 205 LINE",
"40 0 LINE"
);
},
{
closed = 1;
nodes = (
"526 620 LINE",
"766 620 LINE SMOOTH",
"832 620 OFFCURVE",
"913 579 OFFCURVE",
"952 496 OFFCURVE",
"952 433 QCURVE SMOOTH",
"952 349 OFFCURVE",
"850 267 OFFCURVE",
"750 267 QCURVE SMOOTH",
"526 267 LINE"
);
},
{
closed = 1;
nodes = (
"526 1188 LINE",
"678 1188 LINE SMOOTH",
"791 1188 OFFCURVE",
"902 1105 OFFCURVE",
"902 1014 QCURVE SMOOTH",
"902 931 OFFCURVE",
"783 852 OFFCURVE",
"663 852 QCURVE SMOOTH",
"526 852 LINE"
);
}
);
width = 1322;
},
{
layerId = "759DCBF5-126F-43AE-ABB8-3EC70824EECD";
paths = (
{
closed = 1;
nodes = (
"771 0 LINE SMOOTH",
"993 0 OFFCURVE",
"1253 211 OFFCURVE",
"1253 411 QCURVE SMOOTH",
"1253 501 OFFCURVE",
"1184 652 OFFCURVE",
"1058 757 OFFCURVE",
"970 775 QCURVE",
"1071 812 OFFCURVE",
"1194 965 OFFCURVE",
"1194 1062 QCURVE SMOOTH",
"1194 1259 OFFCURVE",
"937 1456 OFFCURVE",
"709 1456 QCURVE SMOOTH",
"244 1456 LINE",
"81 1456 LINE",
"81 1329 LINE",
"244 1301 LINE",
"244 154 LINE",
"81 126 LINE",
"81 0 LINE"
);
},
{
closed = 1;
nodes = (
"441 683 LINE",
"801 683 LINE SMOOTH",
"887 683 OFFCURVE",
"1000 617 OFFCURVE",
"1055 495 OFFCURVE",
"1055 409 QCURVE SMOOTH",
"1055 287 OFFCURVE",
"906 154 OFFCURVE",
"771 154 QCURVE SMOOTH",
"441 154 LINE"
);
},
{
closed = 1;
nodes = (
"441 1301 LINE",
"709 1301 LINE SMOOTH",
"849 1301 OFFCURVE",
"997 1184 OFFCURVE",
"997 1066 QCURVE SMOOTH",
"997 960 OFFCURVE",
"866 837 OFFCURVE",
"760 837 QCURVE SMOOTH",
"441 837 LINE"
);
}
);
userData = {
assembly = "NPUSHB[ ]	/* 81 values pushed */
5 1 5 1 14 1 3 4 2 1 0 2 3 76 4 1 5 3 1 2 2 75 0 4 7 1 3 2 4 3 103 8 1 5 5 1 95 0 1 1 31 77 0 2 2 0 95 6 1 0 0 32 0 78 31 31 21 21 1 0 31 39 31 38 34 32 21 30 21 29 24 22 9 6 0 20 1 20 9 8 22 
CALL[ ]	/* CallFunction */";
};
width = 1322;
},
{
layerId = "CD48D813-7107-4EBE-8BC7-C661170EDB17";
paths = (
{
closed = 1;
nodes = (
"769 0 LINE SMOOTH",
"972 0 OFFCURVE",
"1219 210 OFFCURVE",
"1219 401 QCURVE SMOOTH",
"1219 489 OFFCURVE",
"1134 640 OFFCURVE",
"988 741 OFFCURVE",
"897 753 QCURVE",
"1019 775 OFFCURVE",
"1153 953 OFFCURVE",
"1153 1083 QCURVE SMOOTH",
"1153 1270 OFFCURVE",
"903 1456 OFFCURVE",
"677 1456 QCURVE SMOOTH",
"294 1456 LINE",
"131 1456 LINE",
"131 1402 LINE",
"294 1402 LINE",
"294 54 LINE",
"131 54 LINE",
"131 0 LINE"
);
},
{
closed = 1;
nodes = (
"348 719 LINE",
"779 719 LINE SMOOTH",
"901 719 OFFCURVE",
"1074 633 OFFCURVE",
"1165 488 OFFCURVE",
"1165 399 QCURVE SMOOTH",
"1165 236 OFFCURVE",
"953 54 OFFCURVE",
"769 54 QCURVE SMOOTH",
"348 54 LINE"
);
},
{
closed = 1;
nodes = (
"348 1402 LINE",
"677 1402 LINE SMOOTH",
"885 1402 OFFCURVE",
"1098 1243 OFFCURVE",
"1098 1087 QCURVE SMOOTH",
"1098 928 OFFCURVE",
"896 773 OFFCURVE",
"697 773 QCURVE SMOOTH",
"348 773 LINE"
);
}
);
width = 1322;
}
);
note = B;
unicode = 0042;
},
{
glyphname = C;
lastChange = "2024-07-28 02:22:54 +0000";
layers = (
{
layerId = "1AFB1E35-9546-41E1-B92B-6969383A0DDD";
paths = (
{
closed = 1;
nodes = (
"908 -21 OFFCURVE",
"1171 68 OFFCURVE",
"1255 128 QCURVE",
"1255 495 LINE",
"1006 495 LINE",
"972 289 LINE",
"916 268 OFFCURVE",
"798 243 OFFCURVE",
"740 243 QCURVE SMOOTH",
"632 243 OFFCURVE",
"467 357 OFFCURVE",
"376 560 OFFCURVE",
"376 694 QCURVE SMOOTH",
"376 763 LINE SMOOTH",
"376 906 OFFCURVE",
"464 1107 OFFCURVE",
"626 1213 OFFCURVE",
"734 1213 QCURVE SMOOTH",
"782 1213 OFFCURVE",
"865 1195 OFFCURVE",
"938 1161 OFFCURVE",
"971 1138 QCURVE",
"1005 923 LINE",
"1253 923 LINE",
"1253 1298 LINE",
"1138 1396 OFFCURVE",
"871 1477 OFFCURVE",
"723 1477 QCURVE SMOOTH",
"510 1477 OFFCURVE",
"202 1294 OFFCURVE",
"35 971 OFFCURVE",
"35 761 QCURVE SMOOTH",
"35 694 LINE SMOOTH",
"35 466 OFFCURVE",
"216 147 OFFCURVE",
"534 -21 OFFCURVE",
"736 -21 QCURVE SMOOTH"
);
}
);
width = 1290;
},
{
layerId = "759DCBF5-126F-43AE-ABB8-3EC70824EECD";
paths = (
{
closed = 1;
nodes = (
"860 -21 OFFCURVE",
"1088 36 OFFCURVE",
"1170 87 QCURVE",
"1170 403 LINE",
"1016 403 LINE",
"994 200 LINE",
"950 173 OFFCURVE",
"816 139 OFFCURVE",
"746 139 QCURVE SMOOTH",
"596 139 OFFCURVE",
"387 275 OFFCURVE",
"278 534 OFFCURVE",
"278 717 QCURVE SMOOTH",
"278 740 LINE SMOOTH",
"278 909 OFFCURVE",
"380 1167 OFFCURVE",
"578 1314 OFFCURVE",
"721 1314 QCURVE SMOOTH",
"780 1314 OFFCURVE",
"881 1296 OFFCURVE",
"964 1262 OFFCURVE",
"996 1237 QCURVE",
"1017 1007 LINE",
"1174 1007 LINE",
"1174 1321 LINE",
"1097 1389 OFFCURVE",
"863 1477 OFFCURVE",
"722 1477 QCURVE SMOOTH",
"522 1477 OFFCURVE",
"234 1285 OFFCURVE",
"80 952 OFFCURVE",
"80 738 QCURVE SMOOTH",
"80 717 LINE SMOOTH",
"80 505 OFFCURVE",
"227 171 OFFCURVE",
"520 -21 OFFCURVE",
"739 -21 QCURVE SMOOTH"
);
}
);
userData = {
assembly = "NPUSHB[ ]	/* 66 values pushed */
12 1 3 1 34 1 0 4 2 76 0 2 3 5 3 2 5 128 0 5 4 3 5 4 126 0 3 3 1 97 0 1 1 37 77 0 4 4 0 97 6 1 0 0 38 0 78 1 0 33 32 29 27 20 18 14 13 10 8 0 36 1 36 7 8 22 
CALL[ ]	/* CallFunction */";
};
width = 1290;
},
{
layerId = "CD48D813-7107-4EBE-8BC7-C661170EDB17";
paths = (
{
closed = 1;
nodes = (
"899 -21 OFFCURVE",
"1119 40 OFFCURVE",
"1213 103 QCURVE",
"1213 372 LINE",
"1158 372 LINE",
"1158 137 LINE",
"1087 89 OFFCURVE",
"883 33 OFFCURVE",
"773 33 QCURVE SMOOTH",
"583 33 OFFCURVE",
"311 206 OFFCURVE",
"166 515 OFFCURVE",
"166 719 QCURVE SMOOTH",
"166 739 LINE SMOOTH",
"166 943 OFFCURVE",
"314 1251 OFFCURVE",
"577 1423 OFFCURVE",
"749 1423 QCURVE SMOOTH",
"845 1423 OFFCURVE",
"980 1393 OFFCURVE",
"1089 1337 OFFCURVE",
"1143 1296 QCURVE",
"1143 1062 LINE",
"1198 1062 LINE",
"1198 1319 LINE",
"1109 1397 OFFCURVE",
"907 1477 OFFCURVE",
"749 1477 QCURVE SMOOTH",
"559 1477 OFFCURVE",
"272 1290 OFFCURVE",
"112 957 OFFCURVE",
"112 737 QCURVE SMOOTH",
"112 719 LINE SMOOTH",
"112 499 OFFCURVE",
"267 166 OFFCURVE",
"564 -21 OFFCURVE",
"776 -21 QCURVE SMOOTH"
);
}
);
width = 1290;
}
);
note = C;
unicode = 0043;
},
{
glyphname = D;
lastChange = "2024-07-30 13:17:40 +0000";
layers = (
{
layerId = "1AFB1E35-9546-41E1-B92B-6969383A0DDD";
paths = (
{
closed = 1;
nodes = (
"681 0 LINE SMOOTH",
"866 0 OFFCURVE",
"1151 182 OFFCURVE",
"1313 505 OFFCURVE",
"1313 716 QCURVE SMOOTH",
"1313 739 LINE SMOOTH",
"1313 950 OFFCURVE",
"1151 1273 OFFCURVE",
"866 1456 OFFCURVE",
"681 1456 QCURVE SMOOTH",
"184 1456 LINE",
"40 1456 LINE",
"40 1250 LINE",
"184 1212 LINE",
"184 242 LINE",
"40 205 LINE",
"40 0 LINE"
);
},
{
closed = 1;
nodes = (
"513 1189 LINE",
"664 1189 LINE SMOOTH",
"768 1189 OFFCURVE",
"909 1077 OFFCURVE",
"981 875 OFFCURVE",
"981 740 QCURVE SMOOTH",
"981 716 LINE SMOOTH",
"981 581 OFFCURVE",
"909 378 OFFCURVE",
"768 266 OFFCURVE",
"664 266 QCURVE SMOOTH",
"513 266 LINE"
);
}
);
width = 1356;
},
{
layerId = "759DCBF5-126F-43AE-ABB8-3EC70824EECD";
paths = (
{
closed = 1;
nodes = (
"661 0 LINE SMOOTH",
"854 0 OFFCURVE",
"1137 187 OFFCURVE",
"1291 510 OFFCURVE",
"1291 712 QCURVE SMOOTH",
"1291 743 LINE SMOOTH",
"1291 950 OFFCURVE",
"1131 1272 OFFCURVE",
"844 1456 OFFCURVE",
"651 1456 QCURVE SMOOTH",
"244 1456 LINE",
"81 1456 LINE",
"81 1329 LINE",
"244 1301 LINE",
"244 154 LINE",
"81 126 LINE",
"81 0 LINE"
);
},
{
closed = 1;
nodes = (
"441 1301 LINE",
"651 1301 LINE SMOOTH",
"789 1301 OFFCURVE",
"987 1155 OFFCURVE",
"1094 904 OFFCURVE",
"1094 745 QCURVE SMOOTH",
"1094 712 LINE SMOOTH",
"1094 558 OFFCURVE",
"987 305 OFFCURVE",
"789 154 OFFCURVE",
"651 154 QCURVE SMOOTH",
"441 154 LINE"
);
}
);
userData = {
assembly = "NPUSHB[ ]	/* 60 values pushed */
5 1 3 1 2 1 0 2 2 76 4 1 3 3 1 2 2 75 5 1 3 3 1 95 0 1 1 31 77 0 2 2 0 95 4 1 0 0 32 0 78 17 17 1 0 17 28 17 27 20 18 9 6 0 16 1 16 6 8 22 
CALL[ ]	/* CallFunction */";
};
width = 1356;
},
{
layerId = "CD48D813-7107-4EBE-8BC7-C661170EDB17";
paths = (
{
closed = 1;
nodes = (
"629 0 LINE SMOOTH",
"808 0 OFFCURVE",
"1087 185 OFFCURVE",
"1248 509 OFFCURVE",
"1248 719 QCURVE SMOOTH",
"1248 737 LINE SMOOTH",
"1248 947 OFFCURVE",
"1087 1271 OFFCURVE",
"808 1456 OFFCURVE",
"629 1456 QCURVE SMOOTH",
"234 1456 LINE",
"71 1456 LINE",
"71 1402 LINE",
"234 1402 LINE",
"234 54 LINE",
"71 54 LINE",
"71 0 LINE"
);
},
{
closed = 1;
nodes = (
"288 1402 LINE",
"629 1402 LINE SMOOTH",
"792 1402 OFFCURVE",
"1047 1229 OFFCURVE",
"1194 930 OFFCURVE",
"1194 740 QCURVE SMOOTH",
"1194 719 LINE SMOOTH",
"1194 528 OFFCURVE",
"1047 227 OFFCURVE",
"792 54 OFFCURVE",
"629 54 QCURVE SMOOTH",
"288 54 LINE"
);
}
);
width = 1356;
}
);
note = D;
unicode = 0044;
},
{
glyphname = E;
lastChange = "2024-07-30 13:18:41 +0000";
layers = (
{
layerId = "1AFB1E35-9546-41E1-B92B-6969383A0DDD";
paths = (
{
closed = 1;
nodes = (
"1219 0 LINE",
"1219 428 LINE",
"957 428 LINE",
"949 271 LINE",
"542 271 LINE",
"542 618 LINE",
"1007 618 LINE",
"1007 887 LINE",
"542 887 LINE",
"542 1186 LINE",
"930 1186 LINE",
"938 1036 LINE",
"1203 1036 LINE",
"1203 1456 LINE",
"40 1456 LINE",
"40 1250 LINE",
"191 1218 LINE",
"191 237 LINE",
"40 205 LINE",
"40 0 LINE"
);
}
);
width = 1306;
},
{
layerId = "759DCBF5-126F-43AE-ABB8-3EC70824EECD";
paths = (
{
closed = 1;
nodes = (
"1208 0 LINE",
"1208 349 LINE",
"1051 349 LINE",
"1029 148 LINE",
"459 148 LINE",
"459 675 LINE",
"996 675 LINE",
"996 830 LINE",
"459 830 LINE",
"459 1304 LINE",
"997 1304 LINE",
"1019 1106 LINE",
"1177 1106 LINE",
"1177 1456 LINE",
"99 1456 LINE",
"99 1329 LINE",
"262 1301 LINE",
"262 154 LINE",
"99 126 LINE",
"99 0 LINE"
);
}
);
userData = {
assembly = "NPUSHB[ ]	/* 18 values pushed */
6 1 3 1 5 1 2 3 4 1 6 7 3 1 0 6 4 76 
MPPEM[ ]	/* MeasurePixelPerEm */
PUSHB[ ]	/* 1 value pushed */
12 
LT[ ]	/* LessThan */
IF[ ]	/* If */
NPUSHB[ ]	/* 44 values pushed */
0 2 3 4 3 2 114 8 1 7 5 6 6 7 114 0 4 0 5 7 4 5 103 0 3 3 1 95 0 1 1 31 77 0 6 6 0 96 0 0 0 32 0 78 
ELSE[ ]	/* Else */
NPUSHB[ ]	/* 46 values pushed */
0 2 3 4 3 2 4 128 8 1 7 5 6 5 7 6 128 0 4 0 5 7 4 5 103 0 3 3 1 95 0 1 1 31 77 0 6 6 0 96 0 0 0 32 0 78 
EIF[ ]	/* EndIf */
NPUSHB[ ]	/* 16 values pushed */
0 0 0 19 0 19 17 17 17 17 17 21 17 9 8 29 
CALL[ ]	/* CallFunction */";
};
width = 1306;
},
{
layerId = "CD48D813-7107-4EBE-8BC7-C661170EDB17";
paths = (
{
closed = 1;
nodes = (
"1200 0 LINE",
"1200 293 LINE",
"1146 293 LINE",
"1146 54 LINE",
"368 54 LINE",
"368 732 LINE",
"998 732 LINE",
"998 786 LINE",
"368 786 LINE",
"368 1402 LINE",
"1116 1402 LINE",
"1116 1163 LINE",
"1170 1163 LINE",
"1170 1456 LINE",
"151 1456 LINE",
"151 1402 LINE",
"314 1402 LINE",
"314 54 LINE",
"151 54 LINE",
"151 0 LINE"
);
}
);
width = 1306;
}
);
note = E;
unicode = 0045;
},
{
glyphname = F;
lastChange = "2024-07-30 13:19:35 +0000";
layers = (
{
layerId = "1AFB1E35-9546-41E1-B92B-6969383A0DDD";
paths = (
{
closed = 1;
nodes = (
"688 0 LINE",
"688 205 LINE",
"538 237 LINE",
"538 581 LINE",
"1029 581 LINE",
"1029 849 LINE",
"538 849 LINE",
"538 1186 LINE",
"960 1186 LINE",
"967 1027 LINE",
"1230 1027 LINE",
"1230 1456 LINE",
"40 1456 LINE",
"40 1250 LINE",
"190 1218 LINE",
"190 237 LINE",
"40 205 LINE",
"40 0 LINE"
);
}
);
width = 1256;
},
{
layerId = "759DCBF5-126F-43AE-ABB8-3EC70824EECD";
paths = (
{
closed = 1;
nodes = (
"604 0 LINE",
"604 126 LINE",
"441 154 LINE",
"441 644 LINE",
"974 644 LINE",
"974 799 LINE",
"441 799 LINE",
"441 1303 LINE",
"996 1303 LINE",
"1018 1106 LINE",
"1176 1106 LINE",
"1176 1456 LINE",
"81 1456 LINE",
"81 1329 LINE",
"244 1301 LINE",
"244 154 LINE",
"81 126 LINE",
"81 0 LINE"
);
}
);
userData = {
assembly = "NPUSHB[ ]	/* 17 values pushed */
6 1 3 1 5 1 2 3 17 4 3 0 4 0 5 3 76 
MPPEM[ ]	/* MeasurePixelPerEm */
PUSHB[ ]	/* 1 value pushed */
12 
LT[ ]	/* LessThan */
IF[ ]	/* If */
NPUSHB[ ]	/* 31 values pushed */
0 2 3 4 3 2 114 0 4 0 5 0 4 5 103 0 3 3 1 95 0 1 1 31 77 0 0 0 32 0 78 
ELSE[ ]	/* Else */
NPUSHB[ ]	/* 32 values pushed */
0 2 3 4 3 2 4 128 0 4 0 5 0 4 5 103 0 3 3 1 95 0 1 1 31 77 0 0 0 32 0 78 
EIF[ ]	/* EndIf */
NPUSHB[ ]	/* 9 values pushed */
17 17 17 17 21 17 6 8 28 
CALL[ ]	/* CallFunction */";
};
width = 1256;
},
{
layerId = "CD48D813-7107-4EBE-8BC7-C661170EDB17";
paths = (
{
closed = 1;
nodes = (
"481 0 LINE",
"481 54 LINE",
"318 54 LINE",
"318 716 LINE",
"964 716 LINE",
"964 772 LINE",
"318 772 LINE",
"318 1402 LINE",
"1112 1402 LINE",
"1112 1163 LINE",
"1166 1163 LINE",
"1166 1456 LINE",
"101 1456 LINE",
"101 1402 LINE",
"264 1402 LINE",
"264 54 LINE",
"101 54 LINE",
"101 0 LINE"
);
}
);
width = 1256;
}
);
note = F;
unicode = 0046;
},
{
glyphname = G;
lastChange = "2024-07-30 13:21:44 +0000";
layers = (
{
layerId = "1AFB1E35-9546-41E1-B92B-6969383A0DDD";
paths = (
{
closed = 1;
nodes = (
"905 -21 OFFCURVE",
"1195 54 OFFCURVE",
"1310 130 QCURVE",
"1310 734 LINE",
"807 734 LINE",
"807 492 LINE",
"967 472 LINE",
"967 284 LINE",
"932 268 OFFCURVE",
"812 242 OFFCURVE",
"750 242 QCURVE SMOOTH",
"633 242 OFFCURVE",
"473 348 OFFCURVE",
"390 542 OFFCURVE",
"390 674 QCURVE SMOOTH",
"390 742 LINE SMOOTH",
"390 882 OFFCURVE",
"469 1094 OFFCURVE",
"627 1213 OFFCURVE",
"744 1213 QCURVE SMOOTH",
"820 1213 OFFCURVE",
"942 1167 OFFCURVE",
"975 1132 QCURVE",
"1027 947 LINE",
"1271 947 LINE",
"1271 1288 LINE",
"1160 1386 OFFCURVE",
"867 1477 OFFCURVE",
"722 1477 QCURVE SMOOTH",
"509 1477 OFFCURVE",
"209 1289 OFFCURVE",
"51 957 OFFCURVE",
"51 740 QCURVE SMOOTH",
"51 674 LINE SMOOTH",
"51 468 OFFCURVE",
"211 155 OFFCURVE",
"516 -21 OFFCURVE",
"736 -21 QCURVE SMOOTH"
);
}
);
width = 1346;
},
{
layerId = "759DCBF5-126F-43AE-ABB8-3EC70824EECD";
paths = (
{
closed = 1;
nodes = (
"928 -21 OFFCURVE",
"1163 77 OFFCURVE",
"1226 136 QCURVE",
"1226 700 LINE",
"750 700 LINE",
"750 555 LINE",
"1029 545 LINE",
"1029 203 LINE",
"976 175 OFFCURVE",
"838 140 OFFCURVE",
"738 140 QCURVE SMOOTH",
"591 140 OFFCURVE",
"385 283 OFFCURVE",
"278 542 OFFCURVE",
"278 716 QCURVE SMOOTH",
"278 742 LINE SMOOTH",
"278 914 OFFCURVE",
"394 1171 OFFCURVE",
"594 1315 OFFCURVE",
"719 1315 QCURVE SMOOTH",
"816 1315 OFFCURVE",
"958 1282 OFFCURVE",
"1007 1250 QCURVE",
"1028 1039 LINE",
"1190 1039 LINE",
"1190 1333 LINE",
"1106 1399 OFFCURVE",
"869 1477 OFFCURVE",
"699 1477 QCURVE SMOOTH",
"521 1477 OFFCURVE",
"241 1291 OFFCURVE",
"80 960 OFFCURVE",
"80 740 QCURVE SMOOTH",
"80 716 LINE SMOOTH",
"80 498 OFFCURVE",
"240 166 OFFCURVE",
"536 -21 OFFCURVE",
"738 -21 QCURVE SMOOTH"
);
}
);
userData = {
assembly = "NPUSHB[ ]	/* 73 values pushed */
12 1 3 1 30 1 4 5 35 1 0 4 3 76 0 2 3 6 3 2 6 128 0 6 0 5 4 6 5 103 0 3 3 1 97 0 1 1 37 77 0 4 4 0 97 7 1 0 0 38 0 78 1 0 34 33 32 31 28 26 19 17 14 13 10 8 0 37 1 37 8 8 22 
CALL[ ]	/* CallFunction */";
};
width = 1346;
},
{
layerId = "CD48D813-7107-4EBE-8BC7-C661170EDB17";
paths = (
{
closed = 1;
nodes = (
"910 -21 OFFCURVE",
"1142 56 OFFCURVE",
"1233 111 QCURVE",
"1233 620 LINE",
"864 620 LINE",
"864 565 LINE",
"1179 565 LINE",
"1179 141 LINE",
"1103 98 OFFCURVE",
"887 33 OFFCURVE",
"753 33 QCURVE SMOOTH",
"569 33 OFFCURVE",
"308 207 OFFCURVE",
"169 517 OFFCURVE",
"169 720 QCURVE SMOOTH",
"169 760 LINE SMOOTH",
"169 956 OFFCURVE",
"319 1254 OFFCURVE",
"577 1423 OFFCURVE",
"739 1423 QCURVE SMOOTH",
"885 1423 OFFCURVE",
"1070 1354 OFFCURVE",
"1144 1296 QCURVE",
"1144 1072 LINE",
"1198 1072 LINE",
"1198 1324 LINE",
"1108 1394 OFFCURVE",
"893 1477 OFFCURVE",
"739 1477 QCURVE SMOOTH",
"559 1477 OFFCURVE",
"277 1295 OFFCURVE",
"115 971 OFFCURVE",
"115 758 QCURVE SMOOTH",
"115 720 LINE SMOOTH",
"115 500 OFFCURVE",
"269 166 OFFCURVE",
"556 -21 OFFCURVE",
"755 -21 QCURVE SMOOTH"
);
}
);
width = 1346;
}
);
note = G;
unicode = 0047;
},
{
glyphname = H;
lastChange = "2024-07-30 13:22:51 +0000";
layers = (
{
layerId = "1AFB1E35-9546-41E1-B92B-6969383A0DDD";
paths = (
{
closed = 1;
nodes = (
"675 0 LINE",
"675 205 LINE",
"528 237 LINE",
"528 581 LINE",
"1046 581 LINE",
"1046 237 LINE",
"899 205 LINE",
"899 0 LINE",
"1537 0 LINE",
"1537 205 LINE",
"1389 237 LINE",
"1389 1218 LINE",
"1537 1250 LINE",
"1537 1456 LINE",
"899 1456 LINE",
"899 1250 LINE",
"1046 1218 LINE",
"1046 850 LINE",
"528 850 LINE",
"528 1218 LINE",
"675 1250 LINE",
"675 1456 LINE",
"37 1456 LINE",
"37 1250 LINE",
"184 1218 LINE",
"184 237 LINE",
"37 205 LINE",
"37 0 LINE"
);
}
);
width = 1578;
},
{
layerId = "759DCBF5-126F-43AE-ABB8-3EC70824EECD";
paths = (
{
closed = 1;
nodes = (
"604 0 LINE",
"604 126 LINE",
"441 154 LINE",
"441 643 LINE",
"1137 643 LINE",
"1137 154 LINE",
"974 126 LINE",
"974 0 LINE",
"1497 0 LINE",
"1497 126 LINE",
"1334 154 LINE",
"1334 1301 LINE",
"1497 1329 LINE",
"1497 1456 LINE",
"974 1456 LINE",
"974 1329 LINE",
"1137 1301 LINE",
"1137 798 LINE",
"441 798 LINE",
"441 1301 LINE",
"604 1329 LINE",
"604 1456 LINE",
"81 1456 LINE",
"81 1329 LINE",
"244 1301 LINE",
"244 154 LINE",
"81 126 LINE",
"81 0 LINE"
);
}
);
userData = {
assembly = "NPUSHB[ ]	/* 54 values pushed */
18 17 14 13 10 9 6 5 8 2 1 27 24 23 20 19 4 3 0 8 0 5 2 76 0 2 0 5 0 2 5 104 3 1 1 1 31 77 4 1 0 0 32 0 78 19 21 19 19 21 17 6 8 28 
CALL[ ]	/* CallFunction */";
};
width = 1578;
},
{
layerId = "CD48D813-7107-4EBE-8BC7-C661170EDB17";
paths = (
{
closed = 1;
nodes = (
"489 0 LINE",
"489 54 LINE",
"326 54 LINE",
"326 695 LINE",
"1256 695 LINE",
"1256 54 LINE",
"1093 54 LINE",
"1093 0 LINE",
"1473 0 LINE",
"1473 54 LINE",
"1310 54 LINE",
"1310 1402 LINE",
"1473 1402 LINE",
"1473 1456 LINE",
"1093 1456 LINE",
"1093 1402 LINE",
"1256 1402 LINE",
"1256 749 LINE",
"326 749 LINE",
"326 1402 LINE",
"489 1402 LINE",
"489 1456 LINE",
"109 1456 LINE",
"109 1402 LINE",
"272 1402 LINE",
"272 54 LINE",
"109 54 LINE",
"109 0 LINE"
);
}
);
width = 1578;
}
);
note = H;
unicode = 0048;
},
{
glyphname = I;
lastChange = "2024-07-30 13:23:52 +0000";
layers = (
{
layerId = "1AFB1E35-9546-41E1-B92B-6969383A0DDD";
paths = (
{
closed = 1;
nodes = (
"649 0 LINE",
"649 205 LINE",
"508 237 LINE",
"508 1218 LINE",
"649 1250 LINE",
"649 1456 LINE",
"40 1456 LINE",
"40 1250 LINE",
"181 1218 LINE",
"181 237 LINE",
"40 205 LINE",
"40 0 LINE"
);
}
);
width = 685;
},
{
layerId = "759DCBF5-126F-43AE-ABB8-3EC70824EECD";
paths = (
{
closed = 1;
nodes = (
"604 0 LINE",
"604 126 LINE",
"441 154 LINE",
"441 1301 LINE",
"604 1329 LINE",
"604 1456 LINE",
"81 1456 LINE",
"81 1329 LINE",
"244 1301 LINE",
"244 154 LINE",
"81 126 LINE",
"81 0 LINE"
);
}
);
userData = {
assembly = "NPUSHB[ ]	/* 29 values pushed */
11 10 9 6 5 4 3 0 8 0 1 1 76 0 1 1 31 77 0 0 0 32 0 78 21 17 2 8 24 
CALL[ ]	/* CallFunction */";
};
width = 685;
},
{
layerId = "CD48D813-7107-4EBE-8BC7-C661170EDB17";
paths = (
{
closed = 1;
nodes = (
"531 0 LINE",
"531 54 LINE",
"368 54 LINE",
"368 1402 LINE",
"531 1402 LINE",
"531 1456 LINE",
"151 1456 LINE",
"151 1402 LINE",
"314 1402 LINE",
"314 54 LINE",
"151 54 LINE",
"151 0 LINE"
);
}
);
width = 685;
}
);
note = I;
unicode = 0049;
},
{
glyphname = J;
lastChange = "2024-07-30 13:25:00 +0000";
layers = (
{
layerId = "1AFB1E35-9546-41E1-B92B-6969383A0DDD";
paths = (
{
closed = 1;
nodes = (
"695 -21 OFFCURVE",
"899 93 OFFCURVE",
"1006 305 OFFCURVE",
"1006 452 QCURVE SMOOTH",
"1006 1218 LINE",
"1149 1250 LINE",
"1149 1456 LINE",
"492 1456 LINE",
"492 1251 LINE",
"678 1218 LINE",
"678 452 LINE SMOOTH",
"678 380 OFFCURVE",
"628 291 OFFCURVE",
"550 251 OFFCURVE",
"507 251 QCURVE SMOOTH",
"434 251 OFFCURVE",
"337 348 OFFCURVE",
"328 489 QCURVE",
"21 489 LINE",
"19 483 LINE",
"25 310 OFFCURVE",
"155 87 OFFCURVE",
"389 -21 OFFCURVE",
"550 -21 QCURVE SMOOTH"
);
}
);
width = 1169;
},
{
layerId = "759DCBF5-126F-43AE-ABB8-3EC70824EECD";
paths = (
{
closed = 1;
nodes = (
"645 -21 OFFCURVE",
"838 87 OFFCURVE",
"937 283 OFFCURVE",
"937 413 QCURVE SMOOTH",
"937 1301 LINE",
"1100 1329 LINE",
"1100 1456 LINE",
"546 1456 LINE",
"546 1327 LINE",
"740 1301 LINE",
"740 413 LINE SMOOTH",
"740 332 OFFCURVE",
"689 207 OFFCURVE",
"583 136 OFFCURVE",
"500 136 QCURVE SMOOTH",
"382 136 OFFCURVE",
"255 274 OFFCURVE",
"251 421 QCURVE",
"62 421 LINE",
"60 415 LINE",
"66 269 OFFCURVE",
"185 75 OFFCURVE",
"382 -21 OFFCURVE",
"503 -21 QCURVE SMOOTH"
);
}
);
userData = {
assembly = "NPUSHB[ ]	/* 49 values pushed */
19 18 15 14 4 1 3 1 76 0 1 3 2 3 1 2 128 0 3 3 31 77 0 2 2 0 98 4 1 0 0 38 0 78 1 0 17 16 10 8 6 4 0 23 1 23 5 8 22 
CALL[ ]	/* CallFunction */";
};
width = 1169;
},
{
layerId = "CD48D813-7107-4EBE-8BC7-C661170EDB17";
paths = (
{
closed = 1;
nodes = (
"621 -21 OFFCURVE",
"806 88 OFFCURVE",
"910 287 OFFCURVE",
"910 422 QCURVE SMOOTH",
"910 1402 LINE",
"1073 1402 LINE",
"1073 1456 LINE",
"670 1456 LINE",
"670 1402 LINE",
"856 1402 LINE",
"856 422 LINE SMOOTH",
"856 303 OFFCURVE",
"764 128 OFFCURVE",
"603 33 OFFCURVE",
"501 33 QCURVE SMOOTH",
"318 33 OFFCURVE",
"124 223 OFFCURVE",
"124 401 QCURVE",
"78 401 LINE",
"76 395 LINE",
"73 259 OFFCURVE",
"175 74 OFFCURVE",
"368 -21 OFFCURVE",
"501 -21 QCURVE SMOOTH"
);
}
);
width = 1169;
}
);
note = J;
unicode = 004A;
},
{
glyphname = K;
lastChange = "2024-07-31 13:50:58 +0000";
layers = (
{
layerId = "1AFB1E35-9546-41E1-B92B-6969383A0DDD";
paths = (
{
closed = 1;
nodes = (
"634 0 LINE",
"634 205 LINE",
"506 237 LINE",
"506 406 LINE",
"685 595 LINE",
"943 216 LINE",
"941 216 LINE",
"806 205 LINE",
"806 0 LINE",
"1457 0 LINE",
"1457 205 LINE",
"1319 230 LINE",
"905 826 LINE",
"1281 1221 LINE",
"1408 1250 LINE",
"1408 1456 LINE",
"777 1456 LINE",
"777 1250 LINE",
"930 1239 LINE",
"929 1237 LINE",
"506 788 LINE",
"506 1218 LINE",
"634 1250 LINE",
"634 1456 LINE",
"40 1456 LINE",
"40 1250 LINE",
"180 1218 LINE",
"180 237 LINE",
"40 205 LINE",
"40 0 LINE"
);
}
);
width = 1501;
},
{
layerId = "759DCBF5-126F-43AE-ABB8-3EC70824EECD";
paths = (
{
closed = 1;
nodes = (
"604 0 LINE",
"604 126 LINE",
"441 154 LINE",
"441 436 LINE",
"669 684 LINE",
"1060 141 LINE",
"1061 140 LINE",
"941 126 LINE",
"941 0 LINE",
"1427 0 LINE",
"1427 126 LINE",
"1293 151 LINE",
"793 820 LINE",
"1238 1304 LINE",
"1375 1329 LINE",
"1375 1456 LINE",
"908 1456 LINE",
"908 1329 LINE",
"1017 1315 LINE",
"1013 1310 LINE",
"441 675 LINE",
"441 1301 LINE",
"604 1329 LINE",
"604 1456 LINE",
"81 1456 LINE",
"81 1329 LINE",
"244 1301 LINE",
"244 154 LINE",
"81 126 LINE",
"81 0 LINE"
);
}
);
userData = {
assembly = "NPUSHB[ ]	/* 42 values pushed */
28 25 23 22 21 20 17 16 15 14 11 10 9 8 6 5 2 17 0 2 1 76 3 1 2 2 31 77 1 1 0 0 32 0 78 23 21 24 19 4 8 26 
CALL[ ]	/* CallFunction */";
};
width = 1501;
},
{
layerId = "CD48D813-7107-4EBE-8BC7-C661170EDB17";
paths = (
{
closed = 1;
nodes = (
"491 0 LINE",
"491 54 LINE",
"328 54 LINE",
"328 411 LINE",
"651 775 LINE",
"1173 60 LINE",
"1170 54 LINE",
"1007 54 LINE",
"1007 0 LINE",
"1368 0 LINE",
"1368 54 LINE",
"1250 54 LINE",
"690 819 LINE",
"1207 1402 LINE",
"1322 1402 LINE",
"1322 1456 LINE",
"961 1456 LINE",
"961 1402 LINE",
"1129 1402 LINE",
"1131 1397 LINE",
"328 496 LINE",
"328 1402 LINE",
"491 1402 LINE",
"491 1456 LINE",
"111 1456 LINE",
"111 1402 LINE",
"274 1402 LINE",
"274 54 LINE",
"111 54 LINE",
"111 0 LINE"
);
}
);
width = 1501;
}
);
note = K;
unicode = 004B;
},
{
glyphname = L;
lastChange = "2024-07-30 13:25:58 +0000";
layers = (
{
layerId = "1AFB1E35-9546-41E1-B92B-6969383A0DDD";
paths = (
{
closed = 1;
nodes = (
"1174 0 LINE",
"1174 472 LINE",
"906 472 LINE",
"898 269 LINE",
"552 269 LINE",
"552 1218 LINE",
"736 1250 LINE",
"736 1456 LINE",
"50 1456 LINE",
"50 1250 LINE",
"201 1218 LINE",
"201 237 LINE",
"50 205 LINE",
"50 0 LINE"
);
}
);
width = 1210;
},
{
layerId = "759DCBF5-126F-43AE-ABB8-3EC70824EECD";
paths = (
{
closed = 1;
nodes = (
"1130 0 LINE",
"1130 381 LINE",
"979 381 LINE",
"956 151 LINE",
"441 151 LINE",
"441 1301 LINE",
"604 1329 LINE",
"604 1456 LINE",
"81 1456 LINE",
"81 1329 LINE",
"244 1301 LINE",
"244 154 LINE",
"81 126 LINE",
"81 0 LINE"
);
}
);
userData = {
assembly = "NPUSHB[ ]	/* 17 values pushed */
10 9 6 5 4 3 1 4 1 2 3 3 1 0 2 3 76 
MPPEM[ ]	/* MeasurePixelPerEm */
PUSHB[ ]	/* 1 value pushed */
10 
LT[ ]	/* LessThan */
IF[ ]	/* If */
NPUSHB[ ]	/* 24 values pushed */
4 1 3 1 2 2 3 114 0 1 1 31 77 0 2 2 0 96 0 0 0 32 0 78 
ELSE[ ]	/* Else */
NPUSHB[ ]	/* 25 values pushed */
4 1 3 1 2 1 3 2 128 0 1 1 31 77 0 2 2 0 96 0 0 0 32 0 78 
EIF[ ]	/* EndIf */
NPUSHB[ ]	/* 12 values pushed */
0 0 0 13 0 13 19 21 17 5 8 25 
CALL[ ]	/* CallFunction */";
};
width = 1210;
},
{
layerId = "CD48D813-7107-4EBE-8BC7-C661170EDB17";
paths = (
{
closed = 1;
nodes = (
"1086 0 LINE",
"1086 293 LINE",
"1032 293 LINE",
"1032 54 LINE",
"339 54 LINE",
"339 1402 LINE",
"502 1402 LINE",
"502 1456 LINE",
"121 1456 LINE",
"121 1402 LINE",
"284 1402 LINE",
"284 54 LINE",
"121 54 LINE",
"121 0 LINE"
);
}
);
width = 1210;
}
);
note = L;
unicode = 004C;
},
{
glyphname = M;
lastChange = "2024-07-30 13:27:38 +0000";
layers = (
{
layerId = "1AFB1E35-9546-41E1-B92B-6969383A0DDD";
paths = (
{
closed = 1;
nodes = (
"646 0 LINE",
"646 205 LINE",
"491 237 LINE",
"468 1099 LINE",
"474 1100 LINE",
"859 0 LINE",
"1113 0 LINE",
"1492 1113 LINE",
"1497 1112 LINE",
"1490 237 LINE",
"1345 205 LINE",
"1345 0 LINE",
"1945 0 LINE",
"1945 205 LINE",
"1806 237 LINE",
"1806 1218 LINE",
"1945 1250 LINE",
"1945 1456 LINE",
"1321 1456 LINE",
"1006 497 LINE",
"1001 497 LINE",
"677 1456 LINE",
"45 1456 LINE",
"45 1250 LINE",
"183 1218 LINE",
"183 237 LINE",
"45 205 LINE",
"45 0 LINE"
);
}
);
width = 1982;
},
{
layerId = "759DCBF5-126F-43AE-ABB8-3EC70824EECD";
paths = (
{
closed = 1;
nodes = (
"617 0 LINE",
"617 126 LINE",
"441 154 LINE",
"434 1185 LINE",
"439 1186 LINE",
"928 52 LINE",
"1059 52 LINE",
"1532 1188 LINE",
"1537 1187 LINE",
"1537 154 LINE",
"1365 126 LINE",
"1365 0 LINE",
"1888 0 LINE",
"1888 126 LINE",
"1725 154 LINE",
"1725 1301 LINE",
"1888 1329 LINE",
"1888 1456 LINE",
"1449 1456 LINE",
"995 351 LINE",
"989 351 LINE",
"520 1456 LINE",
"94 1456 LINE",
"94 1329 LINE",
"257 1301 LINE",
"257 154 LINE",
"94 126 LINE",
"94 0 LINE"
);
}
);
width = 1982;
},
{
layerId = "CD48D813-7107-4EBE-8BC7-C661170EDB17";
paths = (
{
closed = 1;
nodes = (
"523 0 LINE",
"523 54 LINE",
"360 54 LINE",
"360 1354 LINE",
"366 1356 LINE",
"961 0 LINE",
"1004 0 LINE",
"1602 1363 LINE",
"1608 1361 LINE",
"1608 54 LINE",
"1445 54 LINE",
"1445 0 LINE",
"1825 0 LINE",
"1825 54 LINE",
"1662 54 LINE",
"1662 1402 LINE",
"1825 1402 LINE",
"1825 1456 LINE",
"1583 1456 LINE",
"985 86 LINE",
"979 86 LINE",
"383 1456 LINE",
"143 1456 LINE",
"143 1402 LINE",
"306 1402 LINE",
"306 54 LINE",
"143 54 LINE",
"143 0 LINE"
);
}
);
width = 1982;
}
);
note = M;
unicode = 004D;
},
{
glyphname = N;
lastChange = "2024-07-30 13:28:32 +0000";
layers = (
{
layerId = "1AFB1E35-9546-41E1-B92B-6969383A0DDD";
paths = (
{
closed = 1;
nodes = (
"676 0 LINE",
"676 205 LINE",
"488 237 LINE",
"488 912 LINE",
"494 912 LINE",
"1074 0 LINE",
"1412 0 LINE",
"1412 1218 LINE",
"1559 1250 LINE",
"1559 1456 LINE",
"922 1456 LINE",
"922 1250 LINE",
"1109 1218 LINE",
"1109 524 LINE",
"1103 524 LINE",
"533 1456 LINE",
"39 1456 LINE",
"39 1250 LINE",
"185 1218 LINE",
"185 237 LINE",
"39 205 LINE",
"39 0 LINE"
);
}
);
width = 1592;
},
{
layerId = "759DCBF5-126F-43AE-ABB8-3EC70824EECD";
paths = (
{
closed = 1;
nodes = (
"606 0 LINE",
"606 126 LINE",
"427 154 LINE",
"427 1139 LINE",
"433 1141 LINE",
"1166 0 LINE",
"1346 0 LINE",
"1346 1301 LINE",
"1509 1329 LINE",
"1509 1456 LINE",
"986 1456 LINE",
"986 1329 LINE",
"1165 1301 LINE",
"1165 323 LINE",
"1159 321 LINE",
"445 1456 LINE",
"83 1456 LINE",
"83 1329 LINE",
"246 1301 LINE",
"246 154 LINE",
"83 126 LINE",
"83 0 LINE"
);
}
);
userData = {
assembly = "NPUSHB[ ]	/* 37 values pushed */
21 19 16 15 12 11 9 6 5 4 3 0 12 0 1 1 76 2 1 1 1 31 77 3 1 0 0 32 0 78 19 21 21 17 4 8 26 
CALL[ ]	/* CallFunction */";
};
width = 1592;
},
{
layerId = "CD48D813-7107-4EBE-8BC7-C661170EDB17";
paths = (
{
closed = 1;
nodes = (
"492 0 LINE",
"492 54 LINE",
"329 54 LINE",
"329 1354 LINE",
"335 1356 LINE",
"1269 0 LINE",
"1323 0 LINE",
"1323 1402 LINE",
"1486 1402 LINE",
"1486 1456 LINE",
"1106 1456 LINE",
"1106 1402 LINE",
"1269 1402 LINE",
"1269 105 LINE",
"1263 103 LINE",
"329 1456 LINE",
"111 1456 LINE",
"111 1402 LINE",
"274 1402 LINE",
"274 54 LINE",
"111 54 LINE",
"111 0 LINE"
);
}
);
width = 1592;
}
);
note = N;
unicode = 004E;
},
{
glyphname = O;
lastChange = "2024-07-30 13:29:30 +0000";
layers = (
{
layerId = "1AFB1E35-9546-41E1-B92B-6969383A0DDD";
paths = (
{
closed = 1;
nodes = (
"809 -21 OFFCURVE",
"1041 90 OFFCURVE",
"1215 290 OFFCURVE",
"1312 559 OFFCURVE",
"1312 717 QCURVE SMOOTH",
"1312 740 LINE SMOOTH",
"1312 897 OFFCURVE",
"1215 1165 OFFCURVE",
"1040 1365 OFFCURVE",
"808 1477 OFFCURVE",
"673 1477 QCURVE SMOOTH",
"535 1477 OFFCURVE",
"305 1365 OFFCURVE",
"136 1165 OFFCURVE",
"44 897 OFFCURVE",
"44 740 QCURVE SMOOTH",
"44 717 LINE SMOOTH",
"44 559 OFFCURVE",
"136 290 OFFCURVE",
"306 90 OFFCURVE",
"537 -21 OFFCURVE",
"675 -21 QCURVE SMOOTH"
);
},
{
closed = 1;
nodes = (
"569 245 OFFCURVE",
"431 362 OFFCURVE",
"365 575 OFFCURVE",
"365 717 QCURVE SMOOTH",
"365 742 LINE SMOOTH",
"365 884 OFFCURVE",
"430 1094 OFFCURVE",
"566 1210 OFFCURVE",
"673 1210 QCURVE SMOOTH",
"775 1210 OFFCURVE",
"917 1092 OFFCURVE",
"993 881 OFFCURVE",
"993 742 QCURVE SMOOTH",
"993 717 LINE SMOOTH",
"993 575 OFFCURVE",
"918 363 OFFCURVE",
"776 245 OFFCURVE",
"675 245 QCURVE SMOOTH"
);
}
);
width = 1351;
},
{
layerId = "759DCBF5-126F-43AE-ABB8-3EC70824EECD";
paths = (
{
closed = 1;
nodes = (
"824 -21 OFFCURVE",
"1050 87 OFFCURVE",
"1203 284 OFFCURVE",
"1281 554 OFFCURVE",
"1281 717 QCURVE SMOOTH",
"1281 738 LINE SMOOTH",
"1281 900 OFFCURVE",
"1203 1171 OFFCURVE",
"1050 1369 OFFCURVE",
"824 1477 OFFCURVE",
"675 1477 QCURVE SMOOTH",
"534 1477 OFFCURVE",
"310 1369 OFFCURVE",
"153 1171 OFFCURVE",
"70 900 OFFCURVE",
"70 738 QCURVE SMOOTH",
"70 717 LINE SMOOTH",
"70 554 OFFCURVE",
"153 284 OFFCURVE",
"310 87 OFFCURVE",
"534 -21 OFFCURVE",
"675 -21 QCURVE SMOOTH"
);
},
{
closed = 1;
nodes = (
"544 143 OFFCURVE",
"362 288 OFFCURVE",
"268 547 OFFCURVE",
"268 717 QCURVE SMOOTH",
"268 740 LINE SMOOTH",
"268 909 OFFCURVE",
"362 1166 OFFCURVE",
"544 1312 OFFCURVE",
"675 1312 QCURVE SMOOTH",
"818 1312 OFFCURVE",
"998 1167 OFFCURVE",
"1083 910 OFFCURVE",
"1083 740 QCURVE SMOOTH",
"1083 717 LINE SMOOTH",
"1083 546 OFFCURVE",
"999 287 OFFCURVE",
"820 143 OFFCURVE",
"675 143 QCURVE SMOOTH"
);
}
);
userData = {
assembly = "NPUSHB[ ]	/* 42 values pushed */
0 3 3 1 97 0 1 1 37 77 5 1 2 2 0 97 4 1 0 0 38 0 78 23 22 1 0 32 30 22 39 23 39 12 10 0 21 1 21 6 8 22 
CALL[ ]	/* CallFunction */";
};
width = 1351;
},
{
layerId = "CD48D813-7107-4EBE-8BC7-C661170EDB17";
paths = (
{
closed = 1;
nodes = (
"815 -21 OFFCURVE",
"1039 84 OFFCURVE",
"1200 278 OFFCURVE",
"1288 551 OFFCURVE",
"1288 719 QCURVE SMOOTH",
"1288 737 LINE SMOOTH",
"1288 905 OFFCURVE",
"1200 1177 OFFCURVE",
"1037 1372 OFFCURVE",
"813 1477 OFFCURVE",
"678 1477 QCURVE SMOOTH",
"542 1477 OFFCURVE",
"319 1372 OFFCURVE",
"157 1177 OFFCURVE",
"70 905 OFFCURVE",
"70 737 QCURVE SMOOTH",
"70 719 LINE SMOOTH",
"70 551 OFFCURVE",
"158 279 OFFCURVE",
"320 84 OFFCURVE",
"544 -21 OFFCURVE",
"680 -21 QCURVE SMOOTH"
);
},
{
closed = 1;
nodes = (
"511 33 OFFCURVE",
"262 203 OFFCURVE",
"125 512 OFFCURVE",
"125 719 QCURVE SMOOTH",
"125 739 LINE SMOOTH",
"125 945 OFFCURVE",
"262 1253 OFFCURVE",
"510 1423 OFFCURVE",
"678 1423 QCURVE SMOOTH",
"847 1423 OFFCURVE",
"1097 1253 OFFCURVE",
"1234 945 OFFCURVE",
"1234 739 QCURVE SMOOTH",
"1234 719 LINE SMOOTH",
"1234 512 OFFCURVE",
"1098 203 OFFCURVE",
"849 33 OFFCURVE",
"680 33 QCURVE SMOOTH"
);
}
);
width = 1351;
}
);
note = O;
unicode = 004F;
},
{
glyphname = P;
lastChange = "2024-07-30 13:30:16 +0000";
layers = (
{
layerId = "1AFB1E35-9546-41E1-B92B-6969383A0DDD";
paths = (
{
closed = 1;
nodes = (
"669 0 LINE",
"669 205 LINE",
"523 237 LINE",
"523 493 LINE",
"722 493 LINE SMOOTH",
"889 493 OFFCURVE",
"1136 613 OFFCURVE",
"1270 829 OFFCURVE",
"1270 973 QCURVE SMOOTH",
"1270 1117 OFFCURVE",
"1136 1334 OFFCURVE",
"889 1456 OFFCURVE",
"722 1456 QCURVE SMOOTH",
"185 1456 LINE",
"40 1456 LINE",
"40 1250 LINE",
"185 1218 LINE",
"185 237 LINE",
"40 205 LINE",
"40 0 LINE"
);
},
{
closed = 1;
nodes = (
"523 1188 LINE",
"722 1188 LINE SMOOTH",
"825 1188 OFFCURVE",
"932 1066 OFFCURVE",
"932 971 QCURVE SMOOTH",
"932 879 OFFCURVE",
"825 762 OFFCURVE",
"722 762 QCURVE SMOOTH",
"523 762 LINE"
);
}
);
width = 1297;
},
{
layerId = "759DCBF5-126F-43AE-ABB8-3EC70824EECD";
paths = (
{
closed = 1;
nodes = (
"604 0 LINE",
"604 126 LINE",
"441 154 LINE",
"441 584 LINE",
"750 584 LINE SMOOTH",
"906 584 OFFCURVE",
"1126 692 OFFCURVE",
"1242 888 OFFCURVE",
"1242 1020 QCURVE SMOOTH",
"1242 1151 OFFCURVE",
"1126 1347 OFFCURVE",
"906 1456 OFFCURVE",
"750 1456 QCURVE SMOOTH",
"244 1456 LINE",
"81 1456 LINE",
"81 1329 LINE",
"244 1301 LINE",
"244 154 LINE",
"81 126 LINE",
"81 0 LINE"
);
},
{
closed = 1;
nodes = (
"441 1301 LINE",
"750 1301 LINE SMOOTH",
"898 1301 OFFCURVE",
"1045 1139 OFFCURVE",
"1045 1018 QCURVE SMOOTH",
"1045 897 OFFCURVE",
"898 738 OFFCURVE",
"750 738 QCURVE SMOOTH",
"441 738 LINE"
);
}
);
userData = {
assembly = "NPUSHB[ ]	/* 56 values pushed */
5 1 4 1 19 18 3 2 4 0 2 2 76 4 1 4 1 75 0 3 0 2 0 3 2 103 5 1 4 4 1 95 0 1 1 31 77 0 0 0 32 0 78 20 20 20 28 20 27 36 38 53 16 6 8 26 
CALL[ ]	/* CallFunction */";
};
width = 1297;
},
{
layerId = "CD48D813-7107-4EBE-8BC7-C661170EDB17";
paths = (
{
closed = 1;
nodes = (
"521 0 LINE",
"521 54 LINE",
"358 54 LINE",
"358 625 LINE",
"709 625 LINE SMOOTH",
"860 625 OFFCURVE",
"1070 727 OFFCURVE",
"1179 914 OFFCURVE",
"1179 1041 QCURVE SMOOTH",
"1179 1166 OFFCURVE",
"1070 1353 OFFCURVE",
"860 1456 OFFCURVE",
"709 1456 QCURVE SMOOTH",
"304 1456 LINE",
"141 1456 LINE",
"141 1402 LINE",
"304 1402 LINE",
"304 54 LINE",
"141 54 LINE",
"141 0 LINE"
);
},
{
closed = 1;
nodes = (
"358 1402 LINE",
"709 1402 LINE SMOOTH",
"917 1402 OFFCURVE",
"1125 1197 OFFCURVE",
"1125 1039 QCURVE SMOOTH",
"1125 885 OFFCURVE",
"916 679 OFFCURVE",
"709 679 QCURVE SMOOTH",
"358 679 LINE"
);
}
);
width = 1297;
}
);
note = P;
unicode = 0050;
},
{
glyphname = Q;
lastChange = "2024-07-30 13:31:19 +0000";
layers = (
{
layerId = "1AFB1E35-9546-41E1-B92B-6969383A0DDD";
paths = (
{
closed = 1;
nodes = (
"1372 -67 LINE",
"1076 120 LINE",
"1186 219 OFFCURVE",
"1337 532 OFFCURVE",
"1337 717 QCURVE SMOOTH",
"1337 740 LINE SMOOTH",
"1337 897 OFFCURVE",
"1239 1166 OFFCURVE",
"1063 1366 OFFCURVE",
"829 1477 OFFCURVE",
"692 1477 QCURVE SMOOTH",
"553 1477 OFFCURVE",
"320 1366 OFFCURVE",
"149 1166 OFFCURVE",
"56 897 OFFCURVE",
"56 740 QCURVE SMOOTH",
"56 717 LINE SMOOTH",
"56 558 OFFCURVE",
"149 289 OFFCURVE",
"320 90 OFFCURVE",
"554 -21 OFFCURVE",
"694 -21 QCURVE SMOOTH",
"721 -21 OFFCURVE",
"778 -16 OFFCURVE",
"808 -13 QCURVE",
"1221 -303 LINE"
);
},
{
closed = 1;
nodes = (
"588 245 OFFCURVE",
"448 362 OFFCURVE",
"380 575 OFFCURVE",
"380 717 QCURVE SMOOTH",
"380 742 LINE SMOOTH",
"380 884 OFFCURVE",
"445 1094 OFFCURVE",
"584 1210 OFFCURVE",
"692 1210 QCURVE SMOOTH",
"795 1210 OFFCURVE",
"939 1092 OFFCURVE",
"1015 881 OFFCURVE",
"1015 742 QCURVE SMOOTH",
"1015 717 LINE SMOOTH",
"1015 575 OFFCURVE",
"941 363 OFFCURVE",
"798 245 OFFCURVE",
"694 245 QCURVE SMOOTH"
);
}
);
width = 1376;
},
{
layerId = "759DCBF5-126F-43AE-ABB8-3EC70824EECD";
paths = (
{
closed = 1;
nodes = (
"1348 -98 LINE",
"1056 105 LINE",
"1185 203 OFFCURVE",
"1279 520 OFFCURVE",
"1279 717 QCURVE SMOOTH",
"1279 738 LINE SMOOTH",
"1279 900 OFFCURVE",
"1201 1170 OFFCURVE",
"1048 1369 OFFCURVE",
"822 1477 OFFCURVE",
"674 1477 QCURVE SMOOTH",
"533 1477 OFFCURVE",
"309 1369 OFFCURVE",
"153 1170 OFFCURVE",
"70 900 OFFCURVE",
"70 738 QCURVE SMOOTH",
"70 717 LINE SMOOTH",
"70 555 OFFCURVE",
"153 285 OFFCURVE",
"310 87 OFFCURVE",
"534 -21 OFFCURVE",
"674 -21 QCURVE SMOOTH",
"729 -21 OFFCURVE",
"835 -3 OFFCURVE",
"885 13 QCURVE",
"1237 -245 LINE"
);
},
{
closed = 1;
nodes = (
"542 143 OFFCURVE",
"360 288 OFFCURVE",
"267 547 OFFCURVE",
"267 717 QCURVE SMOOTH",
"267 740 LINE SMOOTH",
"267 909 OFFCURVE",
"362 1166 OFFCURVE",
"544 1312 OFFCURVE",
"674 1312 QCURVE SMOOTH",
"817 1312 OFFCURVE",
"997 1167 OFFCURVE",
"1082 910 OFFCURVE",
"1082 740 QCURVE SMOOTH",
"1082 717 LINE SMOOTH",
"1082 546 OFFCURVE",
"995 287 OFFCURVE",
"815 143 OFFCURVE",
"674 143 QCURVE SMOOTH"
);
}
);
userData = {
assembly = "NPUSHB[ ]	/* 46 values pushed */
25 2 2 0 2 1 76 1 1 0 73 0 3 3 1 97 0 1 1 37 77 4 1 2 2 0 97 0 0 0 38 0 78 27 26 36 34 26 43 27 43 41 36 5 8 24 
CALL[ ]	/* CallFunction */";
};
width = 1376;
},
{
layerId = "CD48D813-7107-4EBE-8BC7-C661170EDB17";
paths = (
{
closed = 1;
nodes = (
"1303 -165 LINE",
"993 56 LINE",
"1141 142 OFFCURVE",
"1308 487 OFFCURVE",
"1308 719 QCURVE SMOOTH",
"1308 737 LINE SMOOTH",
"1308 905 OFFCURVE",
"1220 1177 OFFCURVE",
"1057 1372 OFFCURVE",
"833 1477 OFFCURVE",
"698 1477 QCURVE SMOOTH",
"562 1477 OFFCURVE",
"339 1372 OFFCURVE",
"177 1177 OFFCURVE",
"90 905 OFFCURVE",
"90 737 QCURVE SMOOTH",
"90 719 LINE SMOOTH",
"90 551 OFFCURVE",
"178 279 OFFCURVE",
"340 84 OFFCURVE",
"564 -21 OFFCURVE",
"700 -21 QCURVE SMOOTH",
"764 -21 OFFCURVE",
"884 3 OFFCURVE",
"939 28 QCURVE",
"1268 -206 LINE"
);
},
{
closed = 1;
nodes = (
"531 33 OFFCURVE",
"282 203 OFFCURVE",
"145 512 OFFCURVE",
"145 719 QCURVE SMOOTH",
"145 739 LINE SMOOTH",
"145 945 OFFCURVE",
"282 1253 OFFCURVE",
"530 1423 OFFCURVE",
"698 1423 QCURVE SMOOTH",
"867 1423 OFFCURVE",
"1117 1253 OFFCURVE",
"1254 945 OFFCURVE",
"1254 739 QCURVE SMOOTH",
"1254 719 LINE SMOOTH",
"1254 512 OFFCURVE",
"1118 203 OFFCURVE",
"869 33 OFFCURVE",
"700 33 QCURVE SMOOTH"
);
}
);
width = 1376;
}
);
note = Q;
unicode = 0051;
},
{
glyphname = R;
lastChange = "2024-07-30 13:32:14 +0000";
layers = (
{
layerId = "1AFB1E35-9546-41E1-B92B-6969383A0DDD";
paths = (
{
closed = 1;
nodes = (
"674 0 LINE",
"674 205 LINE",
"527 237 LINE",
"527 528 LINE",
"763 525 LINE SMOOTH",
"914 524 OFFCURVE",
"1149 657 OFFCURVE",
"1284 877 OFFCURVE",
"1284 1005 QCURVE SMOOTH",
"1284 1144 OFFCURVE",
"1150 1347 OFFCURVE",
"903 1457 OFFCURVE",
"735 1457 QCURVE SMOOTH",
"40 1457 LINE",
"40 1250 LINE",
"187 1218 LINE",
"187 237 LINE",
"40 205 LINE",
"40 0 LINE"
);
},
{
closed = 1;
nodes = (
"1347 0 LINE",
"1347 204 LINE",
"1213 239 LINE",
"1041 672 LINE",
"745 568 LINE",
"935 0 LINE"
);
},
{
closed = 1;
nodes = (
"527 1188 LINE",
"735 1188 LINE SMOOTH",
"836 1188 OFFCURVE",
"945 1075 OFFCURVE",
"945 982 QCURVE SMOOTH",
"945 892 OFFCURVE",
"838 797 OFFCURVE",
"739 797 QCURVE SMOOTH",
"527 797 LINE"
);
}
);
width = 1385;
},
{
layerId = "759DCBF5-126F-43AE-ABB8-3EC70824EECD";
paths = (
{
closed = 1;
nodes = (
"604 0 LINE",
"604 126 LINE",
"441 154 LINE",
"441 650 LINE",
"767 656 LINE SMOOTH",
"907 659 OFFCURVE",
"1111 748 OFFCURVE",
"1222 922 OFFCURVE",
"1222 1050 QCURVE SMOOTH",
"1222 1180 OFFCURVE",
"1108 1360 OFFCURVE",
"889 1455 OFFCURVE",
"730 1455 QCURVE SMOOTH",
"81 1455 LINE",
"81 1329 LINE",
"244 1301 LINE",
"244 154 LINE",
"81 126 LINE",
"81 0 LINE"
);
},
{
closed = 1;
nodes = (
"1285 0 LINE",
"1285 129 LINE",
"1184 147 LINE",
"915 729 LINE",
"718 727 LINE",
"1042 0 LINE"
);
},
{
closed = 1;
nodes = (
"441 1301 LINE",
"730 1301 LINE SMOOTH",
"881 1301 OFFCURVE",
"1025 1167 OFFCURVE",
"1025 1052 QCURVE SMOOTH",
"1025 931 OFFCURVE",
"875 805 OFFCURVE",
"710 805 QCURVE SMOOTH",
"441 805 LINE"
);
}
);
userData = {
assembly = "NPUSHB[ ]	/* 19 values pushed */
5 1 4 1 28 18 17 3 2 5 0 2 2 76 4 1 4 1 75 
MPPEM[ ]	/* MeasurePixelPerEm */
PUSHB[ ]	/* 1 value pushed */
33 
LT[ ]	/* LessThan */
IF[ ]	/* If */
NPUSHB[ ]	/* 33 values pushed */
0 6 3 2 3 6 114 0 3 0 2 0 3 2 103 7 1 4 4 1 95 0 1 1 31 77 5 1 0 0 32 0 78 
ELSE[ ]	/* Else */
NPUSHB[ ]	/* 34 values pushed */
0 6 3 2 3 6 2 128 0 3 0 2 0 3 2 103 7 1 4 4 1 95 0 1 1 31 77 5 1 0 0 32 0 78 
EIF[ ]	/* EndIf */
NPUSHB[ ]	/* 17 values pushed */
19 19 32 31 30 29 19 27 19 26 36 38 37 16 8 8 26 
CALL[ ]	/* CallFunction */";
};
width = 1385;
},
{
layerId = "CD48D813-7107-4EBE-8BC7-C661170EDB17";
paths = (
{
closed = 1;
nodes = (
"491 -1 LINE",
"491 53 LINE",
"328 53 LINE",
"328 683 LINE",
"692 683 LINE SMOOTH",
"836 683 OFFCURVE",
"1053 772 OFFCURVE",
"1174 943 OFFCURVE",
"1174 1065 QCURVE SMOOTH",
"1174 1193 OFFCURVE",
"1063 1366 OFFCURVE",
"850 1455 OFFCURVE",
"696 1455 QCURVE SMOOTH",
"111 1455 LINE",
"111 1401 LINE",
"274 1401 LINE",
"274 53 LINE",
"111 53 LINE",
"111 -1 LINE"
);
},
{
closed = 1;
nodes = (
"1276 -1 LINE",
"1276 53 LINE",
"1143 53 LINE",
"856 718 LINE",
"802 718 LINE",
"1107 -1 LINE"
);
},
{
closed = 1;
nodes = (
"328 1401 LINE",
"696 1401 LINE SMOOTH",
"907 1401 OFFCURVE",
"1120 1228 OFFCURVE",
"1120 1065 QCURVE SMOOTH",
"1120 925 OFFCURVE",
"912 737 OFFCURVE",
"691 737 QCURVE SMOOTH",
"328 737 LINE"
);
}
);
width = 1385;
}
);
note = R;
unicode = 0052;
},
{
glyphname = S;
lastChange = "2024-07-30 13:33:26 +0000";
layers = (
{
layerId = "1AFB1E35-9546-41E1-B92B-6969383A0DDD";
paths = (
{
closed = 1;
nodes = (
"789 -21 OFFCURVE",
"1032 74 OFFCURVE",
"1167 255 OFFCURVE",
"1167 384 QCURVE SMOOTH",
"1167 572 OFFCURVE",
"918 791 OFFCURVE",
"678 864 QCURVE",
"577 904 OFFCURVE",
"465 965 OFFCURVE",
"420 1026 OFFCURVE",
"420 1065 QCURVE SMOOTH",
"420 1113 OFFCURVE",
"474 1177 OFFCURVE",
"566 1209 OFFCURVE",
"625 1209 QCURVE SMOOTH",
"694 1209 OFFCURVE",
"816 1181 OFFCURVE",
"849 1164 QCURVE",
"888 969 LINE",
"1140 969 LINE",
"1140 1320 LINE",
"1039 1400 OFFCURVE",
"773 1479 OFFCURVE",
"601 1475 QCURVE SMOOTH",
"449 1472 OFFCURVE",
"215 1368 OFFCURVE",
"81 1187 OFFCURVE",
"81 1066 QCURVE SMOOTH",
"81 940 OFFCURVE",
"195 770 OFFCURVE",
"427 646 OFFCURVE",
"608 586 QCURVE",
"689 554 OFFCURVE",
"784 493 OFFCURVE",
"825 425 OFFCURVE",
"825 382 QCURVE SMOOTH",
"825 337 OFFCURVE",
"781 273 OFFCURVE",
"694 240 OFFCURVE",
"629 240 QCURVE SMOOTH",
"536 240 OFFCURVE",
"379 289 OFFCURVE",
"348 325 QCURVE",
"319 519 LINE",
"56 519 LINE",
"56 141 LINE",
"189 47 OFFCURVE",
"456 -21 OFFCURVE",
"629 -21 QCURVE SMOOTH"
);
}
);
width = 1206;
},
{
layerId = "759DCBF5-126F-43AE-ABB8-3EC70824EECD";
paths = (
{
closed = 1;
nodes = (
"761 -21 OFFCURVE",
"990 81 OFFCURVE",
"1116 262 OFFCURVE",
"1116 379 QCURVE SMOOTH",
"1116 543 OFFCURVE",
"879 766 OFFCURVE",
"649 823 QCURVE SMOOTH",
"526 854 OFFCURVE",
"379 925 OFFCURVE",
"314 1019 OFFCURVE",
"314 1082 QCURVE SMOOTH",
"314 1154 OFFCURVE",
"386 1260 OFFCURVE",
"514 1319 OFFCURVE",
"598 1319 QCURVE SMOOTH",
"697 1319 OFFCURVE",
"831 1271 OFFCURVE",
"876 1235 QCURVE",
"909 1027 LINE",
"1062 1027 LINE",
"1062 1318 LINE",
"986 1384 OFFCURVE",
"751 1477 OFFCURVE",
"598 1477 QCURVE SMOOTH",
"454 1477 OFFCURVE",
"238 1373 OFFCURVE",
"117 1193 OFFCURVE",
"117 1079 QCURVE SMOOTH",
"117 971 OFFCURVE",
"224 804 OFFCURVE",
"431 687 OFFCURVE",
"581 652 QCURVE SMOOTH",
"708 623 OFFCURVE",
"855 546 OFFCURVE",
"919 444 OFFCURVE",
"919 377 QCURVE SMOOTH",
"919 305 OFFCURVE",
"845 197 OFFCURVE",
"706 136 OFFCURVE",
"606 136 QCURVE SMOOTH",
"518 136 OFFCURVE",
"366 180 OFFCURVE",
"301 220 QCURVE",
"268 449 LINE",
"115 449 LINE",
"115 138 LINE",
"227 57 OFFCURVE",
"473 -21 OFFCURVE",
"606 -21 QCURVE SMOOTH"
);
}
);
userData = {
assembly = "NPUSHB[ ]	/* 66 values pushed */
28 1 4 5 3 1 2 1 2 76 0 4 5 1 5 4 1 128 0 1 2 5 1 2 126 0 5 5 3 97 0 3 3 37 77 0 2 2 0 97 6 1 0 0 38 0 78 1 0 35 33 30 29 26 24 10 8 5 4 0 48 1 48 7 8 22 
CALL[ ]	/* CallFunction */";
};
width = 1206;
},
{
layerId = "CD48D813-7107-4EBE-8BC7-C661170EDB17";
paths = (
{
closed = 1;
nodes = (
"751 -21 OFFCURVE",
"974 69 OFFCURVE",
"1103 236 OFFCURVE",
"1103 351 QCURVE SMOOTH",
"1103 523 OFFCURVE",
"856 716 OFFCURVE",
"614 781 QCURVE SMOOTH",
"448 826 OFFCURVE",
"272 924 OFFCURVE",
"206 1049 OFFCURVE",
"206 1131 QCURVE SMOOTH",
"206 1209 OFFCURVE",
"298 1342 OFFCURVE",
"475 1423 OFFCURVE",
"602 1423 QCURVE SMOOTH",
"719 1423 OFFCURVE",
"923 1357 OFFCURVE",
"1001 1292 QCURVE",
"1001 1088 LINE",
"1055 1088 LINE",
"1055 1322 LINE",
"970 1393 OFFCURVE",
"743 1477 OFFCURVE",
"602 1477 QCURVE SMOOTH",
"467 1477 OFFCURVE",
"264 1389 OFFCURVE",
"152 1233 OFFCURVE",
"152 1129 QCURVE SMOOTH",
"152 1023 OFFCURVE",
"237 879 OFFCURVE",
"433 775 OFFCURVE",
"599 729 QCURVE SMOOTH",
"765 683 OFFCURVE",
"961 577 OFFCURVE",
"1048 441 OFFCURVE",
"1048 349 QCURVE SMOOTH",
"1048 256 OFFCURVE",
"935 113 OFFCURVE",
"737 33 OFFCURVE",
"609 33 QCURVE SMOOTH",
"504 33 OFFCURVE",
"282 96 OFFCURVE",
"174 164 QCURVE",
"174 390 LINE",
"120 390 LINE",
"120 133 LINE",
"239 53 OFFCURVE",
"492 -21 OFFCURVE",
"609 -21 QCURVE SMOOTH"
);
}
);
width = 1206;
}
);
note = S;
unicode = 0053;
},
{
glyphname = T;
lastChange = "2024-07-30 13:34:09 +0000";
layers = (
{
layerId = "1AFB1E35-9546-41E1-B92B-6969383A0DDD";
paths = (
{
closed = 1;
nodes = (
"1026 0 LINE",
"1026 205 LINE",
"874 237 LINE",
"874 1184 LINE",
"1101 1184 LINE",
"1109 1027 LINE",
"1377 1027 LINE",
"1377 1456 LINE",
"24 1456 LINE",
"24 1027 LINE",
"289 1027 LINE",
"298 1184 LINE",
"523 1184 LINE",
"523 237 LINE",
"371 205 LINE",
"371 0 LINE"
);
}
);
width = 1406;
},
{
layerId = "759DCBF5-126F-43AE-ABB8-3EC70824EECD";
paths = (
{
closed = 1;
nodes = (
"963 0 LINE",
"963 126 LINE",
"800 154 LINE",
"800 1307 LINE",
"1130 1307 LINE",
"1160 1105 LINE",
"1306 1105 LINE",
"1306 1456 LINE",
"96 1456 LINE",
"96 1105 LINE",
"244 1105 LINE",
"273 1307 LINE",
"603 1307 LINE",
"603 154 LINE",
"440 126 LINE",
"440 0 LINE"
);
}
);
userData = {
assembly = "NPUSHB[ ]	/* 9 values pushed */
15 4 3 0 4 0 2 1 76 
MPPEM[ ]	/* MeasurePixelPerEm */
PUSHB[ ]	/* 1 value pushed */
12 
LT[ ]	/* LessThan */
IF[ ]	/* If */
NPUSHB[ ]	/* 25 values pushed */
4 1 2 1 0 1 2 114 5 1 1 1 3 95 0 3 3 31 77 0 0 0 32 0 78 
ELSE[ ]	/* Else */
NPUSHB[ ]	/* 26 values pushed */
4 1 2 1 0 1 2 0 128 5 1 1 1 3 95 0 3 3 31 77 0 0 0 32 0 78 
EIF[ ]	/* EndIf */
NPUSHB[ ]	/* 9 values pushed */
17 17 17 17 19 17 6 8 28 
CALL[ ]	/* CallFunction */";
};
width = 1406;
},
{
layerId = "CD48D813-7107-4EBE-8BC7-C661170EDB17";
paths = (
{
closed = 1;
nodes = (
"897 0 LINE",
"897 54 LINE",
"734 54 LINE",
"734 1402 LINE",
"1210 1402 LINE",
"1210 1163 LINE",
"1264 1163 LINE",
"1264 1456 LINE",
"150 1456 LINE",
"150 1163 LINE",
"204 1163 LINE",
"204 1402 LINE",
"680 1402 LINE",
"680 54 LINE",
"517 54 LINE",
"517 0 LINE"
);
}
);
width = 1406;
}
);
note = T;
unicode = 0054;
},
{
glyphname = U;
lastChange = "2024-07-30 13:34:57 +0000";
layers = (
{
layerId = "1AFB1E35-9546-41E1-B92B-6969383A0DDD";
paths = (
{
closed = 1;
nodes = (
"940 -21 OFFCURVE",
"1208 102 OFFCURVE",
"1359 337 OFFCURVE",
"1359 503 QCURVE SMOOTH",
"1359 1218 LINE",
"1504 1250 LINE",
"1504 1456 LINE",
"875 1456 LINE",
"875 1250 LINE",
"1020 1218 LINE",
"1020 503 LINE SMOOTH",
"1020 415 OFFCURVE",
"961 300 OFFCURVE",
"846 244 OFFCURVE",
"761 244 QCURVE SMOOTH",
"679 244 OFFCURVE",
"564 300 OFFCURVE",
"504 415 OFFCURVE",
"504 503 QCURVE SMOOTH",
"504 1218 LINE",
"650 1250 LINE",
"650 1456 LINE",
"20 1456 LINE",
"20 1250 LINE",
"165 1218 LINE",
"165 503 LINE SMOOTH",
"165 334 OFFCURVE",
"312 100 OFFCURVE",
"581 -21 OFFCURVE",
"763 -21 QCURVE SMOOTH"
);
}
);
width = 1522;
},
{
layerId = "759DCBF5-126F-43AE-ABB8-3EC70824EECD";
paths = (
{
closed = 1;
nodes = (
"916 -21 OFFCURVE",
"1156 92 OFFCURVE",
"1289 311 OFFCURVE",
"1289 469 QCURVE SMOOTH",
"1289 1301 LINE",
"1452 1329 LINE",
"1452 1456 LINE",
"929 1456 LINE",
"929 1329 LINE",
"1092 1301 LINE",
"1092 469 LINE SMOOTH",
"1092 359 OFFCURVE",
"1007 211 OFFCURVE",
"856 137 OFFCURVE",
"758 137 QCURVE SMOOTH",
"661 137 OFFCURVE",
"513 212 OFFCURVE",
"430 360 OFFCURVE",
"430 469 QCURVE SMOOTH",
"430 1301 LINE",
"593 1329 LINE",
"593 1456 LINE",
"70 1456 LINE",
"70 1329 LINE",
"233 1301 LINE",
"233 469 LINE SMOOTH",
"233 316 OFFCURVE",
"369 97 OFFCURVE",
"605 -21 OFFCURVE",
"755 -21 QCURVE SMOOTH"
);
}
);
userData = {
assembly = "NPUSHB[ ]	/* 46 values pushed */
25 24 21 20 10 9 6 5 8 2 1 1 76 3 1 1 1 31 77 0 2 2 0 97 4 1 0 0 38 0 78 1 0 23 22 16 14 8 7 0 29 1 29 5 8 22 
CALL[ ]	/* CallFunction */";
};
width = 1522;
},
{
layerId = "CD48D813-7107-4EBE-8BC7-C661170EDB17";
paths = (
{
closed = 1;
nodes = (
"908 -21 OFFCURVE",
"1132 92 OFFCURVE",
"1258 310 OFFCURVE",
"1258 469 QCURVE SMOOTH",
"1258 1402 LINE",
"1421 1402 LINE",
"1421 1456 LINE",
"1041 1456 LINE",
"1041 1402 LINE",
"1204 1402 LINE",
"1204 469 LINE SMOOTH",
"1204 332 OFFCURVE",
"1091 137 OFFCURVE",
"891 33 OFFCURVE",
"761 33 QCURVE SMOOTH",
"630 33 OFFCURVE",
"430 137 OFFCURVE",
"317 332 OFFCURVE",
"317 469 QCURVE SMOOTH",
"317 1402 LINE",
"480 1402 LINE",
"480 1456 LINE",
"100 1456 LINE",
"100 1402 LINE",
"263 1402 LINE",
"263 469 LINE SMOOTH",
"263 311 OFFCURVE",
"388 92 OFFCURVE",
"612 -21 OFFCURVE",
"761 -21 QCURVE SMOOTH"
);
}
);
width = 1522;
}
);
note = U;
unicode = 0055;
},
{
glyphname = V;
lastChange = "2024-07-30 13:36:32 +0000";
layers = (
{
layerId = "1AFB1E35-9546-41E1-B92B-6969383A0DDD";
paths = (
{
closed = 1;
nodes = (
"962 0 LINE",
"1360 1234 LINE",
"1499 1250 LINE",
"1499 1456 LINE",
"903 1456 LINE",
"903 1250 LINE",
"1055 1230 LINE",
"808 409 LINE",
"795 355 LINE",
"789 355 LINE",
"776 412 LINE",
"521 1230 LINE",
"648 1250 LINE",
"648 1456 LINE",
"9 1456 LINE",
"9 1250 LINE",
"144 1234 LINE",
"590 0 LINE"
);
}
);
width = 1508;
},
{
layerId = "759DCBF5-126F-43AE-ABB8-3EC70824EECD";
paths = (
{
closed = 1;
nodes = (
"838 0 LINE",
"1326 1313 LINE",
"1443 1329 LINE",
"1443 1456 LINE",
"984 1456 LINE",
"984 1329 LINE",
"1132 1309 LINE",
"794 382 LINE",
"758 267 LINE",
"752 267 LINE",
"718 382 LINE",
"392 1308 LINE",
"525 1329 LINE",
"525 1456 LINE",
"65 1456 LINE",
"65 1329 LINE",
"181 1313 LINE",
"669 0 LINE"
);
}
);
userData = {
assembly = "NPUSHB[ ]	/* 30 values pushed */
17 14 13 10 8 7 4 7 0 1 1 76 2 1 1 1 31 77 0 0 0 32 0 78 25 19 17 3 8 25 
CALL[ ]	/* CallFunction */";
};
width = 1508;
},
{
layerId = "CD48D813-7107-4EBE-8BC7-C661170EDB17";
paths = (
{
closed = 1;
nodes = (
"787 0 LINE",
"1311 1402 LINE",
"1418 1402 LINE",
"1418 1456 LINE",
"1099 1456 LINE",
"1099 1402 LINE",
"1252 1402 LINE",
"783 142 LINE",
"757 63 LINE",
"751 63 LINE",
"725 142 LINE",
"256 1402 LINE",
"409 1402 LINE",
"409 1456 LINE",
"90 1456 LINE",
"90 1402 LINE",
"197 1402 LINE",
"721 0 LINE"
);
}
);
width = 1508;
}
);
note = V;
unicode = 0056;
},
{
glyphname = W;
lastChange = "2024-07-31 13:53:02 +0000";
layers = (
{
layerId = "1AFB1E35-9546-41E1-B92B-6969383A0DDD";
paths = (
{
closed = 1;
nodes = (
"795 0 LINE",
"1038 747 LINE",
"1075 857 LINE",
"1081 857 LINE",
"1110 753 LINE",
"1349 0 LINE",
"1647 0 LINE",
"1981 1235 LINE",
"2128 1250 LINE",
"2128 1456 LINE",
"1516 1456 LINE",
"1516 1250 LINE",
"1675 1227 LINE",
"1513 536 LINE",
"1497 473 LINE",
"1491 473 LINE",
"1471 536 LINE",
"1185 1456 LINE",
"955 1456 LINE",
"684 577 LINE",
"661 482 LINE",
"655 482 LINE",
"633 576 LINE",
"482 1227 LINE",
"636 1250 LINE",
"636 1456 LINE",
"11 1456 LINE",
"11 1250 LINE",
"168 1235 LINE",
"488 0 LINE"
);
}
);
width = 2129;
},
{
layerId = "759DCBF5-126F-43AE-ABB8-3EC70824EECD";
paths = (
{
closed = 1;
nodes = (
"711 0 LINE",
"1028 1008 LINE",
"1067 1155 LINE",
"1073 1155 LINE",
"1113 1008 LINE",
"1429 0 LINE",
"1616 0 LINE",
"1942 1314 LINE",
"2057 1329 LINE",
"2057 1456 LINE",
"1593 1456 LINE",
"1593 1329 LINE",
"1756 1306 LINE",
"1568 504 LINE",
"1516 306 LINE",
"1510 306 LINE",
"1453 504 LINE",
"1157 1456 LINE",
"984 1456 LINE",
"691 504 LINE",
"633 317 LINE",
"627 318 LINE",
"583 505 LINE",
"393 1306 LINE",
"544 1329 LINE",
"544 1456 LINE",
"72 1456 LINE",
"72 1329 LINE",
"195 1314 LINE",
"535 0 LINE"
);
}
);
userData = {
assembly = "NPUSHB[ ]	/* 36 values pushed */
28 23 20 19 16 10 8 7 4 9 0 1 1 76 3 2 2 1 1 31 77 4 1 0 0 32 0 78 19 23 23 19 17 5 8 27 
CALL[ ]	/* CallFunction */";
};
width = 2129;
},
{
layerId = "CD48D813-7107-4EBE-8BC7-C661170EDB17";
paths = (
{
closed = 1;
nodes = (
"646 0 LINE",
"1030 1214 LINE",
"1076 1359 LINE",
"1082 1359 LINE",
"1130 1214 LINE",
"1511 0 LINE",
"1572 0 LINE",
"1930 1402 LINE",
"2031 1402 LINE",
"2031 1456 LINE",
"1712 1456 LINE",
"1712 1402 LINE",
"1871 1402 LINE",
"1605 330 LINE",
"1540 101 LINE",
"1534 101 LINE",
"1472 330 LINE",
"1110 1456 LINE",
"1050 1456 LINE",
"686 330 LINE",
"623 101 LINE",
"617 101 LINE",
"554 330 LINE",
"285 1402 LINE",
"445 1402 LINE",
"445 1456 LINE",
"125 1456 LINE",
"125 1402 LINE",
"226 1402 LINE",
"585 0 LINE"
);
}
);
width = 2129;
}
);
note = W;
unicode = 0057;
},
{
glyphname = X;
lastChange = "2024-07-31 13:54:06 +0000";
layers = (
{
layerId = "1AFB1E35-9546-41E1-B92B-6969383A0DDD";
paths = (
{
closed = 1;
nodes = (
"636 0 LINE",
"636 205 LINE",
"521 217 LINE",
"754 523 LINE",
"978 217 LINE",
"862 205 LINE",
"862 0 LINE",
"1510 0 LINE",
"1510 205 LINE",
"1366 232 LINE",
"960 752 LINE",
"1319 1223 LINE",
"1445 1250 LINE",
"1445 1456 LINE",
"831 1456 LINE",
"831 1250 LINE",
"964 1237 LINE",
"750 948 LINE",
"544 1237 LINE",
"684 1250 LINE",
"684 1456 LINE",
"55 1456 LINE",
"55 1250 LINE",
"167 1223 LINE",
"537 710 LINE",
"150 231 LINE",
"21 205 LINE",
"21 0 LINE"
);
}
);
width = 1529;
},
{
layerId = "759DCBF5-126F-43AE-ABB8-3EC70824EECD";
paths = (
{
closed = 1;
nodes = (
"556 0 LINE",
"556 126 LINE",
"423 139 LINE",
"767 612 LINE",
"1112 139 LINE",
"971 126 LINE",
"971 0 LINE",
"1449 0 LINE",
"1449 126 LINE",
"1320 148 LINE",
"882 739 LINE",
"1277 1307 LINE",
"1410 1329 LINE",
"1410 1456 LINE",
"935 1456 LINE",
"935 1329 LINE",
"1075 1316 LINE",
"769 867 LINE",
"447 1316 LINE",
"584 1329 LINE",
"584 1456 LINE",
"112 1456 LINE",
"112 1329 LINE",
"239 1307 LINE",
"657 739 LINE",
"206 148 LINE",
"80 126 LINE",
"80 0 LINE"
);
}
);
userData = {
assembly = "NPUSHB[ ]	/* 41 values pushed */
27 26 25 24 21 19 17 14 13 12 11 10 7 5 3 0 16 0 1 1 76 2 1 1 1 31 77 3 1 0 0 32 0 78 22 22 22 17 4 8 26 
CALL[ ]	/* CallFunction */";
};
width = 1529;
},
{
layerId = "CD48D813-7107-4EBE-8BC7-C661170EDB17";
paths = (
{
closed = 1;
nodes = (
"473 0 LINE",
"473 54 LINE",
"308 54 LINE",
"761 701 LINE",
"1215 54 LINE",
"1050 54 LINE",
"1050 0 LINE",
"1397 0 LINE",
"1397 54 LINE",
"1282 54 LINE",
"796 743 LINE",
"1261 1402 LINE",
"1376 1402 LINE",
"1376 1456 LINE",
"1029 1456 LINE",
"1029 1402 LINE",
"1194 1402 LINE",
"761 785 LINE",
"329 1402 LINE",
"495 1402 LINE",
"495 1456 LINE",
"147 1456 LINE",
"147 1402 LINE",
"262 1402 LINE",
"728 743 LINE",
"242 54 LINE",
"127 54 LINE",
"127 0 LINE"
);
}
);
width = 1529;
}
);
note = X;
unicode = 0058;
},
{
glyphname = Y;
lastChange = "2024-07-31 13:54:58 +0000";
layers = (
{
layerId = "1AFB1E35-9546-41E1-B92B-6969383A0DDD";
paths = (
{
closed = 1;
nodes = (
"1047 0 LINE",
"1047 205 LINE",
"901 237 LINE",
"901 508 LINE",
"1301 1229 LINE",
"1448 1250 LINE",
"1448 1456 LINE",
"857 1456 LINE",
"857 1250 LINE",
"1003 1234 LINE",
"756 784 LINE",
"747 784 LINE",
"534 1234 LINE",
"620 1250 LINE",
"620 1456 LINE",
"18 1456 LINE",
"18 1250 LINE",
"163 1229 LINE",
"567 480 LINE",
"567 237 LINE",
"422 205 LINE",
"422 0 LINE"
);
}
);
width = 1461;
},
{
layerId = "759DCBF5-126F-43AE-ABB8-3EC70824EECD";
paths = (
{
closed = 1;
nodes = (
"992 0 LINE",
"992 126 LINE",
"829 154 LINE",
"829 545 LINE",
"1269 1310 LINE",
"1396 1329 LINE",
"1396 1456 LINE",
"904 1456 LINE",
"904 1329 LINE",
"1076 1310 LINE",
"732 701 LINE",
"731 699 LINE",
"401 1310 LINE",
"567 1329 LINE",
"567 1456 LINE",
"65 1456 LINE",
"65 1329 LINE",
"185 1310 LINE",
"633 530 LINE",
"633 154 LINE",
"470 126 LINE",
"470 0 LINE"
);
}
);
userData = {
assembly = "NPUSHB[ ]	/* 36 values pushed */
22 21 19 16 15 12 11 10 7 5 4 3 0 13 0 1 1 76 2 1 1 1 31 77 0 0 0 32 0 78 24 22 17 3 8 25 
CALL[ ]	/* CallFunction */";
};
width = 1461;
},
{
layerId = "CD48D813-7107-4EBE-8BC7-C661170EDB17";
paths = (
{
closed = 1;
nodes = (
"927 0 LINE",
"927 54 LINE",
"764 54 LINE",
"764 553 LINE",
"1278 1402 LINE",
"1398 1402 LINE",
"1398 1456 LINE",
"1072 1456 LINE",
"1072 1402 LINE",
"1213 1402 LINE",
"736 599 LINE",
"735 597 LINE",
"260 1402 LINE",
"401 1402 LINE",
"401 1456 LINE",
"75 1456 LINE",
"75 1402 LINE",
"194 1402 LINE",
"709 553 LINE",
"709 54 LINE",
"546 54 LINE",
"546 0 LINE"
);
}
);
width = 1461;
}
);
note = Y;
unicode = 0059;
},
{
glyphname = Z;
lastChange = "2024-07-31 13:55:51 +0000";
layers = (
{
layerId = "1AFB1E35-9546-41E1-B92B-6969383A0DDD";
paths = (
{
closed = 1;
nodes = (
"1146 0 LINE",
"1174 441 LINE",
"925 441 LINE",
"898 268 LINE",
"482 268 LINE",
"1132 1245 LINE",
"1132 1456 LINE",
"106 1456 LINE",
"88 1002 LINE",
"338 1002 LINE",
"363 1187 LINE",
"712 1187 LINE",
"64 219 LINE",
"64 0 LINE"
);
}
);
width = 1197;
},
{
layerId = "759DCBF5-126F-43AE-ABB8-3EC70824EECD";
paths = (
{
closed = 1;
nodes = (
"1107 0 LINE",
"1107 360 LINE",
"950 360 LINE",
"932 153 LINE",
"313 153 LINE",
"1074 1311 LINE",
"1074 1456 LINE",
"105 1456 LINE",
"105 1114 LINE",
"263 1114 LINE",
"281 1302 LINE",
"847 1302 LINE",
"90 149 LINE",
"90 0 LINE"
);
}
);
userData = {
assembly = "NPUSHB[ ]	/* 10 values pushed */
10 1 1 3 3 1 0 4 2 76 
MPPEM[ ]	/* MeasurePixelPerEm */
PUSHB[ ]	/* 1 value pushed */
12 
LT[ ]	/* LessThan */
IF[ ]	/* If */
NPUSHB[ ]	/* 35 values pushed */
0 2 1 5 1 2 114 6 1 5 4 4 5 112 0 1 1 3 95 0 3 3 31 77 0 4 4 0 96 0 0 0 32 0 78 
ELSE[ ]	/* Else */
MPPEM[ ]	/* MeasurePixelPerEm */
PUSHB[ ]	/* 1 value pushed */
14 
LT[ ]	/* LessThan */
IF[ ]	/* If */
NPUSHB[ ]	/* 36 values pushed */
0 2 1 5 1 2 114 6 1 5 4 1 5 4 126 0 1 1 3 95 0 3 3 31 77 0 4 4 0 96 0 0 0 32 0 78 
ELSE[ ]	/* Else */
NPUSHB[ ]	/* 37 values pushed */
0 2 1 5 1 2 5 128 6 1 5 4 1 5 4 126 0 1 1 3 95 0 3 3 31 77 0 4 4 0 96 0 0 0 32 0 78 
EIF[ ]	/* EndIf */
EIF[ ]	/* EndIf */
NPUSHB[ ]	/* 14 values pushed */
0 0 0 13 0 13 18 17 17 18 17 7 8 27 
CALL[ ]	/* CallFunction */";
};
width = 1197;
},
{
layerId = "CD48D813-7107-4EBE-8BC7-C661170EDB17";
paths = (
{
closed = 1;
nodes = (
"1118 0 LINE",
"1118 293 LINE",
"1064 293 LINE",
"1064 54 LINE",
"156 54 LINE",
"1086 1418 LINE",
"1086 1456 LINE",
"122 1456 LINE",
"122 1163 LINE",
"176 1163 LINE",
"176 1403 LINE",
"1011 1403 LINE",
"82 44 LINE",
"82 0 LINE"
);
}
);
width = 1197;
}
);
note = Z;
unicode = 005A;
},
{
glyphname = bracketleft;
lastChange = "2024-07-31 13:56:35 +0000";
layers = (
{
layerId = "1AFB1E35-9546-41E1-B92B-6969383A0DDD";
paths = (
{
closed = 1;
nodes = (
"541 -351 LINE",
"541 -97 LINE",
"429 -97 LINE",
"429 1454 LINE",
"541 1454 LINE",
"541 1708 LINE",
"78 1708 LINE",
"78 -351 LINE"
);
}
);
width = 573;
},
{
layerId = "759DCBF5-126F-43AE-ABB8-3EC70824EECD";
paths = (
{
closed = 1;
nodes = (
"541 -312 LINE",
"541 -157 LINE",
"354 -157 LINE",
"354 1509 LINE",
"541 1509 LINE",
"541 1664 LINE",
"157 1664 LINE",
"157 -312 LINE"
);
}
);
userData = {
assembly = "NPUSHB[ ]	/* 38 values pushed */
0 1 0 2 3 1 2 103 4 1 3 0 0 3 87 4 1 3 3 0 95 0 0 3 0 79 0 0 0 7 0 7 17 17 17 5 8 25 
CALL[ ]	/* CallFunction */";
};
width = 573;
},
{
layerId = "CD48D813-7107-4EBE-8BC7-C661170EDB17";
paths = (
{
closed = 1;
nodes = (
"443 -312 LINE",
"443 -258 LINE",
"214 -258 LINE",
"214 1610 LINE",
"443 1610 LINE",
"443 1664 LINE",
"160 1664 LINE",
"160 -312 LINE"
);
}
);
width = 573;
}
);
note = bracketleft;
unicode = 005B;
},
{
glyphname = backslash;
lastChange = "2024-07-31 13:57:25 +0000";
layers = (
{
layerId = "1AFB1E35-9546-41E1-B92B-6969383A0DDD";
paths = (
{
closed = 1;
nodes = (
"885 -125 LINE",
"322 1456 LINE",
"-3 1456 LINE",
"560 -125 LINE"
);
}
);
width = 841;
},
{
layerId = "759DCBF5-126F-43AE-ABB8-3EC70824EECD";
paths = (
{
closed = 1;
nodes = (
"830 -125 LINE",
"222 1456 LINE",
"36 1456 LINE",
"644 -125 LINE"
);
}
);
userData = {
assembly = "NPUSHB[ ]	/* 22 values pushed */
0 0 1 0 134 2 1 1 1 31 1 78 0 0 0 3 0 3 17 3 8 23 
CALL[ ]	/* CallFunction */";
};
width = 841;
},
{
layerId = "CD48D813-7107-4EBE-8BC7-C661170EDB17";
paths = (
{
closed = 1;
nodes = (
"752 -125 LINE",
"144 1456 LINE",
"86 1456 LINE",
"694 -125 LINE"
);
}
);
width = 841;
}
);
note = backslash;
unicode = 005C;
},
{
glyphname = bracketright;
lastChange = "2024-07-31 13:58:31 +0000";
layers = (
{
layerId = "1AFB1E35-9546-41E1-B92B-6969383A0DDD";
paths = (
{
closed = 1;
nodes = (
"490 -351 LINE",
"490 1708 LINE",
"26 1708 LINE",
"26 1454 LINE",
"141 1454 LINE",
"141 -97 LINE",
"26 -97 LINE",
"26 -351 LINE"
);
}
);
width = 573;
},
{
layerId = "759DCBF5-126F-43AE-ABB8-3EC70824EECD";
paths = (
{
closed = 1;
nodes = (
"458 -312 LINE",
"458 1664 LINE",
"73 1664 LINE",
"73 1509 LINE",
"261 1509 LINE",
"261 -157 LINE",
"73 -157 LINE",
"73 -312 LINE"
);
}
);
userData = {
assembly = "NPUSHB[ ]	/* 37 values pushed */
4 1 3 0 2 1 3 2 103 0 1 0 0 1 87 0 1 1 0 95 0 0 1 0 79 0 0 0 7 0 7 17 17 17 5 8 25 
CALL[ ]	/* CallFunction */";
};
width = 573;
},
{
layerId = "CD48D813-7107-4EBE-8BC7-C661170EDB17";
paths = (
{
closed = 1;
nodes = (
"406 -312 LINE",
"406 1664 LINE",
"123 1664 LINE",
"123 1610 LINE",
"351 1610 LINE",
"351 -258 LINE",
"123 -258 LINE",
"123 -312 LINE"
);
}
);
width = 573;
}
);
note = bracketright;
unicode = 005D;
},
{
glyphname = asciicircum;
lastChange = "2024-07-31 13:59:28 +0000";
layers = (
{
layerId = "1AFB1E35-9546-41E1-B92B-6969383A0DDD";
paths = (
{
closed = 1;
nodes = (
"278 729 LINE",
"432 1138 LINE",
"433 1150 LINE",
"439 1150 LINE",
"441 1138 LINE",
"598 729 LINE",
"847 729 LINE",
"562 1456 LINE",
"314 1456 LINE",
"29 729 LINE"
);
}
);
width = 864;
},
{
layerId = "759DCBF5-126F-43AE-ABB8-3EC70824EECD";
paths = (
{
closed = 1;
nodes = (
"253 729 LINE",
"416 1148 LINE",
"432 1218 LINE",
"438 1218 LINE",
"454 1148 LINE",
"620 729 LINE",
"802 729 LINE",
"504 1456 LINE",
"370 1456 LINE",
"71 729 LINE"
);
}
);
userData = {
assembly = "PUSHB[ ]	/* 2 values pushed */
6 100 
WCVTP[ ]	/* WriteCVTInPixels */
NPUSHB[ ]	/* 22 values pushed */
8 1 0 1 1 76 0 1 0 1 133 2 1 0 0 118 17 17 17 3 8 25 
CALL[ ]	/* CallFunction */
PUSHB[ ]	/* 2 values pushed */
6 0 
WCVTP[ ]	/* WriteCVTInPixels */";
};
width = 864;
},
{
layerId = "CD48D813-7107-4EBE-8BC7-C661170EDB17";
paths = (
{
closed = 1;
nodes = (
"165 729 LINE",
"384 1272 LINE",
"427 1386 LINE",
"433 1386 LINE",
"473 1272 LINE",
"695 729 LINE",
"756 729 LINE",
"457 1456 LINE",
"405 1456 LINE",
"106 729 LINE"
);
}
);
width = 864;
}
);
note = asciicircum;
unicode = 005E;
},
{
glyphname = underscore;
lastChange = "2024-07-31 14:00:20 +0000";
layers = (
{
layerId = "1AFB1E35-9546-41E1-B92B-6969383A0DDD";
paths = (
{
closed = 1;
nodes = (
"1048 -206 LINE",
"1048 0 LINE",
"145 0 LINE",
"145 -206 LINE"
);
}
);
width = 1168;
},
{
layerId = "759DCBF5-126F-43AE-ABB8-3EC70824EECD";
paths = (
{
closed = 1;
nodes = (
"1041 -154 LINE",
"1041 0 LINE",
"119 0 LINE",
"119 -154 LINE"
);
}
);
userData = {
assembly = "PUSHB[ ]	/* 2 values pushed */
6 100 
WCVTP[ ]	/* WriteCVTInPixels */
NPUSHB[ ]	/* 28 values pushed */
2 1 1 0 0 1 87 2 1 1 1 0 95 0 0 1 0 79 0 0 0 3 0 3 17 3 8 23 
CALL[ ]	/* CallFunction */
PUSHB[ ]	/* 2 values pushed */
6 0 
WCVTP[ ]	/* WriteCVTInPixels */";
};
width = 1168;
},
{
layerId = "CD48D813-7107-4EBE-8BC7-C661170EDB17";
paths = (
{
closed = 1;
nodes = (
"1005 -54 LINE",
"1005 0 LINE",
"159 0 LINE",
"159 -54 LINE"
);
}
);
width = 1168;
}
);
note = underscore;
unicode = 005F;
},
{
glyphname = grave;
lastChange = "2024-07-31 14:01:26 +0000";
layers = (
{
layerId = "1AFB1E35-9546-41E1-B92B-6969383A0DDD";
paths = (
{
closed = 1;
nodes = (
"484 1287 LINE",
"315 1560 LINE",
"13 1554 LINE",
"248 1287 LINE"
);
}
);
width = 496;
},
{
layerId = "759DCBF5-126F-43AE-ABB8-3EC70824EECD";
paths = (
{
closed = 1;
nodes = (
"456 1288 LINE",
"272 1560 LINE",
"40 1554 LINE",
"309 1288 LINE"
);
}
);
userData = {
assembly = "PUSHB[ ]	/* 2 values pushed */
6 100 
WCVTP[ ]	/* WriteCVTInPixels */
NPUSHB[ ]	/* 21 values pushed */
2 1 0 1 0 133 0 1 1 118 1 0 3 2 0 4 1 4 3 8 22 
CALL[ ]	/* CallFunction */
PUSHB[ ]	/* 2 values pushed */
6 0 
WCVTP[ ]	/* WriteCVTInPixels */";
};
width = 496;
},
{
layerId = "CD48D813-7107-4EBE-8BC7-C661170EDB17";
paths = (
{
closed = 1;
nodes = (
"346 1329 LINE",
"166 1560 LINE",
"102 1560 LINE",
"299 1324 LINE"
);
}
);
width = 496;
}
);
note = grave;
unicode = 0060;
},
{
glyphname = a;
lastChange = "2024-07-28 02:23:57 +0000";
layers = (
{
layerId = "1AFB1E35-9546-41E1-B92B-6969383A0DDD";
paths = (
{
closed = 1;
nodes = (
"502 -21 OFFCURVE",
"622 47 OFFCURVE",
"670 108 QCURVE",
"675 78 OFFCURVE",
"705 18 OFFCURVE",
"718 0 QCURVE",
"1119 0 LINE",
"1119 205 LINE",
"1005 225 LINE",
"1001 245 OFFCURVE",
"1000 289 OFFCURVE",
"1000 312 QCURVE SMOOTH",
"1000 711 LINE SMOOTH",
"1000 899 OFFCURVE",
"745 1102 OFFCURVE",
"528 1102 QCURVE SMOOTH",
"407 1102 OFFCURVE",
"210 1042 OFFCURVE",
"120 1001 QCURVE",
"125 700 LINE",
"367 700 LINE",
"390 838 LINE",
"414 854 OFFCURVE",
"472 871 OFFCURVE",
"505 871 QCURVE SMOOTH",
"583 871 OFFCURVE",
"656 780 OFFCURVE",
"656 715 QCURVE SMOOTH",
"656 651 LINE",
"545 651 LINE SMOOTH",
"383 651 OFFCURVE",
"169 562 OFFCURVE",
"62 406 OFFCURVE",
"62 305 QCURVE SMOOTH",
"62 157 OFFCURVE",
"256 -21 OFFCURVE",
"410 -21 QCURVE SMOOTH"
);
},
{
closed = 1;
nodes = (
"467 227 OFFCURVE",
"404 283 OFFCURVE",
"404 332 QCURVE SMOOTH",
"404 383 OFFCURVE",
"479 445 OFFCURVE",
"549 445 QCURVE SMOOTH",
"656 445 LINE",
"656 289 LINE",
"628 258 OFFCURVE",
"553 227 OFFCURVE",
"516 227 QCURVE SMOOTH"
);
}
);
width = 1132;
},
{
layerId = "759DCBF5-126F-43AE-ABB8-3EC70824EECD";
paths = (
{
closed = 1;
nodes = (
"521 -21 OFFCURVE",
"692 76 OFFCURVE",
"749 149 QCURVE",
"751 114 OFFCURVE",
"761 44 OFFCURVE",
"770 0 QCURVE",
"1053 0 LINE",
"1053 126 LINE",
"948 137 LINE",
"946 157 OFFCURVE",
"945 197 OFFCURVE",
"945 218 QCURVE SMOOTH",
"945 739 LINE SMOOTH",
"945 914 OFFCURVE",
"721 1102 OFFCURVE",
"524 1102 QCURVE SMOOTH",
"406 1102 OFFCURVE",
"212 1041 OFFCURVE",
"139 982 QCURVE",
"139 734 LINE",
"291 734 LINE",
"312 885 LINE",
"353 914 OFFCURVE",
"453 947 OFFCURVE",
"521 947 QCURVE SMOOTH",
"629 947 OFFCURVE",
"748 839 OFFCURVE",
"748 741 QCURVE SMOOTH",
"748 635 LINE",
"555 635 LINE SMOOTH",
"406 635 OFFCURVE",
"192 550 OFFCURVE",
"79 397 OFFCURVE",
"79 294 QCURVE SMOOTH",
"79 144 OFFCURVE",
"255 -21 OFFCURVE",
"424 -21 QCURVE SMOOTH"
);
},
{
closed = 1;
nodes = (
"364 144 OFFCURVE",
"276 219 OFFCURVE",
"276 290 QCURVE SMOOTH",
"276 370 OFFCURVE",
"412 500 OFFCURVE",
"548 500 QCURVE SMOOTH",
"748 500 LINE",
"748 304 LINE",
"713 238 OFFCURVE",
"551 144 OFFCURVE",
"453 144 QCURVE SMOOTH"
);
}
);
userData = {
assembly = "MPPEM[ ]	/* MeasurePixelPerEm */
PUSHB[ ]	/* 1 value pushed */
23 
LT[ ]	/* LessThan */
IF[ ]	/* If */
NPUSHB[ ]	/* 15 values pushed */
18 1 2 4 40 34 2 6 7 29 1 0 6 3 76 
ELSE[ ]	/* Else */
NPUSHB[ ]	/* 15 values pushed */
18 1 2 4 40 34 2 6 7 29 1 5 6 3 76 
EIF[ ]	/* EndIf */
MPPEM[ ]	/* MeasurePixelPerEm */
PUSHB[ ]	/* 1 value pushed */
23 
LT[ ]	/* LessThan */
IF[ ]	/* If */
NPUSHB[ ]	/* 40 values pushed */
0 3 2 1 2 3 1 128 0 1 0 7 6 1 7 103 0 2 2 4 97 0 4 4 40 77 9 1 6 6 0 97 5 8 2 0 0 38 0 78 
ELSE[ ]	/* Else */
NPUSHB[ ]	/* 44 values pushed */
0 3 2 1 2 3 1 128 0 1 0 7 6 1 7 103 0 2 2 4 97 0 4 4 40 77 0 5 5 32 77 9 1 6 6 0 97 8 1 0 0 38 0 78 
EIF[ ]	/* EndIf */
NPUSHB[ ]	/* 27 values pushed */
38 37 1 0 43 41 37 47 38 47 31 30 22 20 17 16 13 11 8 6 0 36 1 36 10 8 22 
CALL[ ]	/* CallFunction */";
};
width = 1132;
},
{
layerId = "CD48D813-7107-4EBE-8BC7-C661170EDB17";
paths = (
{
closed = 1;
nodes = (
"560 -21 OFFCURVE",
"773 101 OFFCURVE",
"834 199 QCURVE",
"834 146 OFFCURVE",
"843 71 OFFCURVE",
"856 0 QCURVE",
"1053 0 LINE",
"1053 54 LINE",
"903 54 LINE",
"895 94 OFFCURVE",
"888 176 OFFCURVE",
"888 218 QCURVE SMOOTH",
"888 740 LINE SMOOTH",
"888 907 OFFCURVE",
"699 1102 OFFCURVE",
"512 1102 QCURVE SMOOTH",
"404 1102 OFFCURVE",
"239 1027 OFFCURVE",
"172 965 QCURVE",
"172 759 LINE",
"226 759 LINE",
"226 936 LINE",
"277 983 OFFCURVE",
"423 1049 OFFCURVE",
"511 1049 QCURVE SMOOTH",
"678 1049 OFFCURVE",
"834 877 OFFCURVE",
"834 742 QCURVE SMOOTH",
"834 604 LINE",
"585 604 LINE SMOOTH",
"441 604 OFFCURVE",
"228 520 OFFCURVE",
"111 371 OFFCURVE",
"111 274 QCURVE SMOOTH",
"111 142 OFFCURVE",
"282 -21 OFFCURVE",
"424 -21 QCURVE SMOOTH"
);
},
{
closed = 1;
nodes = (
"311 32 OFFCURVE",
"165 169 OFFCURVE",
"165 270 QCURVE SMOOTH",
"165 394 OFFCURVE",
"397 549 OFFCURVE",
"588 549 QCURVE SMOOTH",
"834 549 LINE",
"834 292 LINE",
"777 170 OFFCURVE",
"547 32 OFFCURVE",
"424 32 QCURVE SMOOTH"
);
}
);
width = 1132;
}
);
note = a;
unicode = 0061;
},
{
glyphname = b;
lastChange = "2024-07-28 02:25:43 +0000";
layers = (
{
layerId = "1AFB1E35-9546-41E1-B92B-6969383A0DDD";
paths = (
{
closed = 1;
nodes = (
"843 -21 OFFCURVE",
"1021 111 OFFCURVE",
"1112 354 OFFCURVE",
"1112 518 QCURVE SMOOTH",
"1112 539 LINE SMOOTH",
"1112 711 OFFCURVE",
"1021 964 OFFCURVE",
"845 1102 OFFCURVE",
"718 1102 QCURVE SMOOTH",
"635 1102 OFFCURVE",
"508 1036 OFFCURVE",
"465 975 QCURVE",
"465 1560 LINE",
"-26 1560 LINE",
"-26 1354 LINE",
"121 1322 LINE",
"121 0 LINE",
"419 0 LINE",
"441 129 LINE",
"487 56 OFFCURVE",
"617 -21 OFFCURVE",
"712 -21 QCURVE SMOOTH"
);
},
{
closed = 1;
nodes = (
"560 248 OFFCURVE",
"491 278 OFFCURVE",
"465 312 QCURVE",
"465 747 LINE",
"486 787 OFFCURVE",
"559 833 OFFCURVE",
"607 833 QCURVE SMOOTH",
"666 833 OFFCURVE",
"737 764 OFFCURVE",
"769 633 OFFCURVE",
"769 539 QCURVE SMOOTH",
"769 518 LINE SMOOTH",
"769 382 OFFCURVE",
"696 248 OFFCURVE",
"603 248 QCURVE SMOOTH"
);
}
);
width = 1145;
},
{
layerId = "759DCBF5-126F-43AE-ABB8-3EC70824EECD";
paths = (
{
closed = 1;
nodes = (
"781 -21 OFFCURVE",
"970 110 OFFCURVE",
"1071 344 OFFCURVE",
"1071 500 QCURVE SMOOTH",
"1071 521 LINE SMOOTH",
"1071 695 OFFCURVE",
"970 957 OFFCURVE",
"781 1102 OFFCURVE",
"647 1102 QCURVE SMOOTH",
"546 1102 OFFCURVE",
"395 1026 OFFCURVE",
"344 954 QCURVE",
"344 1560 LINE",
"-16 1560 LINE",
"-16 1433 LINE",
"147 1405 LINE",
"147 0 LINE",
"317 0 LINE",
"335 139 LINE",
"387 60 OFFCURVE",
"543 -21 OFFCURVE",
"649 -21 QCURVE SMOOTH"
);
},
{
closed = 1;
nodes = (
"508 139 OFFCURVE",
"381 227 OFFCURVE",
"344 302 QCURVE",
"344 780 LINE",
"381 854 OFFCURVE",
"506 942 OFFCURVE",
"597 942 QCURVE SMOOTH",
"691 942 OFFCURVE",
"813 835 OFFCURVE",
"873 646 OFFCURVE",
"873 521 QCURVE SMOOTH",
"873 500 LINE SMOOTH",
"873 337 OFFCURVE",
"738 139 OFFCURVE",
"599 139 QCURVE SMOOTH"
);
}
);
userData = {
assembly = "NPUSHB[ ]	/* 21 values pushed */
7 6 2 3 2 10 1 5 3 34 33 2 4 5 3 76 3 1 4 1 75 
MPPEM[ ]	/* MeasurePixelPerEm */
PUSHB[ ]	/* 1 value pushed */
23 
LT[ ]	/* LessThan */
IF[ ]	/* If */
NPUSHB[ ]	/* 29 values pushed */
0 2 2 33 77 0 5 5 3 97 0 3 3 40 77 7 1 4 4 0 97 1 6 2 0 0 38 0 78 
ELSE[ ]	/* Else */
NPUSHB[ ]	/* 33 values pushed */
0 2 2 33 77 0 5 5 3 97 0 3 3 40 77 0 1 1 32 77 7 1 4 4 0 97 6 1 0 0 38 0 78 
EIF[ ]	/* EndIf */
NPUSHB[ ]	/* 23 values pushed */
23 22 1 0 31 29 22 36 23 36 14 12 9 8 5 4 0 21 1 21 8 8 22 
CALL[ ]	/* CallFunction */";
};
width = 1145;
},
{
layerId = "CD48D813-7107-4EBE-8BC7-C661170EDB17";
paths = (
{
closed = 1;
nodes = (
"725 -21 OFFCURVE",
"907 111 OFFCURVE",
"1004 354 OFFCURVE",
"1004 521 QCURVE SMOOTH",
"1004 542 LINE SMOOTH",
"1004 713 OFFCURVE",
"906 965 OFFCURVE",
"723 1102 OFFCURVE",
"596 1102 QCURVE SMOOTH",
"467 1102 OFFCURVE",
"283 986 OFFCURVE",
"229 885 QCURVE",
"229 1560 LINE",
"12 1560 LINE",
"12 1506 LINE",
"175 1506 LINE",
"175 0 LINE",
"220 0 LINE",
"227 173 LINE",
"280 84 OFFCURVE",
"469 -21 OFFCURVE",
"598 -21 QCURVE SMOOTH"
);
},
{
closed = 1;
nodes = (
"455 33 OFFCURVE",
"268 164 OFFCURVE",
"229 274 QCURVE",
"229 770 LINE",
"266 887 OFFCURVE",
"439 1048 OFFCURVE",
"597 1048 QCURVE SMOOTH",
"711 1048 OFFCURVE",
"868 920 OFFCURVE",
"948 692 OFFCURVE",
"948 542 QCURVE SMOOTH",
"948 521 LINE SMOOTH",
"948 297 OFFCURVE",
"770 33 OFFCURVE",
"599 33 QCURVE SMOOTH"
);
}
);
width = 1145;
}
);
note = b;
unicode = 0062;
},
{
glyphname = c;
lastChange = "2024-07-31 14:02:28 +0000";
layers = (
{
layerId = "1AFB1E35-9546-41E1-B92B-6969383A0DDD";
paths = (
{
closed = 1;
nodes = (
"723 -21 OFFCURVE",
"904 64 OFFCURVE",
"1006 235 OFFCURVE",
"1030 364 QCURVE",
"1026 370 LINE",
"732 370 LINE",
"713 309 OFFCURVE",
"644 246 OFFCURVE",
"581 246 QCURVE SMOOTH",
"540 246 OFFCURVE",
"462 298 OFFCURVE",
"411 421 OFFCURVE",
"411 528 QCURVE SMOOTH",
"411 551 LINE SMOOTH",
"411 654 OFFCURVE",
"449 786 OFFCURVE",
"537 851 OFFCURVE",
"612 851 QCURVE SMOOTH",
"631 851 OFFCURVE",
"688 829 OFFCURVE",
"705 812 QCURVE",
"747 616 LINE",
"1008 616 LINE",
"1014 957 LINE",
"950 1008 OFFCURVE",
"729 1102 OFFCURVE",
"574 1102 QCURVE SMOOTH",
"420 1102 OFFCURVE",
"189 962 OFFCURVE",
"60 714 OFFCURVE",
"60 551 QCURVE SMOOTH",
"60 528 LINE SMOOTH",
"60 369 OFFCURVE",
"184 121 OFFCURVE",
"416 -21 OFFCURVE",
"577 -21 QCURVE SMOOTH"
);
}
);
width = 1067;
},
{
layerId = "759DCBF5-126F-43AE-ABB8-3EC70824EECD";
paths = (
{
closed = 1;
nodes = (
"698 -21 OFFCURVE",
"883 78 OFFCURVE",
"983 240 OFFCURVE",
"988 333 QCURVE",
"986 339 LINE",
"809 339 LINE",
"794 243 OFFCURVE",
"662 133 OFFCURVE",
"562 133 QCURVE SMOOTH",
"473 133 OFFCURVE",
"344 228 OFFCURVE",
"275 402 OFFCURVE",
"275 520 QCURVE SMOOTH",
"275 562 LINE SMOOTH",
"275 669 OFFCURVE",
"349 843 OFFCURVE",
"482 947 OFFCURVE",
"570 947 QCURVE SMOOTH",
"639 947 OFFCURVE",
"741 905 OFFCURVE",
"775 870 QCURVE",
"809 681 LINE",
"963 681 LINE",
"958 941 LINE",
"891 1016 OFFCURVE",
"694 1102 OFFCURVE",
"563 1102 QCURVE SMOOTH",
"412 1102 OFFCURVE",
"194 960 OFFCURVE",
"78 716 OFFCURVE",
"78 562 QCURVE SMOOTH",
"78 520 LINE SMOOTH",
"78 360 OFFCURVE",
"198 116 OFFCURVE",
"416 -21 OFFCURVE",
"563 -21 QCURVE SMOOTH"
);
}
);
userData = {
assembly = "NPUSHB[ ]	/* 62 values pushed */
12 1 2 3 1 76 0 2 3 5 3 2 5 128 0 5 4 3 5 4 126 0 3 3 1 97 0 1 1 40 77 0 4 4 0 97 6 1 0 0 38 0 78 1 0 31 30 28 26 19 17 14 13 10 8 0 35 1 35 7 8 22 
CALL[ ]	/* CallFunction */";
};
width = 1067;
},
{
layerId = "CD48D813-7107-4EBE-8BC7-C661170EDB17";
paths = (
{
closed = 1;
nodes = (
"650 -21 OFFCURVE",
"819 55 OFFCURVE",
"925 206 OFFCURVE",
"937 317 QCURVE",
"935 323 LINE",
"889 323 LINE",
"871 175 OFFCURVE",
"682 33 OFFCURVE",
"543 33 QCURVE SMOOTH",
"427 33 OFFCURVE",
"254 156 OFFCURVE",
"158 376 OFFCURVE",
"158 520 QCURVE SMOOTH",
"158 562 LINE SMOOTH",
"158 705 OFFCURVE",
"253 924 OFFCURVE",
"425 1048 OFFCURVE",
"539 1048 QCURVE SMOOTH",
"640 1048 OFFCURVE",
"802 973 OFFCURVE",
"866 905 QCURVE",
"866 693 LINE",
"920 693 LINE",
"920 925 LINE",
"855 999 OFFCURVE",
"660 1102 OFFCURVE",
"538 1102 QCURVE SMOOTH",
"411 1102 OFFCURVE",
"215 967 OFFCURVE",
"104 724 OFFCURVE",
"104 562 QCURVE SMOOTH",
"104 520 LINE SMOOTH",
"104 358 OFFCURVE",
"218 115 OFFCURVE",
"416 -21 OFFCURVE",
"540 -21 QCURVE SMOOTH"
);
}
);
width = 1067;
}
);
note = c;
unicode = 0063;
},
{
glyphname = d;
lastChange = "2024-07-28 02:27:14 +0000";
layers = (
{
layerId = "1AFB1E35-9546-41E1-B92B-6969383A0DDD";
paths = (
{
closed = 1;
nodes = (
"559 -21 OFFCURVE",
"693 58 OFFCURVE",
"742 134 QCURVE",
"768 0 LINE",
"1198 0 LINE",
"1198 205 LINE",
"1072 237 LINE",
"1072 1560 LINE",
"721 1560 LINE",
"569 1560 LINE",
"569 1354 LINE",
"721 1322 LINE",
"721 967 LINE",
"674 1031 OFFCURVE",
"549 1102 OFFCURVE",
"463 1102 QCURVE SMOOTH",
"339 1102 OFFCURVE",
"158 961 OFFCURVE",
"60 708 OFFCURVE",
"60 539 QCURVE SMOOTH",
"60 518 LINE SMOOTH",
"60 356 OFFCURVE",
"157 113 OFFCURVE",
"340 -21 OFFCURVE",
"467 -21 QCURVE SMOOTH"
);
},
{
closed = 1;
nodes = (
"483 248 OFFCURVE",
"411 389 OFFCURVE",
"411 518 QCURVE SMOOTH",
"411 539 LINE SMOOTH",
"411 627 OFFCURVE",
"444 759 OFFCURVE",
"518 833 OFFCURVE",
"578 833 QCURVE SMOOTH",
"623 833 OFFCURVE",
"696 790 OFFCURVE",
"721 749 QCURVE",
"721 316 LINE",
"696 282 OFFCURVE",
"620 248 OFFCURVE",
"576 248 QCURVE SMOOTH"
);
}
);
width = 1218;
},
{
layerId = "759DCBF5-126F-43AE-ABB8-3EC70824EECD";
paths = (
{
closed = 1;
nodes = (
"600 -21 OFFCURVE",
"753 55 OFFCURVE",
"806 129 QCURVE",
"822 0 LINE",
"1156 0 LINE",
"1156 126 LINE",
"993 154 LINE",
"993 1560 LINE",
"796 1560 LINE",
"633 1560 LINE",
"633 1433 LINE",
"796 1405 LINE",
"796 964 LINE",
"744 1031 OFFCURVE",
"597 1102 OFFCURVE",
"501 1102 QCURVE SMOOTH",
"368 1102 OFFCURVE",
"178 957 OFFCURVE",
"78 695 OFFCURVE",
"78 521 QCURVE SMOOTH",
"78 500 LINE SMOOTH",
"78 344 OFFCURVE",
"178 110 OFFCURVE",
"367 -21 OFFCURVE",
"499 -21 QCURVE SMOOTH"
);
},
{
closed = 1;
nodes = (
"409 139 OFFCURVE",
"275 337 OFFCURVE",
"275 500 QCURVE SMOOTH",
"275 521 LINE SMOOTH",
"275 646 OFFCURVE",
"335 835 OFFCURVE",
"457 942 OFFCURVE",
"551 942 QCURVE SMOOTH",
"636 942 OFFCURVE",
"758 862 OFFCURVE",
"796 794 QCURVE",
"796 292 LINE",
"757 219 OFFCURVE",
"637 139 OFFCURVE",
"549 139 QCURVE SMOOTH"
);
}
);
userData = {
assembly = "MPPEM[ ]	/* MeasurePixelPerEm */
PUSHB[ ]	/* 1 value pushed */
23 
LT[ ]	/* LessThan */
IF[ ]	/* If */
NPUSHB[ ]	/* 22 values pushed */
14 13 2 1 2 12 1 5 1 29 28 18 3 4 5 22 19 2 0 4 4 76 
ELSE[ ]	/* Else */
NPUSHB[ ]	/* 22 values pushed */
14 13 2 1 2 12 1 5 1 29 28 18 3 4 5 22 19 2 3 4 4 76 
EIF[ ]	/* EndIf */
MPPEM[ ]	/* MeasurePixelPerEm */
PUSHB[ ]	/* 1 value pushed */
23 
LT[ ]	/* LessThan */
IF[ ]	/* If */
NPUSHB[ ]	/* 29 values pushed */
0 2 2 33 77 0 5 5 1 97 0 1 1 40 77 7 1 4 4 0 97 3 6 2 0 0 38 0 78 
ELSE[ ]	/* Else */
NPUSHB[ ]	/* 33 values pushed */
0 2 2 33 77 0 5 5 1 97 0 1 1 40 77 0 3 3 32 77 7 1 4 4 0 97 6 1 0 0 38 0 78 
EIF[ ]	/* EndIf */
NPUSHB[ ]	/* 23 values pushed */
26 25 1 0 33 31 25 39 26 39 21 20 17 15 10 8 0 24 1 24 8 8 22 
CALL[ ]	/* CallFunction */";
};
width = 1218;
},
{
layerId = "CD48D813-7107-4EBE-8BC7-C661170EDB17";
paths = (
{
closed = 1;
nodes = (
"642 -21 OFFCURVE",
"830 84 OFFCURVE",
"883 173 QCURVE",
"885 0 LINE",
"1100 0 LINE",
"1100 54 LINE",
"937 54 LINE",
"937 1560 LINE",
"883 1560 LINE",
"720 1560 LINE",
"720 1506 LINE",
"883 1506 LINE",
"883 883 LINE",
"828 985 OFFCURVE",
"644 1102 OFFCURVE",
"516 1102 QCURVE SMOOTH",
"388 1102 OFFCURVE",
"205 965 OFFCURVE",
"108 713 OFFCURVE",
"108 542 QCURVE SMOOTH",
"108 521 LINE SMOOTH",
"108 354 OFFCURVE",
"205 111 OFFCURVE",
"387 -21 OFFCURVE",
"514 -21 QCURVE SMOOTH"
);
},
{
closed = 1;
nodes = (
"341 33 OFFCURVE",
"164 297 OFFCURVE",
"164 521 QCURVE SMOOTH",
"164 542 LINE SMOOTH",
"164 692 OFFCURVE",
"244 920 OFFCURVE",
"400 1048 OFFCURVE",
"515 1048 QCURVE SMOOTH",
"670 1048 OFFCURVE",
"844 891 OFFCURVE",
"883 775 QCURVE",
"883 268 LINE",
"841 161 OFFCURVE",
"654 33 OFFCURVE",
"513 33 QCURVE SMOOTH"
);
}
);
width = 1218;
}
);
note = d;
unicode = 0064;
},
{
glyphname = e;
lastChange = "2024-07-31 14:03:17 +0000";
layers = (
{
layerId = "1AFB1E35-9546-41E1-B92B-6969383A0DDD";
paths = (
{
closed = 1;
nodes = (
"697 -21 OFFCURVE",
"900 47 OFFCURVE",
"970 99 QCURVE",
"893 311 LINE",
"823 277 OFFCURVE",
"696 246 OFFCURVE",
"630 246 QCURVE SMOOTH",
"564 246 OFFCURVE",
"473 292 OFFCURVE",
"422 371 OFFCURVE",
"414 422 QCURVE",
"415 429 LINE",
"990 429 LINE",
"990 610 LINE SMOOTH",
"990 770 OFFCURVE",
"887 989 OFFCURVE",
"691 1102 OFFCURVE",
"549 1102 QCURVE SMOOTH",
"392 1103 OFFCURVE",
"175 960 OFFCURVE",
"63 706 OFFCURVE",
"63 541 QCURVE SMOOTH",
"63 504 LINE SMOOTH",
"63 354 OFFCURVE",
"190 116 OFFCURVE",
"419 -21 OFFCURVE",
"572 -21 QCURVE SMOOTH"
);
},
{
closed = 1;
nodes = (
"411 651 LINE",
"417 708 OFFCURVE",
"445 797 OFFCURVE",
"506 848 OFFCURVE",
"557 848 QCURVE SMOOTH",
"604 848 OFFCURVE",
"658 808 OFFCURVE",
"681 730 OFFCURVE",
"681 672 QCURVE SMOOTH",
"681 646 LINE",
"415 646 LINE"
);
}
);
width = 1059;
},
{
layerId = "759DCBF5-126F-43AE-ABB8-3EC70824EECD";
paths = (
{
closed = 1;
nodes = (
"701 -21 OFFCURVE",
"892 56 OFFCURVE",
"950 112 QCURVE",
"873 240 LINE",
"818 190 OFFCURVE",
"667 133 OFFCURVE",
"567 133 QCURVE SMOOTH",
"476 133 OFFCURVE",
"346 225 OFFCURVE",
"277 386 OFFCURVE",
"275 490 QCURVE",
"278 495 LINE",
"980 495 LINE",
"980 618 LINE SMOOTH",
"980 765 OFFCURVE",
"880 982 OFFCURVE",
"683 1102 OFFCURVE",
"537 1102 QCURVE SMOOTH",
"412 1102 OFFCURVE",
"201 961 OFFCURVE",
"74 718 OFFCURVE",
"74 564 QCURVE SMOOTH",
"74 520 LINE SMOOTH",
"74 360 OFFCURVE",
"195 116 OFFCURVE",
"417 -21 OFFCURVE",
"567 -21 QCURVE SMOOTH"
);
},
{
closed = 1;
nodes = (
"282 654 LINE",
"293 738 OFFCURVE",
"363 870 OFFCURVE",
"471 947 OFFCURVE",
"537 947 QCURVE SMOOTH",
"619 947 OFFCURVE",
"728 876 OFFCURVE",
"783 753 OFFCURVE",
"783 675 QCURVE SMOOTH",
"783 649 LINE",
"284 649 LINE"
);
}
);
userData = {
assembly = "NPUSHB[ ]	/* 59 values pushed */
23 1 3 2 24 1 0 3 2 76 0 4 0 2 3 4 2 103 0 5 5 1 97 0 1 1 40 77 0 3 3 0 97 6 1 0 0 38 0 78 1 0 35 33 29 27 21 19 15 14 10 8 0 26 1 26 7 8 22 
CALL[ ]	/* CallFunction */";
};
width = 1059;
},
{
layerId = "CD48D813-7107-4EBE-8BC7-C661170EDB17";
paths = (
{
closed = 1;
nodes = (
"680 -21 OFFCURVE",
"850 59 OFFCURVE",
"917 123 QCURVE",
"888 165 LINE",
"826 104 OFFCURVE",
"667 33 OFFCURVE",
"564 33 QCURVE SMOOTH",
"448 33 OFFCURVE",
"268 155 OFFCURVE",
"166 366 OFFCURVE",
"166 500 QCURVE SMOOTH",
"166 577 LINE",
"957 577 LINE",
"957 660 LINE SMOOTH",
"957 795 OFFCURVE",
"856 993 OFFCURVE",
"673 1102 OFFCURVE",
"551 1102 QCURVE SMOOTH",
"425 1102 OFFCURVE",
"226 962 OFFCURVE",
"112 719 OFFCURVE",
"112 564 QCURVE SMOOTH",
"112 500 LINE SMOOTH",
"112 347 OFFCURVE",
"230 112 OFFCURVE",
"434 -21 OFFCURVE",
"564 -21 QCURVE SMOOTH"
);
},
{
closed = 1;
nodes = (
"174 637 LINE",
"183 754 OFFCURVE",
"285 940 OFFCURVE",
"449 1048 OFFCURVE",
"551 1048 QCURVE SMOOTH",
"658 1048 OFFCURVE",
"816 948 OFFCURVE",
"903 774 OFFCURVE",
"903 664 QCURVE SMOOTH",
"903 631 LINE",
"177 631 LINE"
);
}
);
width = 1059;
}
);
note = e;
unicode = 0065;
},
{
glyphname = f;
lastChange = "2024-07-31 14:04:18 +0000";
layers = (
{
layerId = "1AFB1E35-9546-41E1-B92B-6969383A0DDD";
paths = (
{
closed = 1;
nodes = (
"658 0 LINE",
"658 205 LINE",
"477 237 LINE",
"477 840 LINE",
"711 840 LINE",
"711 1082 LINE",
"477 1082 LINE",
"477 1191 LINE SMOOTH",
"477 1249 OFFCURVE",
"541 1311 OFFCURVE",
"605 1311 QCURVE SMOOTH",
"637 1311 OFFCURVE",
"695 1303 OFFCURVE",
"721 1295 QCURVE",
"745 1554 LINE",
"713 1564 OFFCURVE",
"602 1581 OFFCURVE",
"552 1581 QCURVE SMOOTH",
"362 1581 OFFCURVE",
"151 1379 OFFCURVE",
"151 1191 QCURVE SMOOTH",
"151 1082 LINE",
"6 1082 LINE",
"6 840 LINE",
"151 840 LINE",
"151 237 LINE",
"33 205 LINE",
"33 0 LINE"
);
}
);
width = 725;
},
{
layerId = "759DCBF5-126F-43AE-ABB8-3EC70824EECD";
paths = (
{
closed = 1;
nodes = (
"616 0 LINE",
"616 126 LINE",
"430 154 LINE",
"430 936 LINE",
"666 936 LINE",
"666 1082 LINE",
"430 1082 LINE",
"430 1219 LINE SMOOTH",
"430 1317 OFFCURVE",
"514 1420 OFFCURVE",
"601 1420 QCURVE SMOOTH",
"628 1420 OFFCURVE",
"689 1414 OFFCURVE",
"707 1410 QCURVE",
"731 1560 LINE",
"689 1570 OFFCURVE",
"610 1581 OFFCURVE",
"576 1581 QCURVE SMOOTH",
"414 1581 OFFCURVE",
"233 1392 OFFCURVE",
"233 1219 QCURVE SMOOTH",
"233 1082 LINE",
"64 1082 LINE",
"64 936 LINE",
"233 936 LINE",
"233 154 LINE",
"70 126 LINE",
"70 0 LINE"
);
}
);
userData = {
assembly = "NPUSHB[ ]	/* 55 values pushed */
14 1 4 3 15 1 2 4 27 26 3 2 4 0 1 3 76 0 4 4 3 97 0 3 3 39 77 6 1 1 1 2 95 5 1 2 2 34 77 0 0 0 32 0 78 17 19 37 35 17 19 16 7 8 29 
CALL[ ]	/* CallFunction */";
};
width = 725;
},
{
layerId = "CD48D813-7107-4EBE-8BC7-C661170EDB17";
paths = (
{
closed = 1;
nodes = (
"494 0 LINE",
"494 54 LINE",
"331 54 LINE",
"331 1027 LINE",
"617 1027 LINE",
"617 1082 LINE",
"331 1082 LINE",
"331 1260 LINE SMOOTH",
"331 1385 OFFCURVE",
"453 1527 OFFCURVE",
"561 1527 QCURVE SMOOTH",
"599 1527 OFFCURVE",
"648 1520 OFFCURVE",
"680 1512 QCURVE",
"688 1564 LINE",
"658 1573 OFFCURVE",
"593 1581 OFFCURVE",
"560 1581 QCURVE SMOOTH",
"426 1581 OFFCURVE",
"277 1413 OFFCURVE",
"277 1260 QCURVE SMOOTH",
"277 1082 LINE",
"89 1082 LINE",
"89 1027 LINE",
"277 1027 LINE",
"277 54 LINE",
"114 54 LINE",
"114 0 LINE"
);
}
);
width = 725;
}
);
note = f;
unicode = 0066;
},
{
glyphname = g;
lastChange = "2024-07-31 14:06:06 +0000";
layers = (
{
layerId = "1AFB1E35-9546-41E1-B92B-6969383A0DDD";
paths = (
{
closed = 1;
nodes = (
"673 -437 OFFCURVE",
"904 -317 OFFCURVE",
"1030 -101 OFFCURVE",
"1030 43 QCURVE SMOOTH",
"1030 1082 LINE",
"734 1082 LINE",
"713 946 LINE",
"667 1020 OFFCURVE",
"541 1102 OFFCURVE",
"451 1102 QCURVE SMOOTH",
"329 1102 OFFCURVE",
"154 961 OFFCURVE",
"60 708 OFFCURVE",
"60 539 QCURVE SMOOTH",
"60 518 LINE SMOOTH",
"60 356 OFFCURVE",
"155 113 OFFCURVE",
"335 -21 OFFCURVE",
"461 -21 QCURVE SMOOTH",
"535 -21 OFFCURVE",
"649 40 OFFCURVE",
"692 96 QCURVE",
"692 45 LINE SMOOTH",
"692 -58 OFFCURVE",
"596 -177 OFFCURVE",
"492 -177 QCURVE SMOOTH",
"429 -177 OFFCURVE",
"275 -144 OFFCURVE",
"199 -113 QCURVE",
"145 -355 LINE",
"225 -395 OFFCURVE",
"434 -437 OFFCURVE",
"515 -437 QCURVE SMOOTH"
);
},
{
closed = 1;
nodes = (
"467 248 OFFCURVE",
"396 389 OFFCURVE",
"396 518 QCURVE SMOOTH",
"396 539 LINE SMOOTH",
"396 628 OFFCURVE",
"428 760 OFFCURVE",
"500 833 OFFCURVE",
"560 833 QCURVE SMOOTH",
"602 833 OFFCURVE",
"671 796 OFFCURVE",
"692 760 QCURVE",
"692 307 LINE",
"671 277 OFFCURVE",
"602 248 OFFCURVE",
"560 248 QCURVE SMOOTH"
);
},
{
closed = 1;
nodes = (
"1148 875 LINE",
"1148 1082 LINE",
"839 1082 LINE",
"990 840 LINE"
);
}
);
width = 1157;
},
{
layerId = "759DCBF5-126F-43AE-ABB8-3EC70824EECD";
paths = (
{
closed = 1;
nodes = (
"693 -437 OFFCURVE",
"894 -328 OFFCURVE",
"999 -126 OFFCURVE",
"999 14 QCURVE SMOOTH",
"999 1082 LINE",
"833 1082 LINE",
"815 946 LINE",
"763 1022 OFFCURVE",
"609 1102 OFFCURVE",
"507 1102 QCURVE SMOOTH",
"373 1102 OFFCURVE",
"181 957 OFFCURVE",
"78 695 OFFCURVE",
"78 521 QCURVE SMOOTH",
"78 500 LINE SMOOTH",
"78 345 OFFCURVE",
"181 110 OFFCURVE",
"373 -21 OFFCURVE",
"505 -21 QCURVE SMOOTH",
"601 -21 OFFCURVE",
"749 49 OFFCURVE",
"802 117 QCURVE",
"802 14 LINE SMOOTH",
"802 -123 OFFCURVE",
"679 -271 OFFCURVE",
"547 -271 QCURVE SMOOTH",
"476 -271 OFFCURVE",
"326 -233 OFFCURVE",
"271 -204 QCURVE",
"220 -357 LINE",
"289 -394 OFFCURVE",
"471 -437 OFFCURVE",
"549 -437 QCURVE SMOOTH"
);
},
{
closed = 1;
nodes = (
"413 139 OFFCURVE",
"275 337 OFFCURVE",
"275 500 QCURVE SMOOTH",
"275 521 LINE SMOOTH",
"275 645 OFFCURVE",
"337 834 OFFCURVE",
"462 942 OFFCURVE",
"556 942 QCURVE SMOOTH",
"642 942 OFFCURVE",
"764 861 OFFCURVE",
"802 792 QCURVE",
"802 294 LINE",
"763 220 OFFCURVE",
"643 139 OFFCURVE",
"554 139 QCURVE SMOOTH"
);
},
{
closed = 1;
nodes = (
"1133 956 LINE",
"1133 1082 LINE",
"892 1082 LINE",
"969 921 LINE"
);
}
);
userData = {
assembly = "MPPEM[ ]	/* MeasurePixelPerEm */
PUSHB[ ]	/* 1 value pushed */
25 
LT[ ]	/* LessThan */
IF[ ]	/* If */
NPUSHB[ ]	/* 25 values pushed */
49 26 2 6 3 50 37 36 3 5 6 11 1 2 5 4 1 1 2 3 1 0 1 5 76 
ELSE[ ]	/* Else */
NPUSHB[ ]	/* 25 values pushed */
49 26 2 6 4 50 37 36 3 5 6 11 1 2 5 4 1 1 2 3 1 0 1 5 76 
EIF[ ]	/* EndIf */
MPPEM[ ]	/* MeasurePixelPerEm */
PUSHB[ ]	/* 1 value pushed */
25 
LT[ ]	/* LessThan */
IF[ ]	/* If */
NPUSHB[ ]	/* 36 values pushed */
0 6 6 3 95 10 7 4 3 3 3 34 77 9 1 5 5 2 97 0 2 2 38 77 0 1 1 0 97 8 1 0 0 42 0 78 
ELSE[ ]	/* Else */
NPUSHB[ ]	/* 40 values pushed */
10 7 2 4 4 34 77 0 6 6 3 97 0 3 3 40 77 9 1 5 5 2 97 0 2 2 38 77 0 1 1 0 97 8 1 0 0 42 0 78 
EIF[ ]	/* EndIf */
NPUSHB[ ]	/* 31 values pushed */
48 48 34 33 1 0 48 51 48 51 41 39 33 47 34 47 28 27 24 22 15 13 8 6 0 32 1 32 11 8 22 
CALL[ ]	/* CallFunction */";
};
width = 1157;
},
{
layerId = "CD48D813-7107-4EBE-8BC7-C661170EDB17";
paths = (
{
closed = 1;
nodes = (
"651 -437 OFFCURVE",
"834 -327 OFFCURVE",
"933 -124 OFFCURVE",
"933 14 QCURVE SMOOTH",
"933 1082 LINE",
"887 1082 LINE",
"879 882 LINE",
"825 984 OFFCURVE",
"640 1102 OFFCURVE",
"512 1102 QCURVE SMOOTH",
"384 1102 OFFCURVE",
"201 965 OFFCURVE",
"104 714 OFFCURVE",
"104 542 QCURVE SMOOTH",
"104 521 LINE SMOOTH",
"104 355 OFFCURVE",
"201 111 OFFCURVE",
"383 -21 OFFCURVE",
"510 -21 QCURVE SMOOTH",
"637 -21 OFFCURVE",
"824 83 OFFCURVE",
"878 171 QCURVE",
"878 14 LINE SMOOTH",
"878 -171 OFFCURVE",
"695 -384 OFFCURVE",
"522 -384 QCURVE SMOOTH",
"435 -384 OFFCURVE",
"299 -353 OFFCURVE",
"226 -321 QCURVE",
"210 -375 LINE",
"274 -404 OFFCURVE",
"445 -437 OFFCURVE",
"524 -437 QCURVE SMOOTH"
);
},
{
closed = 1;
nodes = (
"337 33 OFFCURVE",
"159 297 OFFCURVE",
"159 521 QCURVE SMOOTH",
"159 542 LINE SMOOTH",
"159 692 OFFCURVE",
"240 920 OFFCURVE",
"397 1048 OFFCURVE",
"511 1048 QCURVE SMOOTH",
"669 1048 OFFCURVE",
"840 886 OFFCURVE",
"878 767 QCURVE",
"878 276 LINE",
"838 165 OFFCURVE",
"653 33 OFFCURVE",
"509 33 QCURVE SMOOTH"
);
},
{
closed = 1;
nodes = (
"1076 1028 LINE",
"1076 1082 LINE",
"906 1082 LINE",
"913 1028 LINE"
);
}
);
width = 1157;
}
);
note = g;
unicode = 0067;
},
{
glyphname = h;
lastChange = "2024-08-01 13:34:55 +0000";
layers = (
{
layerId = "1AFB1E35-9546-41E1-B92B-6969383A0DDD";
paths = (
{
closed = 1;
nodes = (
"625 0 LINE",
"625 205 LINE",
"522 237 LINE",
"522 766 LINE",
"546 801 OFFCURVE",
"620 833 OFFCURVE",
"666 833 QCURVE SMOOTH",
"733 833 OFFCURVE",
"804 754 OFFCURVE",
"804 648 QCURVE SMOOTH",
"804 237 LINE",
"701 205 LINE",
"701 0 LINE",
"1281 0 LINE",
"1281 205 LINE",
"1155 237 LINE",
"1155 646 LINE SMOOTH",
"1155 879 OFFCURVE",
"965 1102 OFFCURVE",
"809 1102 QCURVE SMOOTH",
"714 1102 OFFCURVE",
"570 1021 OFFCURVE",
"522 948 QCURVE",
"522 1560 LINE",
"21 1560 LINE",
"21 1354 LINE",
"173 1322 LINE",
"173 237 LINE",
"46 205 LINE",
"46 0 LINE"
);
}
);
width = 1315;
},
{
layerId = "759DCBF5-126F-43AE-ABB8-3EC70824EECD";
paths = (
{
closed = 1;
nodes = (
"572 0 LINE",
"572 126 LINE",
"409 154 LINE",
"409 799 LINE",
"452 865 OFFCURVE",
"585 942 OFFCURVE",
"666 942 QCURVE SMOOTH",
"780 942 OFFCURVE",
"895 814 OFFCURVE",
"895 680 QCURVE SMOOTH",
"895 154 LINE",
"732 126 LINE",
"732 0 LINE",
"1255 0 LINE",
"1255 126 LINE",
"1092 154 LINE",
"1092 678 LINE SMOOTH",
"1092 894 OFFCURVE",
"900 1102 OFFCURVE",
"726 1102 QCURVE SMOOTH",
"627 1102 OFFCURVE",
"465 1016 OFFCURVE",
"409 938 QCURVE",
"409 1560 LINE",
"49 1560 LINE",
"49 1433 LINE",
"212 1405 LINE",
"212 154 LINE",
"49 126 LINE",
"49 0 LINE"
);
}
);
userData = {
assembly = "NPUSHB[ ]	/* 50 values pushed */
5 4 2 2 1 29 28 27 20 19 16 15 8 3 2 10 0 4 2 76 0 1 1 33 77 0 4 4 2 97 0 2 2 40 77 3 1 0 0 32 0 78 37 21 35 21 16 5 8 27 
CALL[ ]	/* CallFunction */";
};
width = 1315;
},
{
layerId = "CD48D813-7107-4EBE-8BC7-C661170EDB17";
paths = (
{
closed = 1;
nodes = (
"492 0 LINE",
"492 54 LINE",
"329 54 LINE",
"329 676 LINE",
"353 839 OFFCURVE",
"539 1048 OFFCURVE",
"714 1048 QCURVE SMOOTH",
"845 1048 OFFCURVE",
"1002 873 OFFCURVE",
"1002 660 QCURVE SMOOTH",
"1002 54 LINE",
"839 54 LINE",
"839 0 LINE",
"1220 0 LINE",
"1220 54 LINE",
"1057 54 LINE",
"1057 658 LINE SMOOTH",
"1057 888 OFFCURVE",
"882 1102 OFFCURVE",
"713 1102 QCURVE SMOOTH",
"573 1102 OFFCURVE",
"379 972 OFFCURVE",
"329 854 QCURVE",
"329 1560 LINE",
"112 1560 LINE",
"112 1506 LINE",
"275 1506 LINE",
"275 54 LINE",
"112 54 LINE",
"112 0 LINE"
);
}
);
width = 1315;
}
);
note = h;
unicode = 0068;
},
{
glyphname = i;
lastChange = "2024-07-28 02:28:05 +0000";
layers = (
{
layerId = "1AFB1E35-9546-41E1-B92B-6969383A0DDD";
paths = (
{
closed = 1;
nodes = (
"628 0 LINE",
"628 205 LINE",
"506 237 LINE",
"506 1082 LINE",
"22 1082 LINE",
"22 876 LINE",
"168 844 LINE",
"168 237 LINE",
"45 205 LINE",
"45 0 LINE"
);
},
{
closed = 1;
nodes = (
"506 1287 LINE",
"506 1560 LINE",
"158 1560 LINE",
"158 1287 LINE"
);
}
);
width = 652;
},
{
layerId = "759DCBF5-126F-43AE-ABB8-3EC70824EECD";
paths = (
{
closed = 1;
nodes = (
"590 0 LINE",
"590 126 LINE",
"427 154 LINE",
"427 1082 LINE",
"67 1082 LINE",
"67 955 LINE",
"230 927 LINE",
"230 154 LINE",
"67 126 LINE",
"67 0 LINE"
);
},
{
closed = 1;
nodes = (
"427 1349 LINE",
"427 1560 LINE",
"220 1560 LINE",
"220 1349 LINE"
);
}
);
userData = {
assembly = "NPUSHB[ ]	/* 47 values pushed */
13 10 9 8 7 4 6 2 3 1 76 0 0 0 1 95 4 1 1 1 33 77 0 3 3 34 77 0 2 2 32 2 78 0 0 12 11 6 5 0 3 0 3 17 5 8 23 
CALL[ ]	/* CallFunction */";
};
width = 652;
},
{
layerId = "CD48D813-7107-4EBE-8BC7-C661170EDB17";
paths = (
{
closed = 1;
nodes = (
"519 0 LINE",
"519 54 LINE",
"356 54 LINE",
"356 1082 LINE",
"139 1082 LINE",
"139 1028 LINE",
"302 1028 LINE",
"302 54 LINE",
"139 54 LINE",
"139 0 LINE"
);
},
{
closed = 1;
nodes = (
"356 1420 LINE",
"356 1560 LINE",
"284 1560 LINE",
"284 1420 LINE"
);
}
);
width = 652;
}
);
note = i;
unicode = 0069;
},
{
glyphname = j;
lastChange = "2024-08-01 13:36:16 +0000";
layers = (
{
layerId = "1AFB1E35-9546-41E1-B92B-6969383A0DDD";
paths = (
{
closed = 1;
nodes = (
"284 -437 OFFCURVE",
"485 -215 OFFCURVE",
"485 -10 QCURVE SMOOTH",
"485 1082 LINE",
"24 1082 LINE",
"24 876 LINE",
"164 844 LINE",
"164 -10 LINE SMOOTH",
"164 -86 OFFCURVE",
"108 -169 OFFCURVE",
"56 -169 QCURVE SMOOTH",
"27 -169 OFFCURVE",
"-9 -162 OFFCURVE",
"-33 -156 QCURVE",
"-48 -421 LINE",
"-10 -430 OFFCURVE",
"60 -437 OFFCURVE",
"103 -437 QCURVE SMOOTH"
);
},
{
closed = 1;
nodes = (
"482 1287 LINE",
"482 1560 LINE",
"149 1560 LINE",
"149 1287 LINE"
);
}
);
width = 525;
},
{
layerId = "759DCBF5-126F-43AE-ABB8-3EC70824EECD";
paths = (
{
closed = 1;
nodes = (
"209 -437 OFFCURVE",
"381 -256 OFFCURVE",
"381 -89 QCURVE SMOOTH",
"381 1082 LINE",
"21 1082 LINE",
"21 955 LINE",
"184 927 LINE",
"184 -89 LINE SMOOTH",
"184 -179 OFFCURVE",
"115 -282 OFFCURVE",
"56 -282 QCURVE SMOOTH",
"38 -282 OFFCURVE",
"-29 -274 OFFCURVE",
"-43 -269 QCURVE",
"-56 -419 LINE",
"-28 -428 OFFCURVE",
"24 -437 OFFCURVE",
"56 -437 QCURVE SMOOTH"
);
},
{
closed = 1;
nodes = (
"381 1349 LINE",
"381 1560 LINE",
"174 1560 LINE",
"174 1349 LINE"
);
}
);
userData = {
assembly = "NPUSHB[ ]	/* 61 values pushed */
12 11 4 3 1 2 3 1 0 1 2 76 0 3 3 4 95 6 1 4 4 33 77 0 2 2 34 77 0 1 1 0 98 5 1 0 0 42 0 78 18 18 1 0 18 21 18 21 20 19 14 13 8 6 0 17 1 17 7 8 22 
CALL[ ]	/* CallFunction */";
};
width = 525;
},
{
layerId = "CD48D813-7107-4EBE-8BC7-C661170EDB17";
paths = (
{
closed = 1;
nodes = (
"243 -437 OFFCURVE",
"393 -256 OFFCURVE",
"393 -89 QCURVE SMOOTH",
"393 1082 LINE",
"176 1082 LINE",
"176 1028 LINE",
"339 1028 LINE",
"339 -89 LINE SMOOTH",
"339 -230 OFFCURVE",
"218 -383 OFFCURVE",
"108 -383 QCURVE SMOOTH",
"82 -383 OFFCURVE",
"27 -371 OFFCURVE",
"9 -365 QCURVE",
"-4 -417 LINE",
"26 -427 OFFCURVE",
"78 -437 OFFCURVE",
"108 -437 QCURVE SMOOTH"
);
},
{
closed = 1;
nodes = (
"387 1420 LINE",
"387 1560 LINE",
"315 1560 LINE",
"315 1420 LINE"
);
}
);
width = 525;
}
);
note = j;
unicode = 006A;
},
{
glyphname = k;
lastChange = "2024-08-01 13:37:16 +0000";
layers = (
{
layerId = "1AFB1E35-9546-41E1-B92B-6969383A0DDD";
paths = (
{
closed = 1;
nodes = (
"598 0 LINE",
"598 205 LINE",
"498 237 LINE",
"498 319 LINE",
"622 425 LINE",
"762 218 LINE",
"763 214 LINE",
"699 191 LINE",
"699 0 LINE",
"1256 0 LINE",
"1256 205 LINE",
"1139 241 LINE",
"859 629 LINE",
"1101 835 LINE",
"1237 876 LINE",
"1237 1082 LINE",
"633 1082 LINE",
"633 879 LINE",
"737 861 LINE",
"737 860 LINE",
"498 646 LINE",
"498 1560 LINE",
"12 1560 LINE",
"12 1354 LINE",
"159 1322 LINE",
"159 237 LINE",
"35 205 LINE",
"35 0 LINE"
);
}
);
width = 1287;
},
{
layerId = "759DCBF5-126F-43AE-ABB8-3EC70824EECD";
paths = (
{
closed = 1;
nodes = (
"587 0 LINE",
"587 126 LINE",
"424 154 LINE",
"424 327 LINE",
"592 496 LINE",
"866 143 LINE",
"869 139 LINE",
"759 126 LINE",
"759 0 LINE",
"1248 0 LINE",
"1248 126 LINE",
"1092 150 LINE",
"719 623 LINE",
"1023 929 LINE",
"1162 955 LINE",
"1162 1082 LINE",
"696 1082 LINE",
"696 955 LINE",
"812 942 LINE",
"807 936 LINE",
"424 555 LINE",
"424 1560 LINE",
"64 1560 LINE",
"64 1433 LINE",
"227 1405 LINE",
"227 154 LINE",
"64 126 LINE",
"64 0 LINE"
);
}
);
userData = {
assembly = "NPUSHB[ ]	/* 47 values pushed */
17 16 2 3 2 26 23 21 20 15 14 11 10 9 8 6 5 2 13 0 3 2 76 0 2 2 33 77 0 3 3 34 77 1 1 0 0 32 0 78 21 21 24 19 4 8 26 
CALL[ ]	/* CallFunction */";
};
width = 1287;
},
{
layerId = "CD48D813-7107-4EBE-8BC7-C661170EDB17";
paths = (
{
closed = 1;
nodes = (
"512 0 LINE",
"512 54 LINE",
"349 54 LINE",
"349 357 LINE",
"574 594 LINE",
"959 59 LINE",
"957 54 LINE",
"831 54 LINE",
"831 0 LINE",
"1151 0 LINE",
"1151 54 LINE",
"1034 54 LINE",
"610 632 LINE",
"986 1028 LINE",
"1108 1028 LINE",
"1108 1082 LINE",
"787 1082 LINE",
"787 1028 LINE",
"906 1028 LINE",
"908 1022 LINE",
"349 430 LINE",
"349 1560 LINE",
"132 1560 LINE",
"132 1506 LINE",
"295 1506 LINE",
"295 54 LINE",
"132 54 LINE",
"132 0 LINE"
);
}
);
width = 1287;
}
);
note = k;
unicode = 006B;
},
{
glyphname = l;
lastChange = "2024-08-01 13:37:52 +0000";
layers = (
{
layerId = "1AFB1E35-9546-41E1-B92B-6969383A0DDD";
paths = (
{
closed = 1;
nodes = (
"642 0 LINE",
"642 205 LINE",
"515 237 LINE",
"515 1560 LINE",
"12 1560 LINE",
"12 1354 LINE",
"164 1322 LINE",
"164 237 LINE",
"36 205 LINE",
"36 0 LINE"
);
}
);
width = 653;
},
{
layerId = "759DCBF5-126F-43AE-ABB8-3EC70824EECD";
paths = (
{
closed = 1;
nodes = (
"587 0 LINE",
"587 126 LINE",
"424 154 LINE",
"424 1560 LINE",
"64 1560 LINE",
"64 1433 LINE",
"227 1405 LINE",
"227 154 LINE",
"64 126 LINE",
"64 0 LINE"
);
}
);
userData = {
assembly = "NPUSHB[ ]	/* 27 values pushed */
9 6 5 4 3 0 6 0 1 1 76 0 1 1 33 77 0 0 0 32 0 78 21 17 2 8 24 
CALL[ ]	/* CallFunction */";
};
width = 653;
},
{
layerId = "CD48D813-7107-4EBE-8BC7-C661170EDB17";
paths = (
{
closed = 1;
nodes = (
"522 0 LINE",
"522 54 LINE",
"359 54 LINE",
"359 1560 LINE",
"142 1560 LINE",
"142 1506 LINE",
"305 1506 LINE",
"305 54 LINE",
"142 54 LINE",
"142 0 LINE"
);
}
);
width = 653;
}
);
note = l;
unicode = 006C;
},
{
glyphname = m;
lastChange = "2024-07-28 02:24:52 +0000";
layers = (
{
layerId = "1AFB1E35-9546-41E1-B92B-6969383A0DDD";
paths = (
{
closed = 1;
nodes = (
"658 0 LINE",
"658 205 LINE",
"555 237 LINE",
"555 764 LINE",
"583 798 OFFCURVE",
"657 833 OFFCURVE",
"702 833 QCURVE SMOOTH",
"760 833 OFFCURVE",
"818 765 OFFCURVE",
"818 670 QCURVE SMOOTH",
"818 237 LINE",
"728 205 LINE",
"728 0 LINE",
"1257 0 LINE",
"1257 205 LINE",
"1167 237 LINE",
"1167 765 LINE",
"1195 798 OFFCURVE",
"1269 833 OFFCURVE",
"1315 833 QCURVE SMOOTH",
"1371 833 OFFCURVE",
"1430 765 OFFCURVE",
"1430 670 QCURVE SMOOTH",
"1430 237 LINE",
"1327 205 LINE",
"1327 0 LINE",
"1908 0 LINE",
"1908 205 LINE",
"1780 237 LINE",
"1780 670 LINE SMOOTH",
"1780 890 OFFCURVE",
"1600 1102 OFFCURVE",
"1443 1102 QCURVE SMOOTH",
"1338 1102 OFFCURVE",
"1183 1010 OFFCURVE",
"1134 926 QCURVE",
"1097 1015 OFFCURVE",
"952 1102 OFFCURVE",
"851 1102 QCURVE SMOOTH",
"751 1102 OFFCURVE",
"599 1016 OFFCURVE",
"546 938 QCURVE",
"535 1082 LINE",
"54 1082 LINE",
"54 876 LINE",
"206 844 LINE",
"206 237 LINE",
"78 205 LINE",
"78 0 LINE"
);
}
);
width = 1977;
},
{
layerId = "759DCBF5-126F-43AE-ABB8-3EC70824EECD";
paths = (
{
closed = 1;
nodes = (
"597 0 LINE",
"597 126 LINE",
"434 154 LINE",
"434 801 LINE",
"465 868 OFFCURVE",
"581 942 OFFCURVE",
"671 942 QCURVE SMOOTH",
"778 942 OFFCURVE",
"891 801 OFFCURVE",
"891 649 QCURVE SMOOTH",
"891 154 LINE",
"728 126 LINE",
"728 0 LINE",
"1251 0 LINE",
"1251 126 LINE",
"1088 154 LINE",
"1088 687 LINE",
"1098 797 OFFCURVE",
"1223 942 OFFCURVE",
"1326 942 QCURVE SMOOTH",
"1434 942 OFFCURVE",
"1544 809 OFFCURVE",
"1544 649 QCURVE SMOOTH",
"1544 154 LINE",
"1381 126 LINE",
"1381 0 LINE",
"1905 0 LINE",
"1905 126 LINE",
"1742 154 LINE",
"1742 647 LINE SMOOTH",
"1742 875 OFFCURVE",
"1550 1102 OFFCURVE",
"1384 1102 QCURVE SMOOTH",
"1272 1102 OFFCURVE",
"1104 994 OFFCURVE",
"1053 902 QCURVE",
"1014 1002 OFFCURVE",
"859 1102 OFFCURVE",
"751 1102 QCURVE SMOOTH",
"643 1102 OFFCURVE",
"479 1018 OFFCURVE",
"427 941 QCURVE",
"414 1082 LINE",
"74 1082 LINE",
"74 955 LINE",
"237 927 LINE",
"237 154 LINE",
"74 126 LINE",
"74 0 LINE"
);
}
);
userData = {
assembly = "NPUSHB[ ]	/* 26 values pushed */
5 1 5 1 48 47 46 39 38 35 34 33 26 25 22 21 14 8 4 3 2 17 0 5 2 76 
MPPEM[ ]	/* MeasurePixelPerEm */
PUSHB[ ]	/* 1 value pushed */
25 
LT[ ]	/* LessThan */
IF[ ]	/* If */
NPUSHB[ ]	/* 21 values pushed */
7 1 5 5 1 97 3 2 2 1 1 34 77 6 4 2 0 0 32 0 78 
ELSE[ ]	/* Else */
NPUSHB[ ]	/* 25 values pushed */
0 1 1 34 77 7 1 5 5 2 97 3 1 2 2 40 77 6 4 2 0 0 32 0 78 
EIF[ ]	/* EndIf */
NPUSHB[ ]	/* 11 values pushed */
37 21 37 21 36 35 21 16 8 8 30 
CALL[ ]	/* CallFunction */";
};
width = 1977;
},
{
layerId = "CD48D813-7107-4EBE-8BC7-C661170EDB17";
paths = (
{
closed = 1;
nodes = (
"463 0 LINE",
"463 54 LINE",
"300 54 LINE",
"300 694 LINE",
"324 851 OFFCURVE",
"498 1048 OFFCURVE",
"666 1048 QCURVE SMOOTH",
"807 1048 OFFCURVE",
"975 855 OFFCURVE",
"975 619 QCURVE SMOOTH",
"975 54 LINE",
"812 54 LINE",
"812 0 LINE",
"1193 0 LINE",
"1193 54 LINE",
"1030 54 LINE",
"1030 682 LINE",
"1050 842 OFFCURVE",
"1226 1049 OFFCURVE",
"1398 1049 QCURVE SMOOTH",
"1538 1049 OFFCURVE",
"1706 855 OFFCURVE",
"1706 620 QCURVE SMOOTH",
"1706 55 LINE",
"1543 55 LINE",
"1543 1 LINE",
"1924 1 LINE",
"1924 55 LINE",
"1761 55 LINE",
"1761 618 LINE SMOOTH",
"1761 869 OFFCURVE",
"1575 1103 OFFCURVE",
"1396 1103 QCURVE SMOOTH",
"1250 1103 OFFCURVE",
"1055 948 OFFCURVE",
"1012 810 QCURVE",
"979 959 OFFCURVE",
"804 1102 OFFCURVE",
"664 1102 QCURVE SMOOTH",
"532 1102 OFFCURVE",
"348 974 OFFCURVE",
"299 859 QCURVE",
"292 1082 LINE",
"82 1082 LINE",
"82 1028 LINE",
"245 1028 LINE",
"245 54 LINE",
"82 54 LINE",
"82 0 LINE"
);
}
);
width = 1977;
}
);
note = m;
unicode = 006D;
},
{
glyphname = n;
lastChange = "2024-08-03 02:47:52 +0000";
layers = (
{
layerId = "1AFB1E35-9546-41E1-B92B-6969383A0DDD";
paths = (
{
closed = 1;
nodes = (
"625 0 LINE",
"625 205 LINE",
"535 237 LINE",
"535 763 LINE",
"561 798 OFFCURVE",
"631 833 OFFCURVE",
"680 833 QCURVE SMOOTH",
"745 833 OFFCURVE",
"815 760 OFFCURVE",
"815 673 QCURVE SMOOTH",
"815 237 LINE",
"713 205 LINE",
"713 0 LINE",
"1293 0 LINE",
"1293 205 LINE",
"1167 237 LINE",
"1167 672 LINE SMOOTH",
"1167 896 OFFCURVE",
"991 1102 OFFCURVE",
"839 1102 QCURVE SMOOTH",
"739 1102 OFFCURVE",
"582 1012 OFFCURVE",
"528 931 QCURVE",
"516 1082 LINE",
"34 1082 LINE",
"34 876 LINE",
"184 844 LINE",
"184 237 LINE",
"58 205 LINE",
"58 0 LINE"
);
}
);
width = 1343;
},
{
layerId = "759DCBF5-126F-43AE-ABB8-3EC70824EECD";
paths = (
{
closed = 1;
nodes = (
"597 0 LINE",
"597 126 LINE",
"434 154 LINE",
"434 789 LINE",
"473 860 OFFCURVE",
"604 942 OFFCURVE",
"689 942 QCURVE SMOOTH",
"805 942 OFFCURVE",
"918 822 OFFCURVE",
"918 679 QCURVE SMOOTH",
"918 154 LINE",
"755 126 LINE",
"755 0 LINE",
"1278 0 LINE",
"1278 126 LINE",
"1115 154 LINE",
"1115 683 LINE SMOOTH",
"1115 897 OFFCURVE",
"923 1102 OFFCURVE",
"748 1102 QCURVE SMOOTH",
"644 1102 OFFCURVE",
"481 1007 OFFCURVE",
"427 921 QCURVE",
"413 1082 LINE",
"74 1082 LINE",
"74 955 LINE",
"237 927 LINE",
"237 154 LINE",
"74 126 LINE",
"74 0 LINE"
);
}
);
userData = {
assembly = "NPUSHB[ ]	/* 20 values pushed */
5 1 4 1 29 28 27 20 19 16 15 8 4 3 2 11 0 4 2 76 
MPPEM[ ]	/* MeasurePixelPerEm */
PUSHB[ ]	/* 1 value pushed */
25 
LT[ ]	/* LessThan */
IF[ ]	/* If */
NPUSHB[ ]	/* 18 values pushed */
0 4 4 1 97 2 1 1 1 34 77 3 1 0 0 32 0 78 
ELSE[ ]	/* Else */
NPUSHB[ ]	/* 22 values pushed */
0 1 1 34 77 0 4 4 2 97 0 2 2 40 77 3 1 0 0 32 0 78 
EIF[ ]	/* EndIf */
PUSHB[ ]	/* 8 values pushed */
37 21 35 21 16 5 8 27 
CALL[ ]	/* CallFunction */";
};
width = 1343;
},
{
layerId = "CD48D813-7107-4EBE-8BC7-C661170EDB17";
paths = (
{
closed = 1;
nodes = (
"499 0 LINE",
"499 54 LINE",
"336 54 LINE",
"336 676 LINE",
"358 839 OFFCURVE",
"536 1048 OFFCURVE",
"711 1048 QCURVE SMOOTH",
"849 1048 OFFCURVE",
"1010 864 OFFCURVE",
"1010 639 QCURVE SMOOTH",
"1010 54 LINE",
"847 54 LINE",
"847 0 LINE",
"1227 0 LINE",
"1227 54 LINE",
"1064 54 LINE",
"1064 637 LINE SMOOTH",
"1064 879 OFFCURVE",
"887 1102 OFFCURVE",
"710 1102 QCURVE SMOOTH",
"572 1102 OFFCURVE",
"384 975 OFFCURVE",
"335 859 QCURVE",
"328 1082 LINE",
"119 1082 LINE",
"119 1028 LINE",
"282 1028 LINE",
"282 54 LINE",
"119 54 LINE",
"119 0 LINE"
);
}
);
width = 1343;
}
);
note = n;
unicode = 006E;
},
{
glyphname = o;
lastChange = "2024-07-28 02:26:29 +0000";
layers = (
{
layerId = "1AFB1E35-9546-41E1-B92B-6969383A0DDD";
paths = (
{
closed = 1;
nodes = (
"729 -21 OFFCURVE",
"960 119 OFFCURVE",
"1083 368 OFFCURVE",
"1083 531 QCURVE SMOOTH",
"1083 551 LINE SMOOTH",
"1083 714 OFFCURVE",
"960 962 OFFCURVE",
"729 1102 OFFCURVE",
"565 1102 QCURVE SMOOTH",
"402 1102 OFFCURVE",
"170 961 OFFCURVE",
"47 713 OFFCURVE",
"47 551 QCURVE SMOOTH",
"47 531 LINE SMOOTH",
"47 367 OFFCURVE",
"170 118 OFFCURVE",
"403 -21 OFFCURVE",
"567 -21 QCURVE SMOOTH"
);
},
{
closed = 1;
nodes = (
"502 246 OFFCURVE",
"425 314 OFFCURVE",
"392 442 OFFCURVE",
"392 531 QCURVE SMOOTH",
"392 551 LINE SMOOTH",
"392 636 OFFCURVE",
"425 763 OFFCURVE",
"502 834 OFFCURVE",
"565 834 QCURVE SMOOTH",
"629 834 OFFCURVE",
"705 763 OFFCURVE",
"740 636 OFFCURVE",
"740 551 QCURVE SMOOTH",
"740 531 LINE SMOOTH",
"740 443 OFFCURVE",
"705 315 OFFCURVE",
"630 246 OFFCURVE",
"567 246 QCURVE SMOOTH"
);
}
);
width = 1124;
},
{
layerId = "759DCBF5-126F-43AE-ABB8-3EC70824EECD";
paths = (
{
closed = 1;
nodes = (
"712 -21 OFFCURVE",
"928 119 OFFCURVE",
"1046 368 OFFCURVE",
"1046 529 QCURVE SMOOTH",
"1046 551 LINE SMOOTH",
"1046 712 OFFCURVE",
"928 960 OFFCURVE",
"711 1102 OFFCURVE",
"561 1102 QCURVE SMOOTH",
"413 1102 OFFCURVE",
"196 960 OFFCURVE",
"78 711 OFFCURVE",
"78 551 QCURVE SMOOTH",
"78 529 LINE SMOOTH",
"78 369 OFFCURVE",
"196 120 OFFCURVE",
"413 -21 OFFCURVE",
"563 -21 QCURVE SMOOTH"
);
},
{
closed = 1;
nodes = (
"468 133 OFFCURVE",
"339 236 OFFCURVE",
"275 415 OFFCURVE",
"275 529 QCURVE SMOOTH",
"275 551 LINE SMOOTH",
"275 665 OFFCURVE",
"339 844 OFFCURVE",
"467 947 OFFCURVE",
"561 947 QCURVE SMOOTH",
"656 947 OFFCURVE",
"784 844 OFFCURVE",
"849 665 OFFCURVE",
"849 551 QCURVE SMOOTH",
"849 529 LINE SMOOTH",
"849 415 OFFCURVE",
"784 236 OFFCURVE",
"657 133 OFFCURVE",
"563 133 QCURVE SMOOTH"
);
}
);
userData = {
assembly = "NPUSHB[ ]	/* 42 values pushed */
0 3 3 1 97 0 1 1 40 77 5 1 2 2 0 97 4 1 0 0 38 0 78 19 18 1 0 28 26 18 35 19 35 10 8 0 17 1 17 6 8 22 
CALL[ ]	/* CallFunction */";
};
width = 1124;
},
{
layerId = "CD48D813-7107-4EBE-8BC7-C661170EDB17";
paths = (
{
closed = 1;
nodes = (
"708 -21 OFFCURVE",
"921 117 OFFCURVE",
"1041 361 OFFCURVE",
"1041 520 QCURVE SMOOTH",
"1041 562 LINE SMOOTH",
"1041 721 OFFCURVE",
"921 964 OFFCURVE",
"708 1102 OFFCURVE",
"567 1102 QCURVE SMOOTH",
"427 1102 OFFCURVE",
"214 964 OFFCURVE",
"94 721 OFFCURVE",
"94 562 QCURVE SMOOTH",
"94 520 LINE SMOOTH",
"94 361 OFFCURVE",
"214 117 OFFCURVE",
"428 -21 OFFCURVE",
"569 -21 QCURVE SMOOTH"
);
},
{
closed = 1;
nodes = (
"440 33 OFFCURVE",
"251 163 OFFCURVE",
"148 384 OFFCURVE",
"148 520 QCURVE SMOOTH",
"148 562 LINE SMOOTH",
"148 695 OFFCURVE",
"251 916 OFFCURVE",
"440 1048 OFFCURVE",
"567 1048 QCURVE SMOOTH",
"694 1048 OFFCURVE",
"883 916 OFFCURVE",
"987 695 OFFCURVE",
"987 562 QCURVE SMOOTH",
"987 520 LINE SMOOTH",
"987 385 OFFCURVE",
"884 164 OFFCURVE",
"696 33 OFFCURVE",
"569 33 QCURVE SMOOTH"
);
}
);
width = 1124;
}
);
note = o;
unicode = 006F;
},
{
glyphname = p;
lastChange = "2024-08-03 02:48:48 +0000";
layers = (
{
layerId = "1AFB1E35-9546-41E1-B92B-6969383A0DDD";
paths = (
{
closed = 1;
nodes = (
"645 -416 LINE",
"645 -210 LINE",
"527 -178 LINE",
"527 97 LINE",
"569 39 OFFCURVE",
"686 -21 OFFCURVE",
"763 -21 QCURVE SMOOTH",
"889 -21 OFFCURVE",
"1068 113 OFFCURVE",
"1163 356 OFFCURVE",
"1163 518 QCURVE SMOOTH",
"1163 539 LINE SMOOTH",
"1163 707 OFFCURVE",
"1068 961 OFFCURVE",
"891 1102 OFFCURVE",
"768 1102 QCURVE SMOOTH",
"681 1102 OFFCURVE",
"562 1028 OFFCURVE",
"519 960 QCURVE",
"508 1082 LINE",
"45 1082 LINE",
"45 876 LINE",
"191 844 LINE",
"191 -178 LINE",
"62 -210 LINE",
"62 -416 LINE"
);
},
{
closed = 1;
nodes = (
"619 246 OFFCURVE",
"547 279 OFFCURVE",
"527 312 QCURVE",
"527 753 LINE",
"547 793 OFFCURVE",
"618 833 OFFCURVE",
"661 833 QCURVE SMOOTH",
"721 833 OFFCURVE",
"793 760 OFFCURVE",
"825 628 OFFCURVE",
"825 539 QCURVE SMOOTH",
"825 518 LINE SMOOTH",
"825 389 OFFCURVE",
"754 246 OFFCURVE",
"663 246 QCURVE SMOOTH"
);
}
);
width = 1197;
},
{
layerId = "759DCBF5-126F-43AE-ABB8-3EC70824EECD";
paths = (
{
closed = 1;
nodes = (
"566 -416 LINE",
"566 -289 LINE",
"394 -261 LINE",
"394 112 LINE",
"447 46 OFFCURVE",
"598 -21 OFFCURVE",
"698 -21 QCURVE SMOOTH",
"830 -21 OFFCURVE",
"1018 110 OFFCURVE",
"1119 344 OFFCURVE",
"1119 500 QCURVE SMOOTH",
"1119 521 LINE SMOOTH",
"1119 696 OFFCURVE",
"1019 957 OFFCURVE",
"829 1102 OFFCURVE",
"695 1102 QCURVE SMOOTH",
"593 1102 OFFCURVE",
"438 1024 OFFCURVE",
"384 950 QCURVE",
"366 1082 LINE",
"34 1082 LINE",
"34 955 LINE",
"197 927 LINE",
"197 -261 LINE",
"44 -289 LINE",
"44 -416 LINE"
);
},
{
closed = 1;
nodes = (
"550 133 OFFCURVE",
"431 206 OFFCURVE",
"394 273 QCURVE",
"394 800 LINE",
"431 866 OFFCURVE",
"551 942 OFFCURVE",
"635 942 QCURVE SMOOTH",
"730 942 OFFCURVE",
"857 834 OFFCURVE",
"921 645 OFFCURVE",
"921 521 QCURVE SMOOTH",
"921 500 LINE SMOOTH",
"921 337 OFFCURVE",
"777 133 OFFCURVE",
"637 133 QCURVE SMOOTH"
);
}
);
userData = {
assembly = "NPUSHB[ ]	/* 24 values pushed */
8 5 2 5 1 38 37 4 3 4 5 23 1 3 4 25 24 3 2 4 0 3 4 76 
MPPEM[ ]	/* MeasurePixelPerEm */
PUSHB[ ]	/* 1 value pushed */
25 
LT[ ]	/* LessThan */
IF[ ]	/* If */
NPUSHB[ ]	/* 28 values pushed */
0 5 5 1 97 2 1 1 1 34 77 6 1 4 4 3 97 0 3 3 38 77 0 0 0 36 0 78 
ELSE[ ]	/* Else */
NPUSHB[ ]	/* 32 values pushed */
0 1 1 34 77 0 5 5 2 97 0 2 2 40 77 6 1 4 4 3 97 0 3 3 38 77 0 0 0 36 0 78 
EIF[ ]	/* EndIf */
NPUSHB[ ]	/* 15 values pushed */
27 26 35 33 26 40 27 40 39 35 21 16 7 8 26 
CALL[ ]	/* CallFunction */";
};
width = 1197;
},
{
layerId = "CD48D813-7107-4EBE-8BC7-C661170EDB17";
paths = (
{
closed = 1;
nodes = (
"485 -416 LINE",
"485 -362 LINE",
"322 -362 LINE",
"322 168 LINE",
"375 81 OFFCURVE",
"564 -21 OFFCURVE",
"691 -21 QCURVE SMOOTH",
"818 -21 OFFCURVE",
"1000 111 OFFCURVE",
"1097 354 OFFCURVE",
"1097 521 QCURVE SMOOTH",
"1097 542 LINE SMOOTH",
"1097 713 OFFCURVE",
"999 965 OFFCURVE",
"816 1102 OFFCURVE",
"689 1102 QCURVE SMOOTH",
"561 1102 OFFCURVE",
"375 988 OFFCURVE",
"321 888 QCURVE",
"310 1082 LINE",
"105 1082 LINE",
"105 1028 LINE",
"268 1028 LINE",
"268 -362 LINE",
"105 -362 LINE",
"105 -416 LINE"
);
},
{
closed = 1;
nodes = (
"550 33 OFFCURVE",
"362 161 OFFCURVE",
"322 269 QCURVE",
"322 775 LINE",
"359 890 OFFCURVE",
"533 1048 OFFCURVE",
"690 1048 QCURVE SMOOTH",
"804 1048 OFFCURVE",
"961 920 OFFCURVE",
"1042 692 OFFCURVE",
"1042 542 QCURVE SMOOTH",
"1042 521 LINE SMOOTH",
"1042 297 OFFCURVE",
"863 33 OFFCURVE",
"692 33 QCURVE SMOOTH"
);
}
);
width = 1197;
}
);
note = p;
unicode = 0070;
},
{
glyphname = q;
lastChange = "2024-08-03 02:50:20 +0000";
layers = (
{
layerId = "1AFB1E35-9546-41E1-B92B-6969383A0DDD";
paths = (
{
closed = 1;
nodes = (
"1191 -416 LINE",
"1191 -208 LINE",
"1074 -178 LINE",
"1074 1082 LINE",
"769 1082 LINE",
"742 945 LINE",
"695 1019 OFFCURVE",
"566 1102 OFFCURVE",
"470 1102 QCURVE SMOOTH",
"342 1102 OFFCURVE",
"158 961 OFFCURVE",
"60 708 OFFCURVE",
"60 539 QCURVE SMOOTH",
"60 518 LINE SMOOTH",
"60 356 OFFCURVE",
"158 113 OFFCURVE",
"343 -21 OFFCURVE",
"473 -21 QCURVE SMOOTH",
"556 -21 OFFCURVE",
"677 39 OFFCURVE",
"723 99 QCURVE",
"723 -178 LINE",
"547 -216 LINE",
"547 -416 LINE"
);
},
{
closed = 1;
nodes = (
"484 246 OFFCURVE",
"411 388 OFFCURVE",
"411 518 QCURVE SMOOTH",
"411 539 LINE SMOOTH",
"411 628 OFFCURVE",
"444 761 OFFCURVE",
"520 834 OFFCURVE",
"582 834 QCURVE SMOOTH",
"628 834 OFFCURVE",
"700 794 OFFCURVE",
"723 754 QCURVE",
"723 312 LINE",
"700 278 OFFCURVE",
"625 246 OFFCURVE",
"580 246 QCURVE SMOOTH"
);
}
);
width = 1197;
},
{
layerId = "759DCBF5-126F-43AE-ABB8-3EC70824EECD";
paths = (
{
closed = 1;
nodes = (
"1135 -416 LINE",
"1135 -289 LINE",
"982 -261 LINE",
"982 1082 LINE",
"812 1082 LINE",
"796 963 LINE",
"744 1031 OFFCURVE",
"596 1102 OFFCURVE",
"501 1102 QCURVE SMOOTH",
"368 1102 OFFCURVE",
"178 957 OFFCURVE",
"78 695 OFFCURVE",
"78 521 QCURVE SMOOTH",
"78 500 LINE SMOOTH",
"78 344 OFFCURVE",
"178 110 OFFCURVE",
"367 -21 OFFCURVE",
"499 -21 QCURVE SMOOTH",
"590 -21 OFFCURVE",
"733 41 OFFCURVE",
"785 102 QCURVE",
"785 -261 LINE",
"622 -289 LINE",
"622 -416 LINE"
);
},
{
closed = 1;
nodes = (
"409 133 OFFCURVE",
"275 336 OFFCURVE",
"275 500 QCURVE SMOOTH",
"275 521 LINE SMOOTH",
"275 646 OFFCURVE",
"335 838 OFFCURVE",
"457 947 OFFCURVE",
"551 947 QCURVE SMOOTH",
"630 947 OFFCURVE",
"746 875 OFFCURVE",
"785 814 QCURVE",
"785 271 LINE",
"746 205 OFFCURVE",
"631 133 OFFCURVE",
"549 133 QCURVE SMOOTH"
);
}
);
userData = {
assembly = "MPPEM[ ]	/* MeasurePixelPerEm */
PUSHB[ ]	/* 1 value pushed */
25 
LT[ ]	/* LessThan */
IF[ ]	/* If */
NPUSHB[ ]	/* 22 values pushed */
19 1 5 2 28 27 2 4 5 4 1 1 4 23 22 3 2 4 0 1 4 76 
ELSE[ ]	/* Else */
NPUSHB[ ]	/* 22 values pushed */
19 1 5 3 28 27 2 4 5 4 1 1 4 23 22 3 2 4 0 1 4 76 
EIF[ ]	/* EndIf */
MPPEM[ ]	/* MeasurePixelPerEm */
PUSHB[ ]	/* 1 value pushed */
25 
LT[ ]	/* LessThan */
IF[ ]	/* If */
NPUSHB[ ]	/* 28 values pushed */
0 5 5 2 97 3 1 2 2 40 77 6 1 4 4 1 97 0 1 1 38 77 0 0 0 36 0 78 
ELSE[ ]	/* Else */
NPUSHB[ ]	/* 32 values pushed */
0 3 3 34 77 0 5 5 2 97 0 2 2 40 77 6 1 4 4 1 97 0 1 1 38 77 0 0 0 36 0 78 
EIF[ ]	/* EndIf */
NPUSHB[ ]	/* 15 values pushed */
25 24 32 30 24 38 25 38 19 39 37 16 7 8 26 
CALL[ ]	/* CallFunction */";
};
width = 1197;
},
{
layerId = "CD48D813-7107-4EBE-8BC7-C661170EDB17";
paths = (
{
closed = 1;
nodes = (
"1116 -416 LINE",
"1116 -362 LINE",
"953 -362 LINE",
"953 1082 LINE",
"904 1082 LINE",
"899 886 LINE",
"844 987 OFFCURVE",
"659 1102 OFFCURVE",
"532 1102 QCURVE SMOOTH",
"404 1102 OFFCURVE",
"221 965 OFFCURVE",
"124 713 OFFCURVE",
"124 542 QCURVE SMOOTH",
"124 521 LINE SMOOTH",
"124 354 OFFCURVE",
"221 111 OFFCURVE",
"403 -21 OFFCURVE",
"530 -21 QCURVE SMOOTH",
"657 -21 OFFCURVE",
"845 82 OFFCURVE",
"899 170 QCURVE",
"899 -362 LINE",
"736 -362 LINE",
"736 -416 LINE"
);
},
{
closed = 1;
nodes = (
"357 33 OFFCURVE",
"180 297 OFFCURVE",
"180 521 QCURVE SMOOTH",
"180 542 LINE SMOOTH",
"180 692 OFFCURVE",
"260 920 OFFCURVE",
"416 1048 OFFCURVE",
"531 1048 QCURVE SMOOTH",
"685 1048 OFFCURVE",
"861 883 OFFCURVE",
"899 768 QCURVE",
"899 274 LINE",
"859 164 OFFCURVE",
"672 33 OFFCURVE",
"529 33 QCURVE SMOOTH"
);
}
);
width = 1197;
}
);
note = q;
unicode = 0071;
},
{
glyphname = r;
lastChange = "2024-08-03 02:51:20 +0000";
layers = (
{
layerId = "1AFB1E35-9546-41E1-B92B-6969383A0DDD";
paths = (
{
closed = 1;
nodes = (
"663 0 LINE",
"663 205 LINE",
"543 237 LINE",
"543 715 LINE",
"572 746 OFFCURVE",
"628 773 OFFCURVE",
"677 771 QCURVE SMOOTH",
"819 764 LINE",
"852 1086 LINE",
"823 1095 OFFCURVE",
"766 1102 OFFCURVE",
"745 1102 QCURVE SMOOTH",
"669 1102 OFFCURVE",
"568 1015 OFFCURVE",
"534 923 QCURVE",
"532 950 LINE",
"525 1082 LINE",
"69 1082 LINE",
"69 876 LINE",
"211 844 LINE",
"211 237 LINE",
"92 205 LINE",
"92 0 LINE"
);
}
);
width = 854;
},
{
layerId = "759DCBF5-126F-43AE-ABB8-3EC70824EECD";
paths = (
{
closed = 1;
nodes = (
"595 0 LINE",
"595 126 LINE",
"432 154 LINE",
"432 767 LINE",
"461 835 OFFCURVE",
"567 916 OFFCURVE",
"645 911 QCURVE SMOOTH",
"782 903 LINE",
"808 1086 LINE",
"794 1091 OFFCURVE",
"729 1102 OFFCURVE",
"698 1102 QCURVE SMOOTH",
"611 1102 OFFCURVE",
"476 1008 OFFCURVE",
"430 925 QCURVE",
"428 944 LINE",
"411 1082 LINE",
"72 1082 LINE",
"72 955 LINE",
"235 927 LINE",
"235 154 LINE",
"72 126 LINE",
"72 0 LINE"
);
}
);
userData = {
assembly = "NPUSHB[ ]	/* 16 values pushed */
9 5 4 3 3 1 22 21 20 3 2 5 0 3 2 76 
MPPEM[ ]	/* MeasurePixelPerEm */
PUSHB[ ]	/* 1 value pushed */
25 
LT[ ]	/* LessThan */
IF[ ]	/* If */
NPUSHB[ ]	/* 17 values pushed */
0 3 3 1 97 2 1 1 1 34 77 0 0 0 32 0 78 
ELSE[ ]	/* Else */
NPUSHB[ ]	/* 21 values pushed */
0 1 1 34 77 0 3 3 2 97 0 2 2 40 77 0 0 0 32 0 78 
EIF[ ]	/* EndIf */
PUSHB[ ]	/* 7 values pushed */
35 36 21 16 4 8 26 
CALL[ ]	/* CallFunction */";
};
width = 854;
},
{
layerId = "CD48D813-7107-4EBE-8BC7-C661170EDB17";
paths = (
{
closed = 1;
nodes = (
"479 0 LINE",
"479 54 LINE",
"316 54 LINE",
"316 709 LINE",
"343 862 OFFCURVE",
"524 1049 OFFCURVE",
"669 1049 QCURVE",
"759 1042 LINE",
"765 1090 LINE",
"751 1094 OFFCURVE",
"692 1102 OFFCURVE",
"669 1102 QCURVE SMOOTH",
"539 1102 OFFCURVE",
"361 973 OFFCURVE",
"316 857 QCURVE",
"316 894 LINE",
"306 1082 LINE",
"99 1082 LINE",
"99 1028 LINE",
"262 1028 LINE",
"262 54 LINE",
"99 54 LINE",
"99 0 LINE"
);
}
);
width = 854;
}
);
note = r;
unicode = 0072;
},
{
glyphname = s;
lastChange = "2024-08-03 02:51:59 +0000";
layers = (
{
layerId = "1AFB1E35-9546-41E1-B92B-6969383A0DDD";
paths = (
{
closed = 1;
nodes = (
"744 -21 OFFCURVE",
"973 166 OFFCURVE",
"973 326 QCURVE SMOOTH",
"973 475 OFFCURVE",
"786 621 OFFCURVE",
"601 662 QCURVE SMOOTH",
"524 679 OFFCURVE",
"444 719 OFFCURVE",
"417 763 OFFCURVE",
"417 785 QCURVE SMOOTH",
"417 823 OFFCURVE",
"479 871 OFFCURVE",
"546 871 QCURVE SMOOTH",
"582 871 OFFCURVE",
"640 855 OFFCURVE",
"663 839 QCURVE",
"693 699 LINE",
"929 699 LINE",
"930 1025 LINE",
"859 1057 OFFCURVE",
"638 1099 OFFCURVE",
"516 1099 QCURVE SMOOTH",
"356 1099 OFFCURVE",
"165 1004 OFFCURVE",
"81 850 OFFCURVE",
"81 759 QCURVE SMOOTH",
"81 625 OFFCURVE",
"261 446 OFFCURVE",
"451 409 QCURVE SMOOTH",
"570 387 OFFCURVE",
"643 330 OFFCURVE",
"643 296 QCURVE SMOOTH",
"643 261 OFFCURVE",
"579 215 OFFCURVE",
"494 215 QCURVE SMOOTH",
"448 215 OFFCURVE",
"382 234 OFFCURVE",
"361 247 QCURVE",
"321 404 LINE",
"84 404 LINE",
"88 67 LINE",
"177 26 OFFCURVE",
"398 -21 OFFCURVE",
"526 -21 QCURVE SMOOTH"
);
}
);
width = 1022;
},
{
layerId = "759DCBF5-126F-43AE-ABB8-3EC70824EECD";
paths = (
{
closed = 1;
nodes = (
"730 -21 OFFCURVE",
"933 164 OFFCURVE",
"933 301 QCURVE SMOOTH",
"933 421 OFFCURVE",
"754 585 OFFCURVE",
"528 638 QCURVE SMOOTH",
"437 660 OFFCURVE",
"343 705 OFFCURVE",
"310 761 OFFCURVE",
"310 799 QCURVE SMOOTH",
"310 864 OFFCURVE",
"425 950 OFFCURVE",
"517 950 QCURVE SMOOTH",
"579 950 OFFCURVE",
"675 922 OFFCURVE",
"710 896 QCURVE",
"742 752 LINE",
"890 752 LINE",
"880 999 LINE",
"815 1046 OFFCURVE",
"640 1102 OFFCURVE",
"517 1102 QCURVE SMOOTH",
"396 1102 OFFCURVE",
"214 1020 OFFCURVE",
"112 881 OFFCURVE",
"112 793 QCURVE SMOOTH",
"112 667 OFFCURVE",
"297 516 OFFCURVE",
"493 471 QCURVE SMOOTH",
"631 440 OFFCURVE",
"736 351 OFFCURVE",
"736 287 QCURVE SMOOTH",
"736 219 OFFCURVE",
"632 127 OFFCURVE",
"512 127 QCURVE SMOOTH",
"451 127 OFFCURVE",
"346 148 OFFCURVE",
"290 171 QCURVE",
"253 326 LINE",
"104 326 LINE",
"106 69 LINE",
"213 23 OFFCURVE",
"403 -21 OFFCURVE",
"512 -21 QCURVE SMOOTH"
);
}
);
userData = {
assembly = "NPUSHB[ ]	/* 66 values pushed */
25 1 5 3 3 1 0 2 2 76 0 4 5 1 5 4 1 128 0 1 2 5 1 2 126 0 5 5 3 97 0 3 3 40 77 0 2 2 0 97 6 1 0 0 38 0 78 1 0 32 30 27 26 23 21 10 8 5 4 0 43 1 43 7 8 22 
CALL[ ]	/* CallFunction */";
};
width = 1022;
},
{
layerId = "CD48D813-7107-4EBE-8BC7-C661170EDB17";
paths = (
{
closed = 1;
nodes = (
"679 -21 OFFCURVE",
"887 137 OFFCURVE",
"887 264 QCURVE SMOOTH",
"887 394 OFFCURVE",
"701 544 OFFCURVE",
"519 584 QCURVE SMOOTH",
"388 613 OFFCURVE",
"252 682 OFFCURVE",
"203 770 OFFCURVE",
"203 828 QCURVE SMOOTH",
"203 912 OFFCURVE",
"351 1048 OFFCURVE",
"498 1048 QCURVE SMOOTH",
"604 1048 OFFCURVE",
"746 986 OFFCURVE",
"798 928 QCURVE",
"798 753 LINE",
"852 753 LINE",
"852 955 LINE",
"791 1022 OFFCURVE",
"614 1102 OFFCURVE",
"498 1102 QCURVE SMOOTH",
"390 1102 OFFCURVE",
"233 1029 OFFCURVE",
"149 904 OFFCURVE",
"149 826 QCURVE SMOOTH",
"149 702 OFFCURVE",
"312 572 OFFCURVE",
"503 532 QCURVE SMOOTH",
"686 492 OFFCURVE",
"833 351 OFFCURVE",
"833 265 QCURVE SMOOTH",
"833 173 OFFCURVE",
"657 33 OFFCURVE",
"507 33 QCURVE SMOOTH",
"410 33 OFFCURVE",
"236 89 OFFCURVE",
"177 152 QCURVE",
"177 315 LINE",
"123 315 LINE",
"123 122 LINE",
"190 55 OFFCURVE",
"389 -21 OFFCURVE",
"507 -21 QCURVE SMOOTH"
);
}
);
width = 1022;
}
);
note = s;
unicode = 0073;
},
